<?xml version="1.0" encoding="UTF-8"?>
<svg version="1.1" xmlns="http://www.w3.org/2000/svg" width="512" height="280">
<path d="M0 0 C2.36123127 1.20282157 4.50157626 2.51426229 6.6796875 4.01953125 C12.31837326 7.16221929 18.08210345 9.25358182 24.23828125 11.1875 C26.6796875 12.01953125 26.6796875 12.01953125 27.6796875 13.01953125 C32.06936612 13.68463407 34.82620725 12.10807538 38.51953125 9.9921875 C45.72489983 6.7478172 56.51583033 6.66887042 63.9921875 9.08203125 C74.76671821 13.98160732 80.11348227 23.66744976 84.23168945 34.23242188 C87.27868045 42.46860758 89.56225178 50.37183842 86.6796875 59.01953125 C87.3603125 59.16648438 88.0409375 59.3134375 88.7421875 59.46484375 C102.5854896 62.66794823 122.46476455 67.68019723 131.05078125 79.984375 C136.30545266 88.85650566 139.14528225 97.74803515 136.5546875 107.89453125 C134.27401702 115.03776333 129.97923174 120.87509425 123.6796875 125.01953125 C121.3671875 125.76953125 121.3671875 125.76953125 119.6796875 126.01953125 C119.3496875 127.33953125 119.0196875 128.65953125 118.6796875 130.01953125 C118.0196875 130.01953125 117.3596875 130.01953125 116.6796875 130.01953125 C116.3703125 131.00953125 116.3703125 131.00953125 116.0546875 132.01953125 C110.91693048 143.22918292 100.09298343 151.6519884 88.6796875 156.01953125 C73.84793732 161.30207241 59.54478648 163.44952308 43.9296875 163.64453125 C41.77867589 163.68121816 39.6278349 163.72177169 37.47698975 163.7671814 C35.55804138 163.80629596 33.63887771 163.83439996 31.71972656 163.86181641 C28.63466785 163.88639768 28.63466785 163.88639768 25.6796875 165.01953125 C24.065225 165.09045766 22.44790602 165.10367444 20.83203125 165.08203125 C19.84783203 165.07381348 18.86363281 165.0655957 17.84960938 165.05712891 C16.78291016 165.04472168 15.71621094 165.03231445 14.6171875 165.01953125 C6.69036384 164.95864405 -1.18607562 165.06193937 -9.10253906 165.47802734 C-34.13381537 166.77327245 -60.50939198 164.91118029 -83.87109375 154.9296875 C-87.64701941 153.52651257 -91.53476486 153.04783062 -95.5078125 152.45703125 C-96.30767578 152.33134766 -97.10753906 152.20566406 -97.93164062 152.07617188 C-132.09992404 146.83429064 -168.72950912 150.00648688 -202.3203125 157.76953125 C-209.26955056 159.35048291 -215.86706868 160.23456148 -222.6953125 157.83203125 C-223.5615625 157.23390625 -224.4278125 156.63578125 -225.3203125 156.01953125 C-226.2278125 155.40078125 -227.1353125 154.78203125 -228.0703125 154.14453125 C-230.63995428 150.57558433 -230.68176704 148.82267217 -231.0703125 144.51953125 C-231.49028855 139.81811167 -231.49028855 139.81811167 -234.26171875 136.2734375 C-235.83491294 135.48295278 -237.43549554 134.74467171 -239.05859375 134.0625 C-242.58837559 132.43477677 -244.12197213 130.17964553 -246.3203125 127.01953125 C-248.26572666 121.18328877 -248.12863593 115.00665967 -245.8203125 109.33203125 C-245.3253125 108.56890625 -244.8303125 107.80578125 -244.3203125 107.01953125 C-245.0421875 106.85453125 -245.7640625 106.68953125 -246.5078125 106.51953125 C-250.75587292 104.25389903 -252.66834537 101.52367019 -254.3203125 97.01953125 C-255.42058168 89.44967932 -255.29389489 82.8462223 -250.8046875 76.47265625 C-249.12012451 74.82355774 -247.47129139 73.95713743 -245.3203125 73.01953125 C-245.4646875 72.21515625 -245.6090625 71.41078125 -245.7578125 70.58203125 C-245.9434375 69.40640625 -246.1290625 68.23078125 -246.3203125 67.01953125 C-246.43890625 66.29636719 -246.5575 65.57320313 -246.6796875 64.828125 C-247.36939166 59.97556361 -247.40195744 56.59915011 -245.3203125 52.01953125 C-244.7325 50.72015625 -244.7325 50.72015625 -244.1328125 49.39453125 C-241.59506835 46.06921133 -239.09134545 44.83770785 -235.3203125 43.01953125 C-234.3303125 43.01953125 -233.3403125 43.01953125 -232.3203125 43.01953125 C-232.36671875 42.30667969 -232.413125 41.59382813 -232.4609375 40.859375 C-232.71095077 34.22509434 -232.35324825 30.36044616 -228.3203125 25.01953125 C-223.26411545 20.34254898 -219.27504085 18.57154044 -212.47265625 18.69140625 C-208.62226942 19.09219001 -204.94238573 19.9582913 -201.1953125 20.89453125 C-192.95537243 22.94796085 -184.78396598 24.31223657 -176.3203125 25.01953125 C-175.51480957 25.0880127 -174.70930664 25.15649414 -173.87939453 25.22705078 C-161.65089826 26.18510741 -149.54948744 26.02022611 -137.3203125 25.26953125 C-136.05759521 25.19573242 -134.79487793 25.12193359 -133.49389648 25.04589844 C-117.28249769 23.91450107 -103.16104325 20.6470306 -89.05859375 12.38671875 C-85.86755241 10.79347415 -82.7719736 9.91385886 -79.3203125 9.01953125 C-78.09957031 8.68953125 -76.87882813 8.35953125 -75.62109375 8.01953125 C-66.11681703 5.59214566 -56.78258195 4.30448795 -47.01953125 3.44921875 C-36.78667966 2.82475829 -36.78667966 2.82475829 -27.109375 -0.015625 C-19.24531264 -2.73610596 -7.91603519 -2.33755863 0 0 Z " fill="#71AA44" transform="translate(315.3203125,57.98046875)"/>
<path d="M0 0 C2.36123127 1.20282157 4.50157626 2.51426229 6.6796875 4.01953125 C12.31837326 7.16221929 18.08210345 9.25358182 24.23828125 11.1875 C26.6796875 12.01953125 26.6796875 12.01953125 27.6796875 13.01953125 C32.06936612 13.68463407 34.82620725 12.10807538 38.51953125 9.9921875 C45.72489983 6.7478172 56.51583033 6.66887042 63.9921875 9.08203125 C74.76671821 13.98160732 80.11348227 23.66744976 84.23168945 34.23242188 C87.27868045 42.46860758 89.56225178 50.37183842 86.6796875 59.01953125 C87.3396875 59.01953125 87.9996875 59.01953125 88.6796875 59.01953125 C88.3496875 59.67953125 88.0196875 60.33953125 87.6796875 61.01953125 C86.0296875 60.68953125 84.3796875 60.35953125 82.6796875 60.01953125 C82.72609375 59.02953125 82.7725 58.03953125 82.8203125 57.01953125 C83.09999495 48.58849312 83.00212303 42.07690539 77.32421875 35.43359375 C74.49020615 32.68315792 72.74885955 32.02510964 68.8046875 31.70703125 C67.2578125 31.86171875 67.2578125 31.86171875 65.6796875 32.01953125 C65.03134096 33.28908425 64.38610935 34.56022831 63.7421875 35.83203125 C63.38253906 36.53972656 63.02289063 37.24742188 62.65234375 37.9765625 C61.57238234 40.1376341 61.57238234 40.1376341 60.6796875 43.01953125 C61.3396875 43.01953125 61.9996875 43.01953125 62.6796875 43.01953125 C63.3396875 44.00953125 63.9996875 44.99953125 64.6796875 46.01953125 C68.61044394 45.44500379 68.61044394 45.44500379 71.6796875 43.01953125 C74.28303674 45.73135337 74.67425441 46.91086938 74.8671875 50.76953125 C74.774375 52.37828125 74.774375 52.37828125 74.6796875 54.01953125 C72.6796875 55.01953125 72.6796875 55.01953125 70.1171875 54.51953125 C63.88554336 51.80026835 58.56459874 47.61873666 54.6796875 42.01953125 C55.0096875 41.35953125 55.3396875 40.69953125 55.6796875 40.01953125 C56.6696875 40.67953125 57.6596875 41.33953125 58.6796875 42.01953125 C58.5971875 40.98828125 58.5146875 39.95703125 58.4296875 38.89453125 C58.77099985 33.60418978 60.80343819 30.83323892 64.5546875 27.20703125 C67.22527859 25.71464211 69.65998437 25.36267933 72.6796875 25.01953125 C68.42371912 18.86048757 63.93665913 15.8834039 56.6796875 14.01953125 C50.17270109 12.92752834 44.98772452 14.70488335 38.96484375 17.14453125 C36.6796875 18.01953125 36.6796875 18.01953125 34.6796875 18.01953125 C36.9896875 20.65953125 39.2996875 23.29953125 41.6796875 26.01953125 C41.3496875 26.67953125 41.0196875 27.33953125 40.6796875 28.01953125 C40.10863281 27.58382812 39.53757812 27.148125 38.94921875 26.69921875 C32.25052226 21.77903151 25.30868216 18.28397567 17.6796875 15.01953125 C18.19679192 17.27128594 18.69112796 19.04050542 19.8046875 21.08203125 C20.6796875 23.01953125 20.6796875 23.01953125 19.6796875 26.01953125 C19.27878906 25.45105469 18.87789063 24.88257812 18.46484375 24.296875 C12.12854647 15.6904304 4.40379991 8.37939453 -6.3203125 6.01953125 C-18.68090419 4.59880932 -28.37306972 6.14967656 -38.5078125 13.64453125 C-42.78099567 17.22567375 -45.85461872 21.13587783 -48.84765625 25.8203125 C-50.18995057 27.82485282 -51.55335936 29.38971477 -53.3203125 31.01953125 C-52.39327308 21.74913706 -47.55109329 15.6003559 -41.3203125 9.01953125 C-65.91473075 9.64217475 -90.623614 15.15972592 -109.06640625 32.56640625 C-115.06190293 39.09183418 -119.06612502 46.83353169 -122.3203125 55.01953125 C-124.15798575 50.1841535 -121.8846206 46.62142797 -119.921875 42.13671875 C-116.93951279 36.33202352 -112.93019491 31.58993721 -108.3203125 27.01953125 C-108.93922363 27.14070313 -109.55813477 27.261875 -110.19580078 27.38671875 C-141.38739229 33.26446022 -173.16636087 33.1030832 -204.12890625 25.91015625 C-210.59040036 24.45248124 -217.50904875 23.44522355 -223.4453125 26.76953125 C-225.83154239 29.63300712 -227.29415248 31.65921016 -227.3671875 35.45703125 C-227.26921875 36.30265625 -227.17125 37.14828125 -227.0703125 38.01953125 C-226.98265625 38.86515625 -226.895 39.71078125 -226.8046875 40.58203125 C-226.31778749 43.03223776 -225.54349133 44.85390315 -224.3203125 47.01953125 C-225.12855469 47.09429687 -225.93679687 47.1690625 -226.76953125 47.24609375 C-233.79366013 47.90555681 -233.79366013 47.90555681 -239.5703125 51.51953125 C-241.897246 56.17339824 -242.23926195 59.91149693 -241.3203125 65.01953125 C-239.9768798 68.12504777 -238.42498504 70.46719498 -235.3203125 72.01953125 C-235.3203125 72.67953125 -235.3203125 73.33953125 -235.3203125 74.01953125 C-236.3721875 74.24640625 -237.4240625 74.47328125 -238.5078125 74.70703125 C-243.13761339 76.02849264 -245.96175273 78.75049809 -248.43359375 82.87890625 C-250.06739651 86.82306445 -249.84987353 90.83599913 -249.3203125 95.01953125 C-246.97238592 99.89599415 -244.03270396 102.42290739 -239.3203125 105.01953125 C-236.5920621 105.80168713 -236.5920621 105.80168713 -234.3203125 106.01953125 C-235.4959375 107.16421875 -235.4959375 107.16421875 -236.6953125 108.33203125 C-239.96287318 111.677391 -241.60869438 113.67723411 -241.6328125 118.33203125 C-241.51541295 122.57913256 -240.84127324 125.49018622 -238.3203125 129.01953125 C-234.13563272 131.77761565 -230.2670087 132.52486163 -225.3203125 133.01953125 C-225.6503125 134.00953125 -225.9803125 134.99953125 -226.3203125 136.01953125 C-226.71826158 140.53472272 -226.80896485 144.66855122 -225.2578125 148.95703125 C-221.79002925 152.64854245 -218.00101653 153.92648874 -213.00390625 154.203125 C-209.25441808 154.01624701 -206.23088252 153.31712163 -202.6328125 152.26953125 C-194.87131213 150.1615047 -187.02733347 148.95626206 -179.0703125 147.83203125 C-177.89895752 147.66541992 -176.72760254 147.49880859 -175.52075195 147.32714844 C-172.12360096 146.86101826 -168.72481352 146.42834595 -165.3203125 146.01953125 C-164.41740479 145.91060547 -163.51449707 145.80167969 -162.58422852 145.68945312 C-153.01713851 144.71836723 -143.39833139 144.86892739 -133.79321289 144.88916016 C-130.76117975 144.89452529 -127.7292943 144.88918591 -124.69726562 144.8828125 C-122.73697885 144.8834733 -120.77669216 144.8847545 -118.81640625 144.88671875 C-117.92650497 144.88469452 -117.0366037 144.88267029 -116.11973572 144.88058472 C-109.80864456 144.90367997 -103.59579274 145.36008245 -97.3203125 146.01953125 C-98.12855469 145.30667969 -98.93679687 144.59382812 -99.76953125 143.859375 C-105.28160998 138.93959544 -110.38436943 134.34515405 -114.3203125 128.01953125 C-113.9903125 127.35953125 -113.6603125 126.69953125 -113.3203125 126.01953125 C-112.60488281 126.79296875 -111.88945312 127.56640625 -111.15234375 128.36328125 C-104.16715376 135.73515352 -97.33650216 141.201117 -88.3203125 146.01953125 C-87.06927734 146.70595703 -87.06927734 146.70595703 -85.79296875 147.40625 C-65.06575363 157.78622977 -42.70672775 159.16844172 -20.0078125 159.20703125 C-19.28614899 159.20830017 -18.56448547 159.20956909 -17.82095337 159.21087646 C-9.53317103 159.20922638 -1.3265829 158.91619901 6.9387207 158.25805664 C11.2904106 157.98059133 15.6290829 157.87767798 19.98828125 157.80859375 C20.80327087 157.79561249 21.6182605 157.78263123 22.45794678 157.76925659 C24.14464281 157.74268459 25.83133918 157.71613467 27.51803589 157.68960571 C68.56394727 157.50083356 68.56394727 157.50083356 103.984375 138.890625 C108.53400869 134.0993441 111.44931167 129.22643242 113.6796875 123.01953125 C106.84295315 120.7605371 106.84295315 120.7605371 100.015625 122.2265625 C99.03851563 122.75636719 98.06140625 123.28617187 97.0546875 123.83203125 C84.89006685 130.10625913 72.29446341 132.40375362 58.6796875 132.33203125 C57.5561084 132.3271167 56.4325293 132.32220215 55.27490234 132.31713867 C25.39215456 131.9117445 -10.19686667 127.64205709 -33.1484375 106.40234375 C-35.3203125 104.01953125 -35.3203125 104.01953125 -35.3203125 102.01953125 C-36.2071875 102.61765625 -37.0940625 103.21578125 -38.0078125 103.83203125 C-40.74246481 105.63793372 -43.49654298 107.35849036 -46.3203125 109.01953125 C-45.90456188 104.16910737 -43.90371272 102.1763362 -40.3203125 99.01953125 C-36.96833407 96.78487896 -35.74240004 96.74844476 -31.8203125 96.76953125 C-30.38171875 96.76179688 -30.38171875 96.76179688 -28.9140625 96.75390625 C-26.3203125 97.01953125 -26.3203125 97.01953125 -23.3203125 99.01953125 C-27.7753125 99.51453125 -27.7753125 99.51453125 -32.3203125 100.01953125 C-27.04513742 110.56988141 -11.96991493 115.37350301 -1.3203125 119.01953125 C3.94401966 120.70535107 9.26576882 121.92432504 14.6796875 123.01953125 C15.36144043 123.1690625 16.04319336 123.31859375 16.74560547 123.47265625 C28.77751121 126.04715672 40.80071046 126.33270871 53.0546875 126.39453125 C53.82196167 126.40238647 54.58923584 126.4102417 55.37976074 126.41833496 C71.36532289 126.5456725 86.80934354 124.48492362 100.5546875 115.58203125 C103.6796875 114.01953125 103.6796875 114.01953125 106.6796875 114.58203125 C107.6696875 115.05640625 108.6596875 115.53078125 109.6796875 116.01953125 C115.45855698 118.91809549 115.45855698 118.91809549 121.6796875 119.01953125 C126.67383535 115.33337451 128.52953662 110.9396877 129.6796875 105.01953125 C130.4492052 97.00811415 130.15230297 89.75668457 125.28515625 83.1171875 C122.60472413 79.90745486 119.69376093 76.91767878 116.6796875 74.01953125 C117.3396875 72.69953125 117.9996875 71.37953125 118.6796875 70.01953125 C120.69611644 71.33255475 122.69038261 72.66661537 124.6796875 74.01953125 C125.5253125 74.57640625 126.3709375 75.13328125 127.2421875 75.70703125 C133.79996951 81.92851675 136.95204587 91.19839823 138.0546875 100.01953125 C136.83575574 109.77098537 133.24223786 116.78287734 126.0546875 123.45703125 C123.84436196 124.91119279 122.27632778 125.6348438 119.6796875 126.01953125 C119.3496875 127.33953125 119.0196875 128.65953125 118.6796875 130.01953125 C118.0196875 130.01953125 117.3596875 130.01953125 116.6796875 130.01953125 C116.3703125 131.00953125 116.3703125 131.00953125 116.0546875 132.01953125 C110.91693048 143.22918292 100.09298343 151.6519884 88.6796875 156.01953125 C73.84793732 161.30207241 59.54478648 163.44952308 43.9296875 163.64453125 C41.77867589 163.68121816 39.6278349 163.72177169 37.47698975 163.7671814 C35.55804138 163.80629596 33.63887771 163.83439996 31.71972656 163.86181641 C28.63466785 163.88639768 28.63466785 163.88639768 25.6796875 165.01953125 C24.065225 165.09045766 22.44790602 165.10367444 20.83203125 165.08203125 C19.84783203 165.07381348 18.86363281 165.0655957 17.84960938 165.05712891 C16.78291016 165.04472168 15.71621094 165.03231445 14.6171875 165.01953125 C6.69036384 164.95864405 -1.18607562 165.06193937 -9.10253906 165.47802734 C-34.13381537 166.77327245 -60.50939198 164.91118029 -83.87109375 154.9296875 C-87.64701941 153.52651257 -91.53476486 153.04783062 -95.5078125 152.45703125 C-96.30767578 152.33134766 -97.10753906 152.20566406 -97.93164062 152.07617188 C-132.09992404 146.83429064 -168.72950912 150.00648688 -202.3203125 157.76953125 C-209.26955056 159.35048291 -215.86706868 160.23456148 -222.6953125 157.83203125 C-223.5615625 157.23390625 -224.4278125 156.63578125 -225.3203125 156.01953125 C-226.2278125 155.40078125 -227.1353125 154.78203125 -228.0703125 154.14453125 C-230.63995428 150.57558433 -230.68176704 148.82267217 -231.0703125 144.51953125 C-231.49028855 139.81811167 -231.49028855 139.81811167 -234.26171875 136.2734375 C-235.83491294 135.48295278 -237.43549554 134.74467171 -239.05859375 134.0625 C-242.58837559 132.43477677 -244.12197213 130.17964553 -246.3203125 127.01953125 C-248.26572666 121.18328877 -248.12863593 115.00665967 -245.8203125 109.33203125 C-245.3253125 108.56890625 -244.8303125 107.80578125 -244.3203125 107.01953125 C-245.0421875 106.85453125 -245.7640625 106.68953125 -246.5078125 106.51953125 C-250.75587292 104.25389903 -252.66834537 101.52367019 -254.3203125 97.01953125 C-255.42058168 89.44967932 -255.29389489 82.8462223 -250.8046875 76.47265625 C-249.12012451 74.82355774 -247.47129139 73.95713743 -245.3203125 73.01953125 C-245.4646875 72.21515625 -245.6090625 71.41078125 -245.7578125 70.58203125 C-245.9434375 69.40640625 -246.1290625 68.23078125 -246.3203125 67.01953125 C-246.43890625 66.29636719 -246.5575 65.57320313 -246.6796875 64.828125 C-247.36939166 59.97556361 -247.40195744 56.59915011 -245.3203125 52.01953125 C-244.7325 50.72015625 -244.7325 50.72015625 -244.1328125 49.39453125 C-241.59506835 46.06921133 -239.09134545 44.83770785 -235.3203125 43.01953125 C-234.3303125 43.01953125 -233.3403125 43.01953125 -232.3203125 43.01953125 C-232.36671875 42.30667969 -232.413125 41.59382813 -232.4609375 40.859375 C-232.71095077 34.22509434 -232.35324825 30.36044616 -228.3203125 25.01953125 C-223.26411545 20.34254898 -219.27504085 18.57154044 -212.47265625 18.69140625 C-208.62226942 19.09219001 -204.94238573 19.9582913 -201.1953125 20.89453125 C-192.95537243 22.94796085 -184.78396598 24.31223657 -176.3203125 25.01953125 C-175.51480957 25.0880127 -174.70930664 25.15649414 -173.87939453 25.22705078 C-161.65089826 26.18510741 -149.54948744 26.02022611 -137.3203125 25.26953125 C-136.05759521 25.19573242 -134.79487793 25.12193359 -133.49389648 25.04589844 C-117.28249769 23.91450107 -103.16104325 20.6470306 -89.05859375 12.38671875 C-85.86755241 10.79347415 -82.7719736 9.91385886 -79.3203125 9.01953125 C-78.09957031 8.68953125 -76.87882813 8.35953125 -75.62109375 8.01953125 C-66.11681703 5.59214566 -56.78258195 4.30448795 -47.01953125 3.44921875 C-36.78667966 2.82475829 -36.78667966 2.82475829 -27.109375 -0.015625 C-19.24531264 -2.73610596 -7.91603519 -2.33755863 0 0 Z " fill="#295217" transform="translate(315.3203125,57.98046875)"/>
<path d="M0 0 C2.17606222 2.84913852 4.19163264 5.77279168 6.1875 8.75 C19.52638387 27.6629289 40.19575991 35.31068898 62 40 C62.6614502 40.14566406 63.32290039 40.29132813 64.00439453 40.44140625 C76.54891989 43.16168428 89.0100049 44.06569588 101.83984375 44.04296875 C102.97846611 44.0416243 102.97846611 44.0416243 104.14009094 44.04025269 C114.48707396 44.01172481 124.83260874 43.85927547 135.17797852 43.68261719 C137.52297325 43.64411849 139.86803129 43.60930427 142.21313477 43.578125 C174.20566656 44.31826667 174.20566656 44.31826667 202 31 C201.00371582 31.01047363 200.00743164 31.02094727 198.98095703 31.03173828 C124.65423253 31.74326068 124.65423253 31.74326068 97 7 C101.05738596 7 103.82326595 8.88414339 107.3125 10.75 C114.69134576 14.55167712 121.90210254 17.08751783 130 19 C131.39068194 19.35133719 132.78130437 19.70291002 134.171875 20.0546875 C162.04576292 26.89156203 194.56037148 29.86658371 220.7578125 16.62109375 C221.82773437 16.08613281 222.89765625 15.55117187 224 15 C224.87785156 14.56042969 225.75570313 14.12085938 226.66015625 13.66796875 C229 13 229 13 231.23828125 13.6796875 C231.92277344 14.07414063 232.60726563 14.46859375 233.3125 14.875 C234.35857422 15.45894531 234.35857422 15.45894531 235.42578125 16.0546875 C235.94527344 16.36664063 236.46476562 16.67859375 237 17 C235.68743307 25.51676953 229.96618816 31.74048552 223.54296875 37.15234375 C218.99723699 40.45515653 214.15389915 42.79775993 209 45 C208.13375 45.38027344 207.2675 45.76054687 206.375 46.15234375 C188.20003637 53.1528748 167.46698793 52.40762363 148.28808594 52.7097168 C146.6282526 52.73600135 144.96842182 52.76244735 143.30859375 52.7890625 C142.09513527 52.8083078 142.09513527 52.8083078 140.85716248 52.82794189 C136.16387337 52.91612159 131.5094009 53.1389622 126.828125 53.51171875 C91.15017808 56.33748902 50.0724445 55.73639719 21.07421875 31.875 C17.2304131 28.40037343 13.58590344 24.73849508 10 21 C14.27507328 28.35104064 19.55609211 33.51804239 26 39 C26.66 39.66 27.32 40.32 28 41 C26.783125 41.020625 25.56625 41.04125 24.3125 41.0625 C23.62800781 41.07410156 22.94351563 41.08570313 22.23828125 41.09765625 C20 41 20 41 17.94433594 40.5065918 C13.84135065 39.80064698 9.80882971 39.81788534 5.65234375 39.796875 C4.73629364 39.78986069 3.82024353 39.78284637 2.87643433 39.77561951 C-0.10326 39.75804385 -3.08275557 39.75175698 -6.0625 39.75 C-7.07897614 39.74932526 -8.09545227 39.74865051 -9.14273071 39.74795532 C-48.60548947 39.06156254 -48.60548947 39.06156254 -86 49 C-91.45783298 49.42806533 -95.22137346 48.70488295 -100 46 C-104.13218676 41.65590623 -104.42388771 37.9950897 -104.3359375 32.26953125 C-104 30 -104 30 -102 27 C-103.010625 27.0825 -104.02125 27.165 -105.0625 27.25 C-109.65701791 26.95828458 -112.49293631 25.96473426 -116 23 C-118 19.875 -118 19.875 -119 17 C-118.67 16.34 -118.34 15.68 -118 15 C-116.98099609 15.93779297 -116.98099609 15.93779297 -115.94140625 16.89453125 C-112.53940823 19.32969318 -110.03708815 19.94172844 -105.9375 20.6875 C-104.72964844 20.91824219 -103.52179688 21.14898437 -102.27734375 21.38671875 C-91.44757135 23.06940638 -80.55809072 23.20255433 -69.625 23.1875 C-68.8814325 23.18722809 -68.13786499 23.18695618 -67.37176514 23.18667603 C-35.35877559 23.3643564 -35.35877559 23.3643564 -6 12 C-2.76766735 8.30590554 -1.34168968 4.69591388 0 0 Z " fill="#578D39" transform="translate(192,164)"/>
<path d="M0 0 C6.12374805 3.55702857 10.80179544 8.64399144 14.125 14.875 C15.54000158 23.89563508 15.32543704 32.03838115 10.625 40.0625 C5.52595606 46.94488833 -0.97998487 50.29511641 -9.3125 51.75 C-14.04790696 51.51557391 -17.13726598 48.66725859 -20.77734375 45.87109375 C-24.08323714 43.56939655 -27.43600083 42.3235222 -31.24609375 41.08203125 C-34.66319215 39.44558596 -35.90446404 37.02099918 -37.53515625 33.69921875 C-39.70458068 26.88823507 -39.36219934 19.2650199 -36.4375 12.75 C-28.84795236 -0.50468007 -14.42146454 -6.48406933 0 0 Z " fill="#F8FAF7" transform="translate(319.375,87.9375)"/>
<path d="M0 0 C12.68604371 2.51709968 24.95681 3.46708845 37.8515625 3.4453125 C38.67701569 3.44709503 39.50246887 3.44887756 40.35293579 3.45071411 C54.05489659 3.45451971 67.08386191 2.26100976 80.5065918 -0.67602539 C82.5390625 -0.9296875 82.5390625 -0.9296875 85.5390625 0.0703125 C81.82488593 5.96263329 78.06937552 9.36889789 71.33569336 11.08496094 C67.7481721 11.86432847 64.17260495 12.54261618 60.5390625 13.0703125 C59.88156006 13.17126221 59.22405762 13.27221191 58.54663086 13.3762207 C51.06153586 14.37464533 43.51365661 14.26951977 35.9765625 14.2578125 C35.26119324 14.25720825 34.54582397 14.256604 33.80877686 14.25598145 C-2.25531396 14.17312427 -2.25531396 14.17312427 -16.4609375 7.0703125 C-22.81292436 6.61735158 -28.45816651 6.93599393 -34.4609375 9.0703125 C-34.29236591 4.77173695 -33.8378711 2.54912005 -31.1484375 -0.8671875 C-22.72154305 -6.81326723 -9.24545216 -1.91953534 0 0 Z " fill="#85C358" transform="translate(122.4609375,84.9296875)"/>
<path d="M0 0 C1.12039673 0.00966797 1.12039673 0.00966797 2.26342773 0.01953125 C11.90311197 0.33719672 18.45792663 4.33845507 24.99609375 11.3125 C30.19492383 18.03616015 32.47144926 26.06528667 31.6875 34.5 C29.92993134 43.74957744 25.98717028 51.53471077 18.125 56.9375 C13.40697327 59.88942047 9.32851101 61.82234349 3.6875 61.5 C4.3475 63.15 5.0075 64.8 5.6875 66.5 C2.5462838 65.05075707 -0.05135895 63.26295769 -2.8125 61.1875 C-14.73183774 52.7490308 -27.05269695 50.32602518 -41.3125 49.5 C-38.68798383 46.87548383 -36.8247172 46.9167132 -33.1875 46.375 C-31.54394531 46.12363281 -31.54394531 46.12363281 -29.8671875 45.8671875 C-29.02414062 45.74601562 -28.18109375 45.62484375 -27.3125 45.5 C-27.8075 44.4275 -28.3025 43.355 -28.8125 42.25 C-31.69178692 34.50334709 -31.19769231 26.09581532 -28.21484375 18.453125 C-24.78794367 11.03559235 -19.29625866 5.55907526 -12.0703125 1.82421875 C-7.85398837 0.3384247 -4.4283687 -0.04004403 0 0 Z M-19.76953125 14.53515625 C-25.49878179 21.83088541 -26.40395631 29.40070107 -25.3125 38.5 C-24.54166608 41.72627177 -23.57602553 44.05294537 -21.3125 46.5 C-19.22977968 47.744447 -17.17762878 48.5892328 -14.90234375 49.4296875 C-9.91958102 51.48892881 -4.15587077 54.65662923 -0.3125 58.5 C7.1129434 59.16298602 12.66312898 57.48659031 18.671875 53.02734375 C24.29288445 47.94681598 27.11784535 41.99850995 28.06640625 34.5078125 C28.41164513 25.75433635 26.42478263 19.19098233 20.5 12.6875 C13.38384165 6.23191331 6.51573145 4.80364229 -3.0078125 5.12109375 C-10.15282725 5.94032121 -14.94727916 9.31564769 -19.76953125 14.53515625 Z " fill="#2E581E" transform="translate(306.3125,80.5)"/>
<path d="M0 0 C5.32182227 2.70256018 9.11814922 6.23683198 11 12 C11.56207435 17.24602726 10.88437792 20.5772872 8 25 C3.86688863 29.08902484 0.63544409 31.17245565 -5.1875 31.4375 C-10.40522252 31.40326298 -12.95146968 30.29393156 -16.66015625 26.703125 C-20.72744215 21.5330473 -20.73122478 16.37739077 -20 10 C-17.97924679 5.55434293 -15.38954333 2.92453467 -10.984375 0.703125 C-7.22017369 -0.63064712 -3.90152643 -0.88336447 0 0 Z " fill="#182513" transform="translate(312,98)"/>
<path d="M0 0 C2.97 0.495 2.97 0.495 6 1 C6 2.32 6 3.64 6 5 C16.13489035 10.05517533 25.91125632 14.41388799 37 17 C38.14339844 17.27457031 39.28679687 17.54914063 40.46484375 17.83203125 C71.21176526 24.60904001 105.83780051 26.12087819 133.4921875 9.07421875 C136.54590026 7.76616422 137.88094361 7.96706574 141 9 C142.23074201 9.64652903 143.44055562 10.33461457 144.625 11.0625 C149.61765472 13.71185892 154.48239012 13.36513595 160 13 C158.19587357 16.26460973 157.16605307 17.88929795 154 20 C148.37555962 19.809341 144.70583854 18.63378047 139.95703125 15.64453125 C137.06422134 14.69180942 135.69475952 15.68044224 133 17 C131.52466797 17.69416016 131.52466797 17.69416016 130.01953125 18.40234375 C128.96121094 18.90894531 127.90289062 19.41554687 126.8125 19.9375 C101.58460153 31.62500099 68.57616765 29.05451067 42 23 C40.7939209 22.72712158 40.7939209 22.72712158 39.56347656 22.44873047 C26.09593822 19.25724902 9.56087659 13.49040625 0 3 C0 2.01 0 1.02 0 0 Z " fill="#578C38" transform="translate(283,158)"/>
<path d="M0 0 C6.44865195 1.39720792 10.21348309 5.45970847 13.75 10.875 C15.7759038 16.47526909 14.9690677 22.96258105 14.75 28.8125 C15.33523438 28.88726562 15.92046875 28.96203125 16.5234375 29.0390625 C22.94006248 30.02178885 28.97779323 31.71422862 35.125 33.75 C35.89763184 34.00281738 36.67026367 34.25563477 37.46630859 34.51611328 C41.50944421 35.88727892 45.2835954 37.249502 48.75 39.8125 C49.08 40.8025 49.41 41.7925 49.75 42.8125 C46.75 44.8125 46.75 44.8125 44.93505859 44.50805664 C44.26297363 44.24887451 43.59088867 43.98969238 42.8984375 43.72265625 C42.13781006 43.43640381 41.37718262 43.15015137 40.59350586 42.85522461 C39.77889893 42.53175049 38.96429199 42.20827637 38.125 41.875 C37.28267822 41.55088135 36.44035645 41.2267627 35.57250977 40.89282227 C32.95906153 39.88057291 30.35447673 38.84758092 27.75 37.8125 C26.18884656 37.20561474 24.62765067 36.59883867 23.06640625 35.9921875 C15.19583391 32.88649752 7.81036904 29.54832494 0.75 24.8125 C2.07 24.4825 3.39 24.1525 4.75 23.8125 C5.04562367 18.49079506 5.04562367 18.49079506 2.75 13.8125 C2.358125 14.328125 1.96625 14.84375 1.5625 15.375 C0.964375 15.849375 0.36625 16.32375 -0.25 16.8125 C-2.9375 16.5 -2.9375 16.5 -5.25 15.8125 C-5.58 14.8225 -5.91 13.8325 -6.25 12.8125 C-6.91 12.8125 -7.57 12.8125 -8.25 12.8125 C-7.67903531 6.81737075 -6.33487888 1.58371972 0 0 Z " fill="#2A5418" transform="translate(384.25,88.1875)"/>
<path d="M0 0 C-2.2545719 3.60707319 -4.39287387 6.44015462 -8.50341797 7.87207031 C-11.47743031 8.4135528 -14.43252104 8.7968016 -17.4375 9.125 C-19.60278128 9.42626218 -21.76687962 9.73615334 -23.9296875 10.0546875 C-25.49734863 10.28430176 -25.49734863 10.28430176 -27.09667969 10.51855469 C-49.04957936 14.15891107 -68.04131454 27.27349631 -81 45 C-79.47743237 34.57041172 -71.96413148 25.47765474 -64 19 C-45.25894331 5.7200728 -22.85248314 -0.35707005 0 0 Z " fill="#85C058" transform="translate(275,66)"/>
<path d="M0 0 C1.010625 0.804375 2.02125 1.60875 3.0625 2.4375 C16.0157233 12.07288014 29.86524125 18.44673282 45.01953125 23.77734375 C46.28071777 24.2256958 46.28071777 24.2256958 47.56738281 24.68310547 C49.17507326 25.24972983 50.78748875 25.80320594 52.40527344 26.34033203 C59.7787645 28.91897821 66.22552191 32.87151672 70.4375 39.625 C70.91058594 40.35976562 71.38367188 41.09453125 71.87109375 41.8515625 C73.88803892 45.69003947 74.11911128 48.94754279 74.0625 53.25 C74.05347656 54.14203125 74.04445313 55.0340625 74.03515625 55.953125 C74.02355469 56.62859375 74.01195312 57.3040625 74 58 C72.26026388 54.75153006 71.4144683 51.62860857 70.57421875 48.0390625 C69.76179217 45.15411912 68.43961632 42.61748422 67 40 C63.39007621 40.65585189 63.39007621 40.65585189 60 42 C61.875 38.125 61.875 38.125 63 37 C56.09763791 33.49224222 49.11295659 31.02174197 41.75 28.6875 C25.52562194 23.44873674 10.54541304 15.87554348 0 2 C0 1.34 0 0.68 0 0 Z " fill="#84BE58" transform="translate(372,103)"/>
<path d="M0 0 C4.34255393 2.19389444 7.27243539 4.93138948 10 8.9375 C11.61718947 13.89014276 11.61077768 17.45851348 9.6875 22.3125 C8 25 8 25 5 27 C2.3125 26.125 2.3125 26.125 0 25 C0 23.68 0 22.36 0 21 C0.99 20.67 1.98 20.34 3 20 C3.36195182 14.60987754 3.36195182 14.60987754 1.875 9.5625 C-0.63819253 7.46817289 -2.79122472 7.28522447 -6 7 C-6.144375 7.969375 -6.28875 8.93875 -6.4375 9.9375 C-7 13 -7 13 -8 14 C-10.33297433 14.04092937 -12.66705225 14.04241723 -15 14 C-15.28875 13.195625 -15.5775 12.39125 -15.875 11.5625 C-16.73262568 8.8673532 -16.73262568 8.8673532 -19 8 C-14.24536629 1.23379049 -8.18904566 -1.70144023 0 0 Z " fill="#3C5F2D" transform="translate(312,98)"/>
<path d="M0 0 C3.93869699 3.04998417 7.5029183 6.45473016 11 10 C10.67 10.66 10.34 11.32 10 12 C9.47792969 11.61328125 8.95585937 11.2265625 8.41796875 10.828125 C-3.71048387 2.24687306 -15.3436604 0.35758826 -29.85546875 2.40234375 C-39.14468975 4.72086057 -47.72793057 10.99146944 -55 17 C-52.5166653 8.17036552 -44.63504729 2.30729382 -37 -2 C-25.91356305 -7.93916265 -10.47280802 -6.63666803 0 0 Z " fill="#85C058" transform="translate(321,68)"/>
<path d="M0 0 C3.98727376 2.22454751 3.98727376 2.22454751 5.1875 4.625 C0.1875 2.625 0.1875 2.625 -2 1.5 C-8.30404904 -0.4612597 -14.04068973 -0.07255302 -20.0625 2.625 C-25.33916781 5.54170929 -29.50602611 9.69746359 -31.44140625 15.515625 C-32.82305436 23.36920372 -32.49234485 29.88038114 -28.19921875 36.6875 C-26.76611592 38.68980705 -25.30383633 40.6657077 -23.8125 42.625 C-25.42129422 42.22657441 -27.02448173 41.80546843 -28.625 41.375 C-29.51832031 41.14296875 -30.41164063 40.9109375 -31.33203125 40.671875 C-35.07841529 39.09072394 -36.22711234 36.81745635 -37.97265625 33.26171875 C-40.14208068 26.45073507 -39.79969934 18.8275199 -36.875 12.3125 C-29.14809035 -1.1820744 -14.44840356 -7.05764958 0 0 Z " fill="#D4E5DB" transform="translate(319.8125,88.375)"/>
<path d="M0 0 C4.75019577 1.86614834 7.04086104 4.90434707 9.140625 9.4921875 C12.88746883 19.01761442 12.90665365 26.45533483 9 36 C5.07995166 43.80240391 -0.63742568 49.21247523 -9 52 C-9.99 51.01 -10.98 50.02 -12 49 C-11.14728516 48.70609375 -11.14728516 48.70609375 -10.27734375 48.40625 C-2.64391102 45.44972847 2.55604638 40.79929179 5.9375 33.25 C8.40148545 25.41144628 7.93534253 17.28607724 4.22265625 9.98046875 C2.40276881 7.03259995 0.34943459 4.54522081 -2 2 C-1.34 1.34 -0.68 0.68 0 0 Z " fill="#335D23" transform="translate(326,89)"/>
<path d="M0 0 C5.41056391 0.97567546 8.24218938 3.61863249 11.8125 7.6875 C15.59634478 13.71800262 15.11779995 19.80128999 14.8125 26.6875 C9.9375 25.8125 9.9375 25.8125 8.8125 24.6875 C8.52765469 22.20527659 8.36443447 19.72281145 8.19140625 17.23046875 C7.79948581 14.60015734 7.24134797 12.92037768 5.8125 10.6875 C2.32445905 8.36213937 0.91109246 8.35292102 -3.1875 8.6875 C-5.48980766 9.58581016 -5.48980766 9.58581016 -7.1875 10.6875 C-6.54164405 5.00396763 -6.03392821 1.3014355 0 0 Z " fill="#F4F7F2" transform="translate(384.1875,88.3125)"/>
<path d="M0 0 C0.66 0 1.32 0 2 0 C2.309375 0.9590625 2.309375 0.9590625 2.625 1.9375 C3.89538209 4.34925077 3.89538209 4.34925077 7.125 4.75 C8.07375 4.8325 9.0225 4.915 10 5 C10 5.33 10 5.66 10 6 C8.35 6 6.7 6 5 6 C6.92391649 11.31411494 6.92391649 11.31411494 11 15 C13.32387947 15.39387788 15.65793749 15.73486085 18 16 C18.33 15.34 18.66 14.68 19 14 C19.33 14.66 19.66 15.32 20 16 C22.02463255 16.65213292 22.02463255 16.65213292 24 17 C23 20 23 20 21.26953125 21.15625 C16.90957789 22.77716209 12.55759389 22.74672442 8 22 C3.75714372 19.68297919 0.74288879 16.52986663 -1 12 C-1.23046875 9.23828125 -1.23046875 9.23828125 -1.1875 6.3125 C-1.18105469 5.33925781 -1.17460937 4.36601563 -1.16796875 3.36328125 C-1 1 -1 1 0 0 Z " fill="#375B27" transform="translate(293,107)"/>
<path d="M0 0 C7.86330521 0.12097393 7.86330521 0.12097393 11.0625 2.0625 C13.44347397 4.57952963 14.05969425 5.94949642 14.25 9.375 C9.56209221 12.50027186 4.73715975 11.9484967 -0.75 11.375 C-3.81535748 10.41545494 -5.19859436 9.47282241 -7.75 7.375 C-8.8125 4.75 -8.8125 4.75 -8.75 2.375 C-5.91974094 -0.45525906 -3.94694328 0.04163442 0 0 Z " fill="#86C458" transform="translate(276.75,133.625)"/>
<path d="M0 0 C3.97729301 2.38114253 6.65976285 5.71764418 9.375 9.421875 C7.63671875 10.10546875 7.63671875 10.10546875 5.375 10.421875 C3.39453125 9.20703125 3.39453125 9.20703125 1.1875 7.484375 C-7.53162915 1.87922055 -18.8303693 3.86859805 -28.625 5.421875 C-28.955 4.431875 -29.285 3.441875 -29.625 2.421875 C-18.80334215 -2.26137724 -11.12173909 -4.79624998 0 0 Z " fill="#83BD57" transform="translate(379.625,73.578125)"/>
<path d="M0 0 C-1.1446875 0.804375 -1.1446875 0.804375 -2.3125 1.625 C-6.15610753 5.02167642 -7.7730601 7.70883963 -8.28515625 12.87890625 C-8.50956555 20.83080112 -6.85139631 24.76249045 -2 31 C-5.1793909 30.92430022 -7.30889688 30.63231963 -9.69921875 28.4453125 C-14.00232508 23.42328525 -15.41517673 20.34101767 -15.34765625 13.67578125 C-14.63605912 8.19888198 -11.73117868 4.38494294 -7.5 1 C-4.80119436 -0.07952225 -2.87972789 -0.24683382 0 0 Z " fill="#84BE58" transform="translate(80,132)"/>
<path d="M0 0 C0.66 0.33 1.32 0.66 2 1 C1.360625 1.495 0.72125 1.99 0.0625 2.5 C-2.82912094 6.00499508 -2.64268791 8.49786765 -3 13 C-3.33 13.99 -3.66 14.98 -4 16 C-3.34 16 -2.68 16 -2 16 C-1.34 16.99 -0.68 17.98 0 19 C3.93075644 18.42547254 3.93075644 18.42547254 7 16 C9.60334924 18.71182212 9.99456691 19.89133813 10.1875 23.75 C10.0946875 25.35875 10.0946875 25.35875 10 27 C8 28 8 28 5.4375 27.5 C-0.79414414 24.7807371 -6.11508876 20.59920541 -10 15 C-9.67 14.34 -9.34 13.68 -9 13 C-7.515 13.99 -7.515 13.99 -6 15 C-6.0825 13.96875 -6.165 12.9375 -6.25 11.875 C-5.90708312 6.55978837 -3.69354478 3.69354478 0 0 Z " fill="#2B5319" transform="translate(380,85)"/>
<path d="M0 0 C3.45188005 2.91492093 5.76326125 5.05348143 6.31640625 9.6015625 C6.39761719 10.59929687 6.47882813 11.59703125 6.5625 12.625 C6.68818359 14.12933594 6.68818359 14.12933594 6.81640625 15.6640625 C6.87699219 16.43492188 6.93757813 17.20578125 7 18 C6.34 18 5.68 18 5 18 C5 17.34 5 16.68 5 16 C4.34 16 3.68 16 3 16 C2.34 13.03 1.68 10.06 1 7 C0.34 7 -0.32 7 -1 7 C-1.66 7.66 -2.32 8.32 -3 9 C-5.625 8.625 -5.625 8.625 -8 8 C-8.33 7.01 -8.66 6.02 -9 5 C-9.66 5 -10.32 5 -11 5 C-10 2 -10 2 -8.3125 0.8125 C-5.25643926 -0.26125107 -3.22269723 -0.46038532 0 0 Z " fill="#3C5D2E" transform="translate(387,96)"/>
<path d="M0 0 C1 3 1 3 0.28515625 4.796875 C-3.63721593 11.06264525 -8.25354429 16.20482331 -15 19.4375 C-24.06334343 21.13687689 -24.06334343 21.13687689 -28.2890625 18.65625 C-30.26835183 17.17353149 -32.15643233 15.64744345 -34 14 C-33.34 13.67 -32.68 13.34 -32 13 C-31.175 13.309375 -30.35 13.61875 -29.5 13.9375 C-23.01475559 15.90623491 -17.29306909 16.03971998 -11.1875 12.875 C-6.03065719 9.65880651 -2.3961774 5.66369204 0 0 Z " fill="#D6E6DC" transform="translate(332,119)"/>
<path d="M0 0 C4.00429845 0.26695323 5.65934743 0.76030765 8.75 3.25 C11.28806697 6.66326248 11.75 7.88912344 11.75 12.25 C10.93595703 11.80333984 10.93595703 11.80333984 10.10546875 11.34765625 C7.46295362 10.11623544 4.88592961 9.4074934 2.0625 8.6875 C-3.14323843 7.35676157 -3.14323843 7.35676157 -4.25 6.25 C-4.375 3.75 -4.375 3.75 -4.25 1.25 C-3.25 0.25 -3.25 0.25 0 0 Z " fill="#2C5818" transform="translate(396.25,144.75)"/>
<path d="M0 0 C1.8871875 0.0309375 1.8871875 0.0309375 3.8125 0.0625 C3.255625 0.330625 2.69875 0.59875 2.125 0.875 C0.9803125 1.4628125 0.9803125 1.4628125 -0.1875 2.0625 C-1.033125 2.475 -1.87875 2.8875 -2.75 3.3125 C-6.03296758 5.66950237 -6.89973804 7.19921413 -8.1875 11.0625 C-8.4233029 15.07627543 -8.36292436 19.04723132 -8.1875 23.0625 C-11.1875 22.0625 -11.1875 22.0625 -12.34375 20.30078125 C-13.87717029 16.23295798 -13.95213505 12.3235432 -13.1875 8.0625 C-10.00214183 2.47556264 -6.50701662 -0.1066724 0 0 Z " fill="#86C15B" transform="translate(86.1875,104.9375)"/>
<path d="M0 0 C1.93681161 -0.08107583 3.8745934 -0.13922475 5.8125 -0.1875 C6.89144531 -0.22230469 7.97039062 -0.25710937 9.08203125 -0.29296875 C12 0 12 0 13.88671875 1.51171875 C14.25410156 2.00285156 14.62148437 2.49398437 15 3 C11.11506838 5.58995441 7.89432764 5.25225542 3.39453125 5.1953125 C2.55532639 5.1924826 1.71612152 5.18965271 0.85148621 5.18673706 C-1.82832103 5.17554385 -4.50779381 5.15044101 -7.1875 5.125 C-9.00455246 5.11496908 -10.82161017 5.10584343 -12.63867188 5.09765625 C-17.09257675 5.07560734 -21.54623167 5.04108351 -26 5 C-26 4.67 -26 4.34 -26 4 C-24.92878906 3.93941406 -23.85757813 3.87882812 -22.75390625 3.81640625 C-21.35675609 3.73201463 -19.95962143 3.64736594 -18.5625 3.5625 C-17.50192383 3.50352539 -17.50192383 3.50352539 -16.41992188 3.44335938 C-12.91309581 3.52375562 -12.91309581 3.52375562 -10 2 C-8.31816052 1.76712992 -6.6287584 1.58735834 -4.9375 1.4375 C-3.55884766 1.31181641 -3.55884766 1.31181641 -2.15234375 1.18359375 C-1.44207031 1.12300781 -0.73179687 1.06242187 0 1 C0 0.67 0 0.34 0 0 Z " fill="#305C1C" transform="translate(168,84)"/>
<path d="M0 0 C0 0.99 0 1.98 0 3 C-19.8 2.505 -19.8 2.505 -40 2 C-40 1.67 -40 1.34 -40 1 C-38.31583984 0.92652344 -38.31583984 0.92652344 -36.59765625 0.8515625 C-29.60507431 0.51326217 -22.92362927 0.18401893 -16.125 -1.58203125 C-10.56812674 -2.67501919 -4.77428477 -3.18285651 0 0 Z " fill="#295118" transform="translate(210,205)"/>
<path d="M0 0 C2.4375 0.8125 2.4375 0.8125 4.4375 3.8125 C3.89695946 8.35304054 3.89695946 8.35304054 2.4375 9.8125 C-1.0625 9.9375 -1.0625 9.9375 -4.5625 9.8125 C-5.5625 8.8125 -5.5625 8.8125 -5.8125 5.375 C-5.73 4.199375 -5.6475 3.02375 -5.5625 1.8125 C-2.5625 -0.1875 -2.5625 -0.1875 0 0 Z " fill="#F1F4EF" transform="translate(301.5625,102.1875)"/>
<path d="M0 0 C0.99 0.33 1.98 0.66 3 1 C2.3503125 1.70576172 2.3503125 1.70576172 1.6875 2.42578125 C1.130625 3.04839844 0.57375 3.67101562 0 4.3125 C-0.556875 4.92738281 -1.11375 5.54226562 -1.6875 6.17578125 C-3.29201498 8.03131335 -3.29201498 8.03131335 -3 11 C-3 12.32 -3 13.64 -3 15 C-3.66 15 -4.32 15 -5 15 C-4.7269675 21.14323132 -3.90985174 25.02382506 0 30 C0.66 30.99 1.32 31.98 2 33 C-0.33988484 32.61501895 -1.71390856 32.26124666 -3.484375 30.64453125 C-7.92435554 24.21752238 -8.13130192 17.60093476 -7 10 C-5.34928422 5.94603625 -3.06933991 3.06933991 0 0 Z " fill="#224614" transform="translate(68,131)"/>
<path d="M0 0 C17.36528433 1.18897442 17.36528433 1.18897442 25 3 C25.33 3.66 25.66 4.32 26 5 C24.865625 4.979375 23.73125 4.95875 22.5625 4.9375 C19.18424326 4.58422523 19.18424326 4.58422523 18 6 C16.00390625 6.16796875 16.00390625 6.16796875 13.5625 6.1875 C12.35787109 6.20876953 12.35787109 6.20876953 11.12890625 6.23046875 C9 6 9 6 7 4 C4.68143083 2.45428722 2.49361571 1.20381448 0 0 Z " fill="#254C16" transform="translate(107,79)"/>
<path d="M0 0 C0.556875 0.268125 1.11375 0.53625 1.6875 0.8125 C2 3.125 2 3.125 1.6875 5.8125 C-0.6957946 7.63133009 -2.27068337 8.8125 -5.3125 8.8125 C-5.6425 9.8025 -5.9725 10.7925 -6.3125 11.8125 C-6.6425 11.8125 -6.9725 11.8125 -7.3125 11.8125 C-7.74747796 7.37572479 -7.78752251 5.44586334 -5.0625 1.8125 C-2.3125 -0.1875 -2.3125 -0.1875 0 0 Z " fill="#2B5716" transform="translate(438.3125,142.1875)"/>
<path d="M0 0 C0.66 0.99 1.32 1.98 2 3 C1.55269531 3.59425781 1.10539063 4.18851562 0.64453125 4.80078125 C-3.80587479 10.90229742 -7.12211141 17.02410416 -10 24 C-11.8573853 19.15464704 -9.50634582 15.55387132 -7.546875 11.0625 C-5.48170273 6.97387611 -2.97173238 3.47212718 0 0 Z " fill="#2B5C14" transform="translate(203,89)"/>
<path d="M0 0 C3.93846154 3.32307692 3.93846154 3.32307692 4.25 6.75 C4.1675 7.4925 4.085 8.235 4 9 C3.01 9.495 3.01 9.495 2 10 C0.0546875 9.00390625 0.0546875 9.00390625 -2.125 7.5625 C-2.84945313 7.08941406 -3.57390625 6.61632812 -4.3203125 6.12890625 C-4.87460937 5.75636719 -5.42890625 5.38382812 -6 5 C-5.38125 4.731875 -4.7625 4.46375 -4.125 4.1875 C-1.7004767 3.04443152 -1.7004767 3.04443152 0 0 Z " fill="#1A2914" transform="translate(386,101)"/>
<path d="M0 0 C3.42580031 1.71290015 3.78005573 5.50652322 5 9 C1.37 9.33 -2.26 9.66 -6 10 C-6 9.01 -6 8.02 -6 7 C-4.68 7 -3.36 7 -2 7 C-1.34 4.69 -0.68 2.38 0 0 Z " fill="#2D5B17" transform="translate(86,96)"/>
<path d="M0 0 C1.65 0.33 3.3 0.66 5 1 C5 2.65 5 4.3 5 6 C3.35 6.33 1.7 6.66 0 7 C-1.125 2.25 -1.125 2.25 0 0 Z " fill="#E3E8E0" transform="translate(380,98)"/>
<path d="M0 0 C0.33 0.66 0.66 1.32 1 2 C-7.58 2 -16.16 2 -25 2 C-25 1.67 -25 1.34 -25 1 C-23.80761719 0.93941406 -22.61523438 0.87882813 -21.38671875 0.81640625 C-19.82030075 0.73198851 -18.25389512 0.64734113 -16.6875 0.5625 C-15.90181641 0.52318359 -15.11613281 0.48386719 -14.30664062 0.44335938 C-13.54931641 0.40146484 -12.79199219 0.35957031 -12.01171875 0.31640625 C-11.31522217 0.27974854 -10.61872559 0.24309082 -9.90112305 0.20532227 C-2.17373634 -0.62923947 -2.17373634 -0.62923947 0 0 Z " fill="#1A400E" transform="translate(195,205)"/>
<path d="M0 0 C1.67542976 0.28604898 3.34385343 0.61781233 5 1 C4.67 2.32 4.34 3.64 4 5 C2.56344146 5.08131463 1.1255517 5.13933559 -0.3125 5.1875 C-1.51326172 5.23970703 -1.51326172 5.23970703 -2.73828125 5.29296875 C-5.47851584 4.93801608 -6.29171079 4.10633718 -8 2 C-6.865625 1.855625 -5.73125 1.71125 -4.5625 1.5625 C-1.19222799 1.38828522 -1.19222799 1.38828522 0 0 Z " fill="#224713" transform="translate(269,61)"/>
<path d="M0 0 C0.66 0 1.32 0 2 0 C2.70045456 1.91197039 3.384919 3.82980435 4.0625 5.75 C4.44535156 6.81734375 4.82820313 7.8846875 5.22265625 8.984375 C5.98010011 11.92280042 6.07151741 13.22348948 5 16 C5 15.34 5 14.68 5 14 C4.01 14 3.02 14 2 14 C1.67 12.68 1.34 11.36 1 10 C1.66 10 2.32 10 3 10 C2.01 6.7 1.02 3.4 0 0 Z " fill="#244817" transform="translate(396,88)"/>
<path d="M0 0 C1.093125 0.0825 2.18625 0.165 3.3125 0.25 C2.714375 0.476875 2.11625 0.70375 1.5 0.9375 C-1.2653987 2.59673922 -2.07315509 4.49216078 -3.6875 7.25 C-5.875 9.0625 -5.875 9.0625 -7.6875 10.25 C-7.01276305 4.3123148 -6.55953208 0.44471404 0 0 Z " fill="#CDE1CE" transform="translate(384.6875,88.75)"/>
<path d="M0 0 C0.99 0.33 1.98 0.66 3 1 C3.33 4.63 3.66 8.26 4 12 C3.34 12 2.68 12 2 12 C2 11.34 2 10.68 2 10 C1.34 10 0.68 10 0 10 C-1.125 2.25 -1.125 2.25 0 0 Z " fill="#3C5F2E" transform="translate(390,102)"/>
<path d="M0 0 C4.95 0 9.9 0 15 0 C15 0.33 15 0.66 15 1 C11.7 1.66 8.4 2.32 5 3 C4.67 3.99 4.34 4.98 4 6 C3.01 5.67 2.02 5.34 1 5 C0.67 3.35 0.34 1.7 0 0 Z " fill="#204613" transform="translate(291,57)"/>
<path d="M0 0 C0.99 0.66 1.98 1.32 3 2 C0.69 2.33 -1.62 2.66 -4 3 C-3.34 4.65 -2.68 6.3 -2 8 C-3.9375 7.3125 -3.9375 7.3125 -6 6 C-6.75 3.375 -6.75 3.375 -7 1 C-5.5459375 1.0309375 -5.5459375 1.0309375 -4.0625 1.0625 C-1.12534105 1.35618499 -1.12534105 1.35618499 0 0 Z " fill="#2A5616" transform="translate(314,139)"/>
<path d="M0 0 C2.64 0.66 5.28 1.32 8 2 C8.33 3.32 8.66 4.64 9 6 C11.31 6 13.62 6 16 6 C16 6.33 16 6.66 16 7 C10.63245971 7.5750936 7.88741281 7.34522494 3.5 4.0625 C1.46875 2.41015625 1.46875 2.41015625 0 1 C0 0.67 0 0.34 0 0 Z " fill="#D0E4D4" transform="translate(298,132)"/>
<path d="M0 0 C0 0.99 0 1.98 0 3 C-5.28 2.34 -10.56 1.68 -16 1 C-16 0.67 -16 0.34 -16 0 C-10.39436958 -0.82622671 -5.57710648 -1.06795656 0 0 Z " fill="#346320" transform="translate(114,81)"/>
<path d="M0 0 C0.99 0 1.98 0 3 0 C3.33 2.31 3.66 4.62 4 7 C3.34 7 2.68 7 2 7 C1.67 7.99 1.34 8.98 1 10 C0 9 0 9 -0.09765625 6.93359375 C-0.08605469 6.10988281 -0.07445313 5.28617188 -0.0625 4.4375 C-0.05347656 3.61121094 -0.04445313 2.78492188 -0.03515625 1.93359375 C-0.02355469 1.29550781 -0.01195313 0.65742188 0 0 Z " fill="#214513" transform="translate(84,197)"/>
<path d="M0 0 C1.010625 0.0825 2.02125 0.165 3.0625 0.25 C3.7225 1.24 4.3825 2.23 5.0625 3.25 C4.12277344 3.34087891 4.12277344 3.34087891 3.1640625 3.43359375 C2.34679687 3.51738281 1.52953125 3.60117188 0.6875 3.6875 C-0.12460937 3.76871094 -0.93671875 3.84992188 -1.7734375 3.93359375 C-3.98022805 4.14090114 -3.98022805 4.14090114 -5.9375 5.25 C-3.54308339 0.30153901 -3.54308339 0.30153901 0 0 Z " fill="#81BA57" transform="translate(396.9375,141.75)"/>
<path d="M0 0 C4.62 0 9.24 0 14 0 C14 0.33 14 0.66 14 1 C5.57142857 3.28571429 5.57142857 3.28571429 1 3 C0.67 2.01 0.34 1.02 0 0 Z " fill="#224814" transform="translate(327,220)"/>
<path d="M0 0 C0 0.99 0 1.98 0 3 C-3.35725691 6.25851406 -6.5221629 7.75037104 -11 9 C-10.67 7.68 -10.34 6.36 -10 5 C-8.906875 4.731875 -7.81375 4.46375 -6.6875 4.1875 C-3.38307337 3.12336261 -2.05039578 2.65345336 0 0 Z " fill="#234515" transform="translate(444,176)"/>
<path d="M0 0 C2.475 0.495 2.475 0.495 5 1 C4.01 4.3 3.02 7.6 2 11 C1.67 11 1.34 11 1 11 C0.67 7.37 0.34 3.74 0 0 Z " fill="#3B5D2E" transform="translate(398,102)"/>
<path d="M0 0 C-3.32307692 3.93846154 -3.32307692 3.93846154 -6.75 4.25 C-7.4925 4.1675 -8.235 4.085 -9 4 C-9 3.67 -9 3.34 -9 3 C-10.65 2.67 -12.3 2.34 -14 2 C-14 1.67 -14 1.34 -14 1 C-9.23692563 0.04738513 -4.8333472 -0.08333357 0 0 Z " fill="#1E4312" transform="translate(188,84)"/>
<path d="M0 0 C1.17539996 0.92652701 2.34010577 1.86663387 3.5 2.8125 C4.1496875 3.33457031 4.799375 3.85664062 5.46875 4.39453125 C7 6 7 6 7 9 C4.36 7.35 1.72 5.7 -1 4 C-0.67 2.68 -0.34 1.36 0 0 Z " fill="#7FB556" transform="translate(324,71)"/>
<path d="M0 0 C2.97 0.495 2.97 0.495 6 1 C6 2.65 6 4.3 6 6 C3.5625 5.25 3.5625 5.25 1 4 C0.1875 1.875 0.1875 1.875 0 0 Z " fill="#62953E" transform="translate(283,158)"/>
<path d="M0 0 C0.99 0.33 1.98 0.66 3 1 C1.35 4.63 -0.3 8.26 -2 12 C-3.01527342 7.93890631 -3.05430484 7.33033162 -1.5625 3.75 C-1.27503906 3.04359375 -0.98757812 2.3371875 -0.69140625 1.609375 C-0.46324219 1.07828125 -0.23507813 0.5471875 0 0 Z " fill="#366A1C" transform="translate(195,101)"/>
<path d="M0 0 C1.5 1.1875 1.5 1.1875 3 3 C3.1875 5.6875 3.1875 5.6875 3 8 C2.01 7.67 1.02 7.34 0 7 C-1.1875 4.4375 -1.1875 4.4375 -2 2 C-1.34 2 -0.68 2 0 2 C0 1.34 0 0.68 0 0 Z " fill="#2B551A" transform="translate(332,95)"/>
<path d="M0 0 C0.66 0.66 1.32 1.32 2 2 C1.01 4.31 0.02 6.62 -1 9 C-2.65 9 -4.3 9 -6 9 C-4.02 6.03 -2.04 3.06 0 0 Z " fill="#3F6634" transform="translate(331,124)"/>
<path d="M0 0 C-2.64738916 1.4606285 -3.89448334 2 -7 2 C-7.33 3.65 -7.66 5.3 -8 7 C-8.33 6.34 -8.66 5.68 -9 5 C-9.66 5 -10.32 5 -11 5 C-10 2 -10 2 -8.3125 0.8125 C-5.45030907 -0.19313465 -3.01172092 -0.13689641 0 0 Z " fill="#4D6A40" transform="translate(387,96)"/>
<path d="M0 0 C1.32 0 2.64 0 4 0 C5.5625 2.8125 5.5625 2.8125 7 6 C6.67 6.99 6.34 7.98 6 9 C4.02 6.03 2.04 3.06 0 0 Z " fill="#2B5B12" transform="translate(329,75)"/>
<path d="M0 0 C2.97 0.495 2.97 0.495 6 1 C6.33 1.99 6.66 2.98 7 4 C5.02 4.33 3.04 4.66 1 5 C0.67 3.35 0.34 1.7 0 0 Z " fill="#2A5419" transform="translate(240,66)"/>
<path d="M0 0 C-1 2 -1 2 -2.8125 2.8125 C-5 3 -5 3 -7.25 1.5625 C-7.8275 1.046875 -8.405 0.53125 -9 0 C-5.62182575 -0.84454356 -3.32534757 -1.10844919 0 0 Z " fill="#2E591B" transform="translate(122,210)"/>
<path d="M0 0 C0.598125 0.20625 1.19625 0.4125 1.8125 0.625 C1.235 0.893125 0.6575 1.16125 0.0625 1.4375 C-2.2200868 2.64219859 -4.1612942 4.03298115 -6.1875 5.625 C-5.875 3.75 -5.875 3.75 -5.1875 1.625 C-2.1875 -0.375 -2.1875 -0.375 0 0 Z " fill="#36661D" transform="translate(438.1875,142.375)"/>
<path d="M0 0 C1.32 0 2.64 0 4 0 C3.67 1.65 3.34 3.3 3 5 C2.01 4.67 1.02 4.34 0 4 C0 2.68 0 1.36 0 0 Z " fill="#D6DED1" transform="translate(312,119)"/>
<path d="M0 0 C2.97 0.495 2.97 0.495 6 1 C5.67 1.99 5.34 2.98 5 4 C4.01 4.33 3.02 4.66 2 5 C1.34 4.34 0.68 3.68 0 3 C0 2.01 0 1.02 0 0 Z " fill="#335826" transform="translate(393,114)"/>
<path d="M0 0 C2.31 1.98 4.62 3.96 7 6 C6.67 6.66 6.34 7.32 6 8 C3.69 6.35 1.38 4.7 -1 3 C-0.67 2.01 -0.34 1.02 0 0 Z " fill="#336418" transform="translate(350,78)"/>
<path d="M0 0 C1.32 0 2.64 0 4 0 C3.34 1.32 2.68 2.64 2 4 C0.68 4 -0.64 4 -2 4 C-2 3.34 -2 2.68 -2 2 C-1.34 2 -0.68 2 0 2 C0 1.34 0 0.68 0 0 Z " fill="#254E15" transform="translate(134,83)"/>
</svg>
