<?xml version="1.0" encoding="UTF-8"?>
<svg version="1.1" xmlns="http://www.w3.org/2000/svg" width="512" height="280">
<path d="M0 0 C1.14022972 6.36637695 1.14461304 12.61841133 1.1328125 19.07421875 C1.13424759 20.81455132 1.13424759 20.81455132 1.13571167 22.59004211 C1.13639054 25.04009048 1.13455673 27.49014066 1.13037109 29.94018555 C1.1250431 33.65743133 1.13031353 37.37455495 1.13671875 41.09179688 C1.13605744 43.4817711 1.13477519 45.87174524 1.1328125 48.26171875 C1.13483673 49.35900803 1.13686096 50.4562973 1.13894653 51.58683777 C1.117538 58.76988105 0.70288937 65.85172027 0 73 C-5.88343714 73.65425032 -11.63877312 74.03939897 -17.5625 73.9375 C-50.75226035 73.80285594 -90.54255603 79.25476244 -119 98 C-119.66 98.66 -120.32 99.32 -121 100 C-122.69100204 100.69629496 -124.38213047 101.39228641 -126.07421875 102.0859375 C-128.71631695 103.33999628 -130.9257633 105.00841404 -133.26171875 106.75390625 C-135.41588826 108.29813113 -137.71312369 109.54186146 -140.02734375 110.828125 C-147.53398758 114.900661 -147.53398758 114.900661 -153 121 C-154.65656597 121.92666142 -156.31399946 122.85181063 -157.97607422 123.76855469 C-161.64197473 125.99904952 -164.8052417 128.84607506 -168.0625 131.625 C-174.50801941 137.03351196 -181.08992525 142.08207557 -187.98828125 146.89453125 C-190.44898556 148.61479016 -192.86076182 150.37053443 -195.25 152.1875 C-212.37373943 165.14998662 -231.85602743 176.03189032 -252.21875 183.0390625 C-254.21063074 183.72726849 -256.18867247 184.45605008 -258.15625 185.2109375 C-294.00751008 198.77850152 -337.48521536 202.31022042 -375 195 C-376.80060035 193.19939965 -376.19068453 190.46251028 -376.23706055 188.03076172 C-376.26346115 186.75208221 -376.28986176 185.47340271 -376.31706238 184.15597534 C-376.3407011 182.74721971 -376.36390905 181.3384568 -376.38671875 179.9296875 C-376.41237365 178.49056779 -376.43815765 177.05145038 -376.46406555 175.61233521 C-376.51713413 172.58763349 -376.5660317 169.56289513 -376.61254883 166.53808594 C-376.67266025 162.67445978 -376.74692519 158.81125122 -376.82492352 154.94795036 C-376.88275487 151.97108163 -376.9309446 148.99411203 -376.976511 146.01703262 C-376.9998204 144.59372085 -377.02654479 143.17046056 -377.05682945 141.74728012 C-377.09834115 139.74690569 -377.12499851 137.74624002 -377.15112305 135.74560547 C-377.17990791 134.04136917 -377.17990791 134.04136917 -377.20927429 132.30270386 C-376.97216417 128.56070325 -376.14538871 125.55958519 -375 122 C-374.31719971 122.12987305 -373.63439941 122.25974609 -372.9309082 122.39355469 C-364.3838889 123.92808964 -355.84542842 124.72406797 -347.1875 125.25 C-346.10509537 125.31637665 -346.10509537 125.31637665 -345.00082397 125.38409424 C-332.15947401 126.13816682 -319.75517013 125.8430849 -307 124 C-306.0821875 123.87351074 -305.164375 123.74702148 -304.21875 123.61669922 C-275.80999289 119.55760076 -245.80842881 107.77133163 -223 90 C-222.67 89.34 -222.34 88.68 -222 88 C-220.44140625 86.9296875 -220.44140625 86.9296875 -218.5625 85.875 C-217.94503906 85.52179688 -217.32757813 85.16859375 -216.69140625 84.8046875 C-215 84 -215 84 -213 84 C-213 83.34 -213 82.68 -213 82 C-211.15625 80.51171875 -211.15625 80.51171875 -208.5 78.6875 C-202.61931722 74.52743312 -197.05033017 70.05127409 -191.484375 65.48120117 C-182.37076877 58 -182.37076877 58 -180 58 C-180 57.34 -180 56.68 -180 56 C-178.0234375 54.4140625 -178.0234375 54.4140625 -175.375 52.625 C-174.46492187 52.00753906 -173.55484375 51.39007813 -172.6171875 50.75390625 C-171.75351562 50.17511719 -170.88984375 49.59632812 -170 49 C-169.36320313 48.55527344 -168.72640625 48.11054687 -168.0703125 47.65234375 C-164.24865591 45 -164.24865591 45 -162 45 C-162 44.34 -162 43.68 -162 43 C-160.41015625 41.84375 -160.41015625 41.84375 -158.0625 40.5 C-157.15628906 39.97535156 -156.25007812 39.45070312 -155.31640625 38.91015625 C-154.22199219 38.27980469 -153.12757813 37.64945313 -152 37 C-150.63290361 36.18823387 -149.26709505 35.37429632 -147.90234375 34.55859375 C-135.29264998 27.0340466 -122.84658685 20.91782896 -109 16 C-108.29311035 15.74573242 -107.5862207 15.49146484 -106.85791016 15.22949219 C-76.36107487 4.33232562 -32.47078842 -7.21573076 0 0 Z " fill="#6CA940" transform="translate(444,42)"/>
<path d="M0 0 C1.26521484 -0.00386719 2.53042969 -0.00773437 3.83398438 -0.01171875 C5.64672852 -0.00978516 5.64672852 -0.00978516 7.49609375 -0.0078125 C9.1366272 -0.00612061 9.1366272 -0.00612061 10.81030273 -0.00439453 C13.5625 0.125 13.5625 0.125 16.5625 1.125 C16.8925 6.405 17.2225 11.685 17.5625 17.125 C11.66111593 17.77172702 5.93625012 18.16461439 0 18.0625 C-33.18976035 17.92785594 -72.98005603 23.37976244 -101.4375 42.125 C-102.0975 42.785 -102.7575 43.445 -103.4375 44.125 C-105.12850204 44.82129496 -106.81963047 45.51728641 -108.51171875 46.2109375 C-111.15381695 47.46499628 -113.3632633 49.13341404 -115.69921875 50.87890625 C-117.85338826 52.42313113 -120.15062369 53.66686146 -122.46484375 54.953125 C-129.97148758 59.025661 -129.97148758 59.025661 -135.4375 65.125 C-137.09406597 66.05166142 -138.75149946 66.97681063 -140.41357422 67.89355469 C-144.07947473 70.12404952 -147.2427417 72.97107506 -150.5 75.75 C-156.94551941 81.15851196 -163.52742525 86.20707557 -170.42578125 91.01953125 C-172.88648556 92.73979016 -175.29826182 94.49553443 -177.6875 96.3125 C-194.81123943 109.27498662 -214.29352743 120.15689032 -234.65625 127.1640625 C-236.64813074 127.85226849 -238.62617247 128.58105008 -240.59375 129.3359375 C-276.44501008 142.90350152 -319.92271536 146.43522042 -357.4375 139.125 C-358.4375 138.125 -358.4375 138.125 -358.53515625 134.52734375 C-358.5284822 133.03903133 -358.51652183 131.55073568 -358.5 130.0625 C-358.49548828 129.30388672 -358.49097656 128.54527344 -358.48632812 127.76367188 C-358.4745068 125.88408129 -358.45657078 124.00453101 -358.4375 122.125 C-357.18324219 122.269375 -355.92898438 122.41375 -354.63671875 122.5625 C-273.68466065 131.12261518 -210.36604057 104.14949805 -147.9375 54.55078125 C-110.53988747 24.9565117 -71.84279174 7.274359 -24.4375 1.125 C-23.69314697 1.02783691 -22.94879395 0.93067383 -22.18188477 0.83056641 C-14.79274449 -0.0241504 -7.43092991 -0.02320957 0 0 Z " fill="#578D39" transform="translate(426.4375,97.875)"/>
<path d="M0 0 C1.05606445 -0.01313232 2.11212891 -0.02626465 3.20019531 -0.03979492 C4.2053418 -0.04084229 5.21048828 -0.04188965 6.24609375 -0.04296875 C7.14900146 -0.04707764 8.05190918 -0.05118652 8.98217773 -0.05541992 C11.81960165 0.21170438 13.97903873 1.01288201 16.5625 2.1875 C13.75900641 4.99099359 11.68789246 4.71275802 7.75 5.125 C7.02441895 5.20435791 6.29883789 5.28371582 5.55126953 5.36547852 C0.5417864 5.90565711 -4.4735361 6.38660743 -9.48828125 6.875 C-21.97255297 8.10280141 -34.2085646 9.33130874 -46.4375 12.1875 C-47.8560482 12.48008818 -49.27537191 12.76893313 -50.6953125 13.0546875 C-94.7674235 22.07702401 -132.95017449 45.12195234 -167.4375 73.1875 C-191.48228042 92.75497648 -216.98207855 111.71158721 -246.4375 122.1875 C-247.62214844 122.62578125 -248.80679688 123.0640625 -250.02734375 123.515625 C-265.00086719 128.82107834 -280.86333576 132.29677296 -296.78515625 132.390625 C-297.55951523 132.39632507 -298.33387421 132.40202515 -299.13169861 132.40789795 C-300.76283429 132.41728448 -302.3939884 132.42385644 -304.02514648 132.42773438 C-306.46959256 132.43738001 -308.91317442 132.46843905 -311.35742188 132.5 C-323.07361407 132.57892789 -334.52255947 131.8943525 -345.4375 127.1875 C-345.4375 126.8575 -345.4375 126.5275 -345.4375 126.1875 C-344.83568909 126.19860306 -344.23387817 126.20970612 -343.61383057 126.22114563 C-303.66544593 127.54203797 -303.66544593 127.54203797 -264.4375 121.1875 C-263.55755371 120.94161133 -262.67760742 120.69572266 -261.77099609 120.44238281 C-256.56053876 118.92880778 -251.48832778 117.16485692 -246.4375 115.1875 C-244.85582031 114.58808594 -244.85582031 114.58808594 -243.2421875 113.9765625 C-220.51719674 104.94716617 -199.88485162 91.63200458 -180.9765625 76.234375 C-178.10479962 73.91929231 -175.1819584 71.67529031 -172.25 69.4375 C-168.0625567 66.24082182 -163.93230366 62.98515151 -159.84082031 59.66650391 C-152.60065276 53.802674 -145.23925349 48.29402162 -137.4375 43.1875 C-136.82825684 42.78821289 -136.21901367 42.38892578 -135.59130859 41.97753906 C-101.69787512 19.93260975 -64.53185448 6.3550955 -24.4375 1.1875 C-23.41785156 1.0534375 -22.39820313 0.919375 -21.34765625 0.78125 C-14.25844268 0.03172962 -7.12197328 0.0564148 0 0 Z " fill="#7BBE4C" transform="translate(422.4375,50.8125)"/>
<path d="M0 0 C0 1.65 0 3.3 0 5 C-5.87897356 5.6844543 -11.64267517 6.03933185 -17.5625 5.9375 C-50.75226035 5.80285594 -90.54255603 11.25476244 -119 30 C-119.66 30.66 -120.32 31.32 -121 32 C-122.69100204 32.69629496 -124.38213047 33.39228641 -126.07421875 34.0859375 C-128.71631695 35.33999628 -130.9257633 37.00841404 -133.26171875 38.75390625 C-135.41588826 40.29813113 -137.71312369 41.54186146 -140.02734375 42.828125 C-147.53398758 46.900661 -147.53398758 46.900661 -153 53 C-154.65656597 53.92666142 -156.31399946 54.85181063 -157.97607422 55.76855469 C-161.64197473 57.99904952 -164.8052417 60.84607506 -168.0625 63.625 C-174.50801941 69.03351196 -181.08992525 74.08207557 -187.98828125 78.89453125 C-190.44898556 80.61479016 -192.86076182 82.37053443 -195.25 84.1875 C-212.37373943 97.14998662 -231.85602743 108.03189032 -252.21875 115.0390625 C-254.21063074 115.72726849 -256.18867247 116.45605008 -258.15625 117.2109375 C-295.01790244 131.16087478 -336.42156317 132.64416041 -375 127 C-375.495 124.525 -375.495 124.525 -376 122 C-371.80272634 121.91770052 -368.09607707 122.16606814 -364 123 C-296.83083201 131.2811303 -234.52655351 108.76586271 -182 68 C-178.49588223 65.21823599 -175.02885834 62.39249688 -171.57226562 59.55200195 C-132.58182922 27.51499145 -90.44692316 6.35355103 -40 1 C-38.94296875 0.8865625 -37.8859375 0.773125 -36.796875 0.65625 C-24.56996782 -0.42790926 -12.26222835 -0.08989903 0 0 Z " fill="#2C5819" transform="translate(444,110)"/>
<path d="M0 0 C0 1.32 0 2.64 0 4 C-0.79881592 4.01981934 -1.59763184 4.03963867 -2.4206543 4.06005859 C-64.71311427 5.67758033 -122.98170487 18.74434798 -173 58 C-174.40035122 59.08292467 -175.80145058 60.1648823 -177.203125 61.24609375 C-183.74681405 66.3039532 -190.26563188 71.38715905 -196.68945312 76.59667969 C-215.67242302 91.9653085 -235.70696058 105.86400233 -258 116 C-258.74411133 116.34160156 -259.48822266 116.68320313 -260.25488281 117.03515625 C-294.26895195 132.37899767 -337.60445803 135.92375268 -374 128 C-374.66 127.67 -375.32 127.34 -376 127 C-375.67 125.35 -375.34 123.7 -375 122 C-374.31719971 122.12987305 -373.63439941 122.25974609 -372.9309082 122.39355469 C-364.3838889 123.92808964 -355.84542842 124.72406797 -347.1875 125.25 C-346.10509537 125.31637665 -346.10509537 125.31637665 -345.00082397 125.38409424 C-332.15947401 126.13816682 -319.75517013 125.8430849 -307 124 C-306.0821875 123.87351074 -305.164375 123.74702148 -304.21875 123.61669922 C-275.80999289 119.55760076 -245.80842881 107.77133163 -223 90 C-222.67 89.34 -222.34 88.68 -222 88 C-220.44140625 86.9296875 -220.44140625 86.9296875 -218.5625 85.875 C-217.94503906 85.52179688 -217.32757813 85.16859375 -216.69140625 84.8046875 C-215 84 -215 84 -213 84 C-213 83.34 -213 82.68 -213 82 C-211.15625 80.51171875 -211.15625 80.51171875 -208.5 78.6875 C-202.61931722 74.52743312 -197.05033017 70.05127409 -191.484375 65.48120117 C-182.37076877 58 -182.37076877 58 -180 58 C-180 57.34 -180 56.68 -180 56 C-178.0234375 54.4140625 -178.0234375 54.4140625 -175.375 52.625 C-174.46492187 52.00753906 -173.55484375 51.39007813 -172.6171875 50.75390625 C-171.75351562 50.17511719 -170.88984375 49.59632812 -170 49 C-169.36320313 48.55527344 -168.72640625 48.11054687 -168.0703125 47.65234375 C-164.24865591 45 -164.24865591 45 -162 45 C-162 44.34 -162 43.68 -162 43 C-160.41015625 41.84375 -160.41015625 41.84375 -158.0625 40.5 C-157.15628906 39.97535156 -156.25007812 39.45070312 -155.31640625 38.91015625 C-154.22199219 38.27980469 -153.12757813 37.64945313 -152 37 C-150.63290361 36.18823387 -149.26709505 35.37429632 -147.90234375 34.55859375 C-135.29264998 27.0340466 -122.84658685 20.91782896 -109 16 C-108.29311035 15.74573242 -107.5862207 15.49146484 -106.85791016 15.22949219 C-76.36107487 4.33232562 -32.47078842 -7.21573076 0 0 Z " fill="#2E5919" transform="translate(444,42)"/>
<path d="M0 0 C6.3902148 -0.12529833 6.3902148 -0.12529833 9.28125 0.46875 C12.6232813 1.1217906 15.91541117 1.34026054 19.3125 1.5625 C20.56675781 1.64628906 21.82101563 1.73007813 23.11328125 1.81640625 C24.54220703 1.90728516 24.54220703 1.90728516 26 2 C26 2.33 26 2.66 26 3 C25.05125 3.309375 24.1025 3.61875 23.125 3.9375 C20.13919592 4.87394742 20.13919592 4.87394742 18 6 C15.11087268 5.91061582 12.25606745 5.765952 9.375 5.5625 C8.57320312 5.51029297 7.77140625 5.45808594 6.9453125 5.40429688 C4.96320897 5.27451629 2.98155501 5.13790265 1 5 C0.67 3.35 0.34 1.7 0 0 Z " fill="#2E5B1B" transform="translate(68,232)"/>
<path d="M0 0 C5.43087408 -0.11083416 10.66645094 -0.11115605 16 1 C16.33 1.66 16.66 2.32 17 3 C1.25512528 5.29612756 1.25512528 5.29612756 -6 5 C-6 4.34 -6 3.68 -6 3 C-5.195625 2.87625 -4.39125 2.7525 -3.5625 2.625 C-2.716875 2.41875 -1.87125 2.2125 -1 2 C-0.67 1.34 -0.34 0.68 0 0 Z " fill="#2A5318" transform="translate(399,112)"/>
<path d="M0 0 C0 0.33 0 0.66 0 1 C-0.99902344 1.04898438 -1.99804688 1.09796875 -3.02734375 1.1484375 C-4.31769531 1.22320312 -5.60804688 1.29796875 -6.9375 1.375 C-8.22527344 1.44460937 -9.51304687 1.51421875 -10.83984375 1.5859375 C-11.88269531 1.72257812 -12.92554688 1.85921875 -14 2 C-14.33 2.66 -14.66 3.32 -15 4 C-17.58422459 3.88581333 -20.16679513 3.75907638 -22.75 3.625 C-23.47960937 3.5940625 -24.20921875 3.563125 -24.9609375 3.53125 C-28.73942656 3.3251506 -31.77946668 3.08487157 -35 1 C-23.3222103 -0.09908609 -11.71811669 -0.10902914 0 0 Z " fill="#376822" transform="translate(439,110)"/>
<path d="M0 0 C-5.53846154 3.53846154 -5.53846154 3.53846154 -9 4 C-9.99 3.67 -10.98 3.34 -12 3 C-12 2.34 -12 1.68 -12 1 C-13.98 1 -15.96 1 -18 1 C-18 0.67 -18 0.34 -18 0 C-15.75067773 -0.1954625 -13.50049858 -0.38108226 -11.25 -0.5625 C-9.99703125 -0.66691406 -8.7440625 -0.77132812 -7.453125 -0.87890625 C-4.60547636 -0.97876723 -2.65713933 -0.90584295 0 0 Z " fill="#31621D" transform="translate(140,234)"/>
<path d="M0 0 C-5.40235255 4.20182976 -13.04159718 8 -20 8 C-20 7.34 -20 6.68 -20 6 C-17.04657157 4.80003066 -14.08658106 3.61718896 -11.125 2.4375 C-10.28324219 2.09525391 -9.44148437 1.75300781 -8.57421875 1.40039062 C-7.76855469 1.08134766 -6.96289062 0.76230469 -6.1328125 0.43359375 C-5.38918457 0.13509521 -4.64555664 -0.16340332 -3.87939453 -0.47094727 C-2 -1 -2 -1 0 0 Z " fill="#294F18" transform="translate(194,151)"/>
<path d="M0 0 C0.66 0.33 1.32 0.66 2 1 C0.3259827 3.79002884 -0.82663249 4.91909516 -3.8125 6.3125 C-7.25757585 7.05555558 -9.59623594 6.81042001 -13 6 C-10.14491782 4.559422 -7.27682755 3.15665758 -4.375 1.8125 C-3.59898437 1.44769531 -2.82296875 1.08289063 -2.0234375 0.70703125 C-1.35570312 0.47371094 -0.68796875 0.24039063 0 0 Z " fill="#33621E" transform="translate(354,121)"/>
<path d="M0 0 C-4.49344368 4.64322514 -8.86698764 4.76182476 -15 5 C-15.33 4.34 -15.66 3.68 -16 3 C-13.89936424 2.30178583 -11.79434263 1.61675528 -9.6875 0.9375 C-8.51574219 0.55464844 -7.34398437 0.17179687 -6.13671875 -0.22265625 C-3 -1 -3 -1 0 0 Z " fill="#33631D" transform="translate(378,116)"/>
<path d="M0 0 C0.66 0.66 1.32 1.32 2 2 C-1.3 4.64 -4.6 7.28 -8 10 C-8.33 9.01 -8.66 8.02 -9 7 C-6.19195732 4.03595495 -3.81684226 1.55500981 0 0 Z " fill="#34621A" transform="translate(269,98)"/>
<path d="M0 0 C0.99 0.33 1.98 0.66 3 1 C4.66362417 1.34820041 6.32995171 1.68404492 8 2 C5.22957891 4.77042109 3.23466195 4.39796106 -0.625 4.625 C-1.81351563 4.69976562 -3.00203125 4.77453125 -4.2265625 4.8515625 C-5.14179688 4.90054688 -6.05703125 4.94953125 -7 5 C-4.80363095 2.80363095 -2.76239351 1.41488448 0 0 Z " fill="#285218" transform="translate(140,233)"/>
<path d="M0 0 C6.6 0 13.2 0 20 0 C20 0.33 20 0.66 20 1 C13.4 1.66 6.8 2.32 0 3 C0 2.01 0 1.02 0 0 Z " fill="#35651C" transform="translate(384,47)"/>
<path d="M0 0 C1.0209375 0.2165625 1.0209375 0.2165625 2.0625 0.4375 C5.10071949 1.06294035 5.10071949 1.06294035 8.625 1.375 C12 2 12 2 15 5 C9.72 4.34 4.44 3.68 -1 3 C-0.67 2.01 -0.34 1.02 0 0 Z " fill="#396A1F" transform="translate(71,167)"/>
<path d="M0 0 C0.66 0.33 1.32 0.66 2 1 C-1.07999946 4.67230705 -3.2482602 5.56802365 -8 6 C-8.33 5.34 -8.66 4.68 -9 4 C-7.54618103 3.30300448 -6.08677047 2.61766134 -4.625 1.9375 C-3.40683594 1.36322266 -3.40683594 1.36322266 -2.1640625 0.77734375 C-1.44992187 0.52082031 -0.73578125 0.26429688 0 0 Z " fill="#33611C" transform="translate(335,129)"/>
<path d="M0 0 C-2.22825644 2.22825644 -3.65761628 2.69239369 -6.625 3.625 C-7.44226563 3.88539062 -8.25953125 4.14578125 -9.1015625 4.4140625 C-9.72804688 4.60742188 -10.35453125 4.80078125 -11 5 C-10.25 2.5625 -10.25 2.5625 -9 0 C-5.8730209 -1.50957612 -3.28059227 -0.82014807 0 0 Z " fill="#33631B" transform="translate(342,60)"/>
<path d="M0 0 C1.65 0 3.3 0 5 0 C4.67 0.99 4.34 1.98 4 3 C4.99 2.67 5.98 2.34 7 2 C7 2.66 7 3.32 7 4 C3.37 4 -0.26 4 -4 4 C-2.68 3.67 -1.36 3.34 0 3 C0 2.01 0 1.02 0 0 Z " fill="#295316" transform="translate(124,168)"/>
<path d="M0 0 C1.45823212 -0.0270043 2.91660675 -0.04639787 4.375 -0.0625 C5.18710938 -0.07410156 5.99921875 -0.08570313 6.8359375 -0.09765625 C9 0 9 0 11 1 C11 1.66 11 2.32 11 3 C7.37 2.67 3.74 2.34 0 2 C0 1.34 0 0.68 0 0 Z " fill="#275116" transform="translate(85,167)"/>
<path d="M0 0 C1.22589844 0.15275391 1.22589844 0.15275391 2.4765625 0.30859375 C3.41628906 0.43427734 3.41628906 0.43427734 4.375 0.5625 C0.73883344 2.5414756 -2.50925629 3.0876065 -6.625 3.5625 C-6.625 2.5725 -6.625 1.5825 -6.625 0.5625 C-4.10446405 -0.69776798 -2.7707902 -0.35624445 0 0 Z " fill="#36661D" transform="translate(375.625,49.4375)"/>
<path d="M0 0 C0 1.32 0 2.64 0 4 C-2.64 3.67 -5.28 3.34 -8 3 C-5.53387212 -0.1151089 -3.89156016 -0.31553191 0 0 Z " fill="#285118" transform="translate(159,163)"/>
<path d="M0 0 C-3.65412873 3.349618 -7.21774818 4.15153597 -12 5 C-12.66 4.34 -13.32 3.68 -14 3 C-4.58997722 -0.44419134 -4.58997722 -0.44419134 0 0 Z " fill="#2A5218" transform="translate(369,49)"/>
<path d="M0 0 C2.00720923 0.28674418 4.0085944 0.61866701 6 1 C6 1.33 6 1.66 6 2 C1.71 2.66 -2.58 3.32 -7 4 C-7 3.01 -7 2.02 -7 1 C-5.5459375 1.0309375 -5.5459375 1.0309375 -4.0625 1.0625 C-1.12534105 1.35618499 -1.12534105 1.35618499 0 0 Z " fill="#35651C" transform="translate(152,166)"/>
<path d="M0 0 C-1.32 0.33 -2.64 0.66 -4 1 C-4 1.66 -4 2.32 -4 3 C-7 4 -7 4 -10 3 C-10 2.34 -10 1.68 -10 1 C-3.375 -1.125 -3.375 -1.125 0 0 Z " fill="#32621D" transform="translate(174,227)"/>
<path d="M0 0 C-0.1875 1.875 -0.1875 1.875 -1 4 C-3.5625 5.25 -3.5625 5.25 -6 6 C-6.33 5.34 -6.66 4.68 -7 4 C-2.25 0 -2.25 0 0 0 Z " fill="#30611B" transform="translate(276,168)"/>
<path d="M0 0 C0.763125 0.0825 1.52625 0.165 2.3125 0.25 C0.6625 1.9 -0.9875 3.55 -2.6875 5.25 C-3.6775 4.92 -4.6675 4.59 -5.6875 4.25 C-3.34903846 0.31153846 -3.34903846 0.31153846 0 0 Z " fill="#294F18" transform="translate(312.6875,143.75)"/>
<path d="M0 0 C0.66 0.33 1.32 0.66 2 1 C1.67 1.99 1.34 2.98 1 4 C-0.9375 4.8125 -0.9375 4.8125 -3 5 C-3.66 4.34 -4.32 3.68 -5 3 C-2.625 1.4375 -2.625 1.4375 0 0 Z " fill="#31621B" transform="translate(232,199)"/>
</svg>
