<?xml version="1.0" encoding="UTF-8"?>
<svg version="1.1" xmlns="http://www.w3.org/2000/svg" width="512" height="280">
<path d="M0 0 C1.09183594 0.62519531 2.18367187 1.25039062 3.30859375 1.89453125 C9.85566817 5.71133634 9.85566817 5.71133634 11 8 C12.60166257 8.92010403 14.20622343 9.83549261 15.82421875 10.7265625 C21.27385915 13.91611864 26.58178552 17.47546485 31 22 C35.64240384 25.91040656 40.46482495 29.60184042 45.296875 33.2734375 C46.05081543 33.84658691 46.80475586 34.41973633 47.58154297 35.01025391 C49.08871556 36.15354876 50.59809533 37.29394084 52.10986328 38.43115234 C54.97070391 40.59889258 57.69356368 42.69249035 60.23046875 45.23828125 C62.72202959 47.71884182 65.56426689 49.00164278 68.68359375 50.55859375 C71.55222076 52.34362472 73.6195369 54.60863402 76 57 C102.75246044 76.45999758 138.64969776 88.11800676 171.62890625 88.16796875 C172.81805885 88.17296135 172.81805885 88.17296135 174.03123474 88.17805481 C175.69928413 88.18308112 177.36734343 88.18546448 179.03540039 88.18530273 C181.53224142 88.18747369 184.02862831 88.2056329 186.52539062 88.22460938 C195.68817053 88.25557276 204.5298444 87.77593173 213.59741211 86.4309082 C216.77722595 86.0282124 219.79961194 85.92255398 223 86 C227.88261329 94.27835395 226.11581672 106.64187991 225.9140625 115.94140625 C225.89282318 117.11211166 225.87158386 118.28281708 225.84970093 119.48899841 C225.80384033 121.93681541 225.75495213 124.38457745 225.703125 126.83227539 C225.62454895 130.58403634 225.5577077 134.33588125 225.4921875 138.08789062 C225.44600334 140.47657596 225.39915246 142.86524851 225.3515625 145.25390625 C225.33171295 146.37366348 225.3118634 147.49342072 225.29141235 148.64710999 C225.25665298 150.20539772 225.25665298 150.20539772 225.22119141 151.79516602 C225.20263092 152.70637711 225.18407043 153.6175882 225.16494751 154.55641174 C225.01151229 156.82945305 224.63361 158.81744405 224 161 C195.87311738 168.4628741 164.28776925 166.33816134 136 161 C135.08959961 160.8340332 134.17919922 160.66806641 133.24121094 160.49707031 C111.21510954 156.34073253 88.50957312 148.02372325 69 137 C68.00782471 136.45424316 68.00782471 136.45424316 66.99560547 135.89746094 C55.3497362 129.47009292 44.62314322 121.98522791 34 114 C33.25121582 113.43812988 32.50243164 112.87625977 31.73095703 112.29736328 C23.81294055 106.33787888 16.04127702 100.24958182 8.41796875 93.91796875 C5.43683301 91.55328757 2.30658975 89.51192122 -0.89453125 87.4609375 C-3.06924297 85.95195386 -4.93703589 84.30038045 -6.875 82.5 C-10.68684992 79.05262975 -14.78225498 76.76708857 -19.328125 74.40625 C-22.38399083 72.79789956 -25.27017197 70.99978913 -28.1796875 69.14453125 C-30.44976379 67.71720861 -32.77614843 66.39683642 -35.1171875 65.08984375 C-36.47589017 64.30337478 -37.81224095 63.4778451 -39.1328125 62.62890625 C-72.42013262 41.48102136 -115.00024345 41.15606482 -153 40 C-155.32009995 35.81626086 -155.4544216 31.8873368 -155.625 27.1875 C-155.66222168 26.28604248 -155.69944336 25.38458496 -155.73779297 24.45581055 C-156.35300065 7.429867 -156.45071678 -9.72986826 -155.625 -26.75 C-155.59422363 -27.46373779 -155.56344727 -28.17747559 -155.53173828 -28.9128418 C-155.31915409 -32.42930191 -155.00829121 -33.98756318 -153 -37 C-150.0057612 -37.59823731 -147.21566678 -37.98919686 -144.1875 -38.25 C-143.29675781 -38.33080811 -142.40601563 -38.41161621 -141.48828125 -38.49487305 C-92.79244475 -42.33546729 -41.5341285 -24.13197515 0 0 Z " fill="#6BA840" transform="translate(221,77)"/>
<path d="M0 0 C37.32514118 -0.6136933 37.32514118 -0.6136933 55 3 C56.76387219 3.33053936 58.52821514 3.65857433 60.29296875 3.984375 C68.64859039 5.55642021 76.96358558 7.1700564 85 10 C85.64195312 10.22300781 86.28390625 10.44601563 86.9453125 10.67578125 C93.05173371 12.88843185 99.03599638 15.43251654 105 18 C105.77585449 18.33338379 106.55170898 18.66676758 107.35107422 19.01025391 C109.96813682 20.14172652 112.57836209 21.28788169 115.1875 22.4375 C116.01862305 22.79666504 116.84974609 23.15583008 117.70605469 23.52587891 C122.7987568 25.79143441 127.36632951 28.39844887 131.93676758 31.59155273 C134.07055569 33.04816421 136.25707183 34.34416527 138.5 35.625 C149.29311081 42.03340954 159.55390916 49.57039129 169.21484375 57.57421875 C170.95062321 59.06228899 170.95062321 59.06228899 173 60 C173 60.66 173 61.32 173 62 C173.55526367 62.26103516 174.11052734 62.52207031 174.68261719 62.79101562 C177.28222568 64.14723784 179.64808861 65.70243298 182.078125 67.34375 C183.06554687 68.00793945 184.05296875 68.67212891 185.0703125 69.35644531 C186.11960938 70.06381836 187.16890625 70.77119141 188.25 71.5 C192.49670743 74.33828338 196.74782342 77.16991831 201 80 C201.75990234 80.50724609 202.51980469 81.01449219 203.30273438 81.53710938 C218.19769233 91.41358982 234.3193544 99.59891375 251 106 C252.28138298 106.50877979 253.56264278 107.01786998 254.84375 107.52734375 C283.53813127 118.59430063 313.12052643 123.21971466 343.81347656 123.13037109 C345.9981174 123.12500462 348.18255276 123.13035954 350.3671875 123.13671875 C359.29195351 123.14048257 368.10353679 122.77368212 377 122 C377.12890625 135.921875 377.12890625 135.921875 376 140 C347.87311738 147.4628741 316.28776925 145.33816134 288 140 C287.08959961 139.8340332 286.17919922 139.66806641 285.24121094 139.49707031 C263.21510954 135.34073253 240.50957312 127.02372325 221 116 C220.00782471 115.45424316 220.00782471 115.45424316 218.99560547 114.89746094 C207.3497362 108.47009292 196.62314322 100.98522791 186 93 C185.25121582 92.43812988 184.50243164 91.87625977 183.73095703 91.29736328 C175.81294055 85.33787888 168.04127702 79.24958182 160.41796875 72.91796875 C157.43683301 70.55328757 154.30658975 68.51192122 151.10546875 66.4609375 C148.93075703 64.95195386 147.06296411 63.30038045 145.125 61.5 C141.31315008 58.05262975 137.21774502 55.76708857 132.671875 53.40625 C129.61600917 51.79789956 126.72982803 49.99978913 123.8203125 48.14453125 C121.55023621 46.71720861 119.22385157 45.39683642 116.8828125 44.08984375 C115.52410983 43.30337478 114.18775905 42.4778451 112.8671875 41.62890625 C79.57986738 20.48102136 36.99975655 20.15606482 -1 19 C-2.94158017 15.48375245 -3.18311068 13.0284349 -3 9 C-2.34 8.67 -1.68 8.34 -1 8 C-0.53476937 6.10466658 -0.53476937 6.10466658 -0.375 3.9375 C-0.25125 2.638125 -0.1275 1.33875 0 0 Z " fill="#568C38" transform="translate(69,98)"/>
<path d="M0 0 C1.09183594 0.62519531 2.18367187 1.25039062 3.30859375 1.89453125 C9.85566817 5.71133634 9.85566817 5.71133634 11 8 C12.60166257 8.92010403 14.20622343 9.83549261 15.82421875 10.7265625 C21.27385915 13.91611864 26.58178552 17.47546485 31 22 C35.64240384 25.91040656 40.46482495 29.60184042 45.296875 33.2734375 C46.05081543 33.84658691 46.80475586 34.41973633 47.58154297 35.01025391 C49.08871556 36.15354876 50.59809533 37.29394084 52.10986328 38.43115234 C54.97070391 40.59889258 57.69356368 42.69249035 60.23046875 45.23828125 C62.72202959 47.71884182 65.56426689 49.00164278 68.68359375 50.55859375 C71.55222076 52.34362472 73.6195369 54.60863402 76 57 C102.75246044 76.45999758 138.64969776 88.11800676 171.62890625 88.16796875 C172.81805885 88.17296135 172.81805885 88.17296135 174.03123474 88.17805481 C175.69928413 88.18308112 177.36734343 88.18546448 179.03540039 88.18530273 C181.53224142 88.18747369 184.02862831 88.2056329 186.52539062 88.22460938 C195.68817053 88.25557276 204.5298444 87.77593173 213.59741211 86.4309082 C216.77722595 86.0282124 219.79961194 85.92255398 223 86 C224.4606285 88.64738916 225 89.89448334 225 93 C221.87564509 93.48343366 218.75040869 93.96093059 215.625 94.4375 C214.75488281 94.57220703 213.88476562 94.70691406 212.98828125 94.84570312 C182.76036476 99.43586822 151.01433253 98.15188309 122 88 C120.86820312 87.64421875 119.73640625 87.2884375 118.5703125 86.921875 C90.36159111 77.67097792 64.457786 59.63411781 42.0390625 40.51953125 C36.55141833 35.9700062 30.79194466 31.78140682 25.06445312 27.54101562 C23.02430662 26.01814373 21.00218462 24.47418797 18.984375 22.921875 C9.98968581 16.02297153 0.79777348 9.70785544 -9 4 C-9.65516602 3.6174707 -10.31033203 3.23494141 -10.98535156 2.84082031 C-54.56319794 -22.22873035 -105.59639986 -28.83217459 -155 -31 C-154.67 -32.65 -154.34 -34.3 -154 -36 C-107.47794789 -52.61501861 -39.64628112 -23.03510643 0 0 Z " fill="#2E5917" transform="translate(221,77)"/>
<path d="M0 0 C41.53883917 -0.80119423 41.53883917 -0.80119423 61.59716797 3.55200195 C64.130012 4.0242402 66.6202021 4.268462 69.1875 4.4765625 C73.47260645 4.85678081 77.09878908 5.8634477 81.125 7.4375 C86.53506345 9.49743094 86.53506345 9.49743094 92.125 10.9375 C96.74919133 11.97276671 100.73387804 14.31324607 104.91015625 16.48828125 C108.59419935 18.29071447 112.32845573 19.61323837 116.234375 20.84765625 C119.31166997 22.12986249 121.92631096 23.75286571 124.72412109 25.55249023 C127.19088049 27.12140425 129.69575531 28.61038831 132.21484375 30.09375 C143.78660913 36.95982535 154.66295739 44.19386575 165.18115234 52.57958984 C168.74851238 55.36548255 172.47341956 57.93177851 176.19140625 60.51171875 C176.78824219 61.00285156 177.38507813 61.49398437 178 62 C178 62.66 178 63.32 178 64 C178.51820313 64.22171875 179.03640625 64.4434375 179.5703125 64.671875 C182.22617806 66.12363431 184.53622578 67.87637068 186.921875 69.73144531 C201.53559434 81.0936121 217.19315131 91.3573332 234.03710938 99.09667969 C236.08118188 100.03735982 238.11025377 101.0067061 240.140625 101.9765625 C270.05471721 116.02105578 301.61611565 123.21352871 334.59130859 123.13037109 C337.12733902 123.12499504 339.66319356 123.13035544 342.19921875 123.13671875 C349.49923386 123.13944754 356.69810484 123.10368345 363.95556641 122.22265625 C367.1906321 121.87033001 370.37125686 121.90560056 373.625 121.9375 C374.83414062 121.94652344 376.04328125 121.95554687 377.2890625 121.96484375 C378.63097656 121.98224609 378.63097656 121.98224609 380 122 C379.67 123.98 379.34 125.96 379 128 C350.87311738 135.4628741 319.28776925 133.33816134 291 128 C290.08959961 127.8340332 289.17919922 127.66806641 288.24121094 127.49707031 C266.21510954 123.34073253 243.50957312 115.02372325 224 104 C223.00782471 103.45424316 223.00782471 103.45424316 221.99560547 102.89746094 C210.3497362 96.47009292 199.62314322 88.98522791 189 81 C188.25121582 80.43812988 187.50243164 79.87625977 186.73095703 79.29736328 C178.81294055 73.33787888 171.04127702 67.24958182 163.41796875 60.91796875 C160.43683301 58.55328757 157.30658975 56.51192122 154.10546875 54.4609375 C151.93075703 52.95195386 150.06296411 51.30038045 148.125 49.5 C144.31315008 46.05262975 140.21774502 43.76708857 135.671875 41.40625 C132.61600917 39.79789956 129.72982803 37.99978913 126.8203125 36.14453125 C124.55023621 34.71720861 122.22385157 33.39683642 119.8828125 32.08984375 C118.52410983 31.30337478 117.18775905 30.4778451 115.8671875 29.62890625 C82.57986738 8.48102136 39.99975655 8.15606482 2 7 C0.5393715 4.35261084 0 3.10551666 0 0 Z " fill="#2C5818" transform="translate(66,110)"/>
<path d="M0 0 C0.73265076 -0.00974854 1.46530151 -0.01949707 2.22015381 -0.02954102 C19.11846226 -0.20760069 35.11481561 0.33148559 51.640625 4.23828125 C52.48399414 4.42551758 53.32736328 4.61275391 54.19628906 4.80566406 C73.05742034 8.99461497 91.09875395 15.17960267 108.640625 23.23828125 C110.18166279 23.88561374 111.72322469 24.531702 113.265625 25.17578125 C119.02029867 27.74072151 124.41330111 31.01519716 129.84326172 34.19482422 C131.62213305 35.22754577 133.41208402 36.23771219 135.20703125 37.2421875 C136.29886719 37.85964844 137.39070312 38.47710937 138.515625 39.11328125 C139.99675781 39.94472656 139.99675781 39.94472656 141.5078125 40.79296875 C142.56355469 41.50839844 142.56355469 41.50839844 143.640625 42.23828125 C143.640625 42.89828125 143.640625 43.55828125 143.640625 44.23828125 C144.3625 44.49609375 145.084375 44.75390625 145.828125 45.01953125 C148.7869804 46.30170192 151.05571142 47.81535774 153.640625 49.73828125 C154.58679688 50.44210938 155.53296875 51.1459375 156.5078125 51.87109375 C157.54164063 52.65226562 158.57546875 53.4334375 159.640625 54.23828125 C160.22102539 54.67366211 160.80142578 55.10904297 161.39941406 55.55761719 C163.19237035 56.90402587 164.97996763 58.25721107 166.765625 59.61328125 C167.61833984 60.25620117 167.61833984 60.25620117 168.48828125 60.91210938 C172.52438212 64.0057955 172.52438212 64.0057955 173.640625 66.23828125 C174.31867188 66.64304687 174.99671875 67.0478125 175.6953125 67.46484375 C179.65979012 69.85194301 183.15073729 72.73274729 186.765625 75.61328125 C193.26708567 80.72948179 199.87722418 85.62556258 206.703125 90.30078125 C207.46318848 90.82397949 208.22325195 91.34717773 209.00634766 91.88623047 C214.06545355 95.31393797 219.2620396 98.34285631 224.640625 101.23828125 C225.99744577 101.98688866 227.35421783 102.73558437 228.7109375 103.484375 C237.80942317 108.43115679 246.92575394 112.65853851 256.640625 116.23828125 C257.55070312 116.60566406 258.46078125 116.97304687 259.3984375 117.3515625 C270.00081297 121.35450018 281.47726697 122.62575937 292.640625 124.23828125 C293.80851562 124.42213379 294.97640625 124.60598633 296.1796875 124.79541016 C307.84412005 126.48156471 319.37342977 126.46752015 331.140625 126.36328125 C333.13931838 126.35322126 335.13801672 126.3441008 337.13671875 126.3359375 C341.97147955 126.3141865 346.80599545 126.27982685 351.640625 126.23828125 C351.640625 126.89828125 351.640625 127.55828125 351.640625 128.23828125 C349.97608712 128.7247914 348.30884771 129.2020604 346.640625 129.67578125 C345.7125 129.94261719 344.784375 130.20945313 343.828125 130.484375 C337.12364163 132.07011678 330.52798537 132.39651171 323.671875 132.40625 C322.83329956 132.4095784 321.99472412 132.4129068 321.1307373 132.41633606 C319.36255435 132.42137166 317.59436199 132.42374543 315.82617188 132.42358398 C313.17561339 132.42575262 310.52548412 132.44389516 307.875 132.46289062 C293.77239384 132.51186287 280.01516641 131.96288067 266.578125 127.23828125 C265.02499157 126.71669696 263.47161013 126.19585055 261.91796875 125.67578125 C261.19270996 125.42812012 260.46745117 125.18045898 259.72021484 124.92529297 C257.8051658 124.29263882 255.86594724 123.73442952 253.92578125 123.18359375 C229.3325791 116.10683404 206.28418808 99.6963753 186.63623047 83.83691406 C183.69698244 81.48235129 180.70108163 79.20475053 177.703125 76.92578125 C173.67214628 73.83908722 169.72918852 70.67488621 165.828125 67.42578125 C162.64727951 64.78595933 159.49752688 62.42742238 155.953125 60.30078125 C154.86 59.62015625 153.766875 58.93953125 152.640625 58.23828125 C152.640625 57.57828125 152.640625 56.91828125 152.640625 56.23828125 C152.07166504 55.96209961 151.50270508 55.68591797 150.91650391 55.40136719 C148.62338247 54.22946947 146.43188608 52.95823285 144.2265625 51.62890625 C143.38222656 51.12101562 142.53789062 50.613125 141.66796875 50.08984375 C140.79269531 49.56132813 139.91742188 49.0328125 139.015625 48.48828125 C138.16355469 47.97523437 137.31148437 47.4621875 136.43359375 46.93359375 C135.58152344 46.42054687 134.72945312 45.9075 133.8515625 45.37890625 C132.99530273 44.86392578 132.13904297 44.34894531 131.25683594 43.81835938 C129.48016981 42.74532996 127.70750108 41.66565949 125.93847656 40.58007812 C125.06932617 40.04962891 124.20017578 39.51917969 123.3046875 38.97265625 C122.52818848 38.49538086 121.75168945 38.01810547 120.95166016 37.52636719 C118.57461233 36.20148822 116.18600876 35.19385534 113.640625 34.23828125 C113.640625 33.57828125 113.640625 32.91828125 113.640625 32.23828125 C111.8771875 31.68140625 111.8771875 31.68140625 110.078125 31.11328125 C105.67791916 29.65118754 101.37673156 27.97231167 97.078125 26.23828125 C96.4186084 25.97265381 95.7590918 25.70702637 95.07958984 25.43334961 C93.26635206 24.70227869 91.45347413 23.97031541 89.640625 23.23828125 C65.68155007 13.57736394 40.53789985 9.46903486 14.953125 7.17578125 C11.42757736 6.85967571 7.90306951 6.53427076 4.37890625 6.203125 C3.58825272 6.13536362 2.79759918 6.06760223 1.98298645 5.99778748 C-2.39519046 5.58523288 -6.21628218 4.82486609 -10.359375 3.23828125 C-10.359375 2.57828125 -10.359375 1.91828125 -10.359375 1.23828125 C-6.85210731 0.06919202 -3.65232162 0.03957217 0 0 Z " fill="#7ABC4B" transform="translate(83.359375,50.76171875)"/>
<path d="M0 0 C8.07546701 0.81181492 15.9597115 2.85980253 23.75 5.0625 C24.81331543 5.36196533 25.87663086 5.66143066 26.97216797 5.9699707 C34.80691368 8.23689146 42.48447675 10.83621394 50.125 13.6875 C51.11338867 14.05560791 52.10177734 14.42371582 53.12011719 14.80297852 C58.38757909 16.82356816 63.16096877 19.1068226 68 22 C69.32860925 22.35169068 70.66158328 22.68770276 72 23 C73.67419438 23.9873454 75.34051852 24.98812105 77 26 C77.79148437 26.30421875 78.58296875 26.6084375 79.3984375 26.921875 C81.95906898 27.9830376 83.93507143 29.21086693 86.1875 30.8125 C90.2861755 33.63679741 94.49561673 35.78738344 99.03125 37.82421875 C101 39 101 39 102 42 C104.08502519 43.29003256 104.08502519 43.29003256 106.625 44.375 C111.18159875 46.54543154 115.07159606 48.82384363 119 52 C119.33 52.99 119.66 53.98 120 55 C121.987918 56.02380762 123.99084785 57.01851763 126 58 C128.54713428 59.74382853 130.95861751 61.64301454 133.375 63.5625 C134.01566406 64.05685547 134.65632812 64.55121094 135.31640625 65.06054688 C136.91885456 66.32303014 138.4649848 67.65633601 140 69 C140 69.66 140 70.32 140 71 C140.78375 71.268125 141.5675 71.53625 142.375 71.8125 C145 73 145 73 147 76 C146.625 78.6875 146.625 78.6875 146 81 C141.03939664 77.32915351 136.15840317 73.5700017 131.3125 69.75 C124.58104129 64.44763169 117.82389412 59.18303408 111 54 C110.11054688 53.32324219 109.22109375 52.64648438 108.3046875 51.94921875 C69.97779262 23.40426271 25.95199002 10.01572372 -21 4 C-20.67 3.34 -20.34 2.68 -20 2 C-19.42967041 1.97494385 -18.85934082 1.9498877 -18.27172852 1.92407227 C-15.70173843 1.80843451 -13.13214473 1.68556376 -10.5625 1.5625 C-9.66466797 1.52318359 -8.76683594 1.48386719 -7.84179688 1.44335938 C-6.98779297 1.40146484 -6.13378906 1.35957031 -5.25390625 1.31640625 C-4.46314697 1.27974854 -3.6723877 1.24309082 -2.85766602 1.20532227 C-0.98598559 1.19436743 -0.98598559 1.19436743 0 0 Z " fill="#2F5A17" transform="translate(128,45)"/>
<path d="M0 0 C50.82014242 -0.98021046 50.82014242 -0.98021046 70 6 C70 6.66 70 7.32 70 8 C71.32 8.33 72.64 8.66 74 9 C74 9.66 74 10.32 74 11 C75.14597656 11.11214844 76.29195313 11.22429687 77.47265625 11.33984375 C81.99407453 11.91085528 86.13238901 13.09667575 90.4375 14.5625 C91.20739258 14.82281006 91.97728516 15.08312012 92.77050781 15.35131836 C98.39365223 17.31254745 103.84688036 19.56018431 109.25 22.0625 C110.2853186 22.53635132 110.2853186 22.53635132 111.34155273 23.01977539 C115.82654426 25.17105005 119.25125241 27.73740123 123 31 C124.96752828 32.06246527 126.96587579 33.07137808 129 34 C130.33333333 34.66666667 131.66666667 35.33333333 133 36 C133 36.66 133 37.32 133 38 C133.5775 38.12503906 134.155 38.25007813 134.75 38.37890625 C142.75823461 40.58951268 148.96966928 46.2668211 155.10546875 51.59765625 C157.96304567 54.07210442 157.96304567 54.07210442 161.23828125 56.05859375 C163.92515297 57.94738476 164.91664683 58.96661112 166 62 C154.29224475 55.67512073 154.29224475 55.67512073 150.625 51.5625 C146.62373283 47.18765014 141.51091569 44.65903147 136.375 41.8515625 C133.70841155 40.38864245 131.12610015 38.88229228 128.5625 37.25 C125.71698222 35.43921596 122.8287783 33.73456457 119.8828125 32.08984375 C118.52410983 31.30337478 117.18775905 30.4778451 115.8671875 29.62890625 C82.57986738 8.48102136 39.99975655 8.15606482 2 7 C0.5393715 4.35261084 0 3.10551666 0 0 Z " fill="#2B5617" transform="translate(66,110)"/>
<path d="M0 0 C1.20914063 0.00902344 2.41828125 0.01804688 3.6640625 0.02734375 C4.55867188 0.03894531 5.45328125 0.05054688 6.375 0.0625 C6.045 2.0425 5.715 4.0225 5.375 6.0625 C-0.05901283 7.5140096 -5.34647528 8.58914179 -10.9375 9.1875 C-11.72423096 9.27241699 -12.51096191 9.35733398 -13.3215332 9.44482422 C-25.04806762 10.55588848 -36.8608938 10.23400766 -48.625 10.0625 C-48.625 9.4025 -48.625 8.7425 -48.625 8.0625 C-49.38425781 8.01351562 -50.14351563 7.96453125 -50.92578125 7.9140625 C-52.41658203 7.80191406 -52.41658203 7.80191406 -53.9375 7.6875 C-54.92363281 7.61789063 -55.90976562 7.54828125 -56.92578125 7.4765625 C-61.32589697 6.80158093 -63.64121323 4.14917597 -66.625 1.0625 C-65.73749557 1.06583092 -65.73749557 1.06583092 -64.83206177 1.06922913 C-58.63446663 1.09147454 -52.43688298 1.10648641 -46.23925781 1.11743164 C-43.93098489 1.12243839 -41.6227151 1.12924574 -39.31445312 1.13793945 C-35.98306501 1.15016605 -32.65171908 1.15576505 -29.3203125 1.16015625 C-28.30011017 1.16531754 -27.27990784 1.17047882 -26.22879028 1.17579651 C-20.69705198 1.17622274 -15.29151549 0.93062069 -9.79577637 0.28735352 C-6.5154995 -0.05242436 -3.29783021 -0.03233167 0 0 Z " fill="#2F5A1B" transform="translate(439.625,231.9375)"/>
<path d="M0 0 C0 0.99 0 1.98 0 3 C2.31 3.33 4.62 3.66 7 4 C6.67 4.66 6.34 5.32 6 6 C3.08352657 6.17083945 0.16689927 6.33672425 -2.75 6.5 C-3.95849609 6.57154297 -3.95849609 6.57154297 -5.19140625 6.64453125 C-17.11280227 7.30161607 -28.8469966 6.85430997 -40.75 6 C-42.14059879 5.90326834 -43.53122375 5.80691202 -44.921875 5.7109375 C-48.28152464 5.4776285 -51.64086441 5.24057809 -55 5 C-54.67 3.35 -54.34 1.7 -54 0 C-37.76647608 -5.79768712 -16.58931459 -3.53767992 0 0 Z " fill="#2E5918" transform="translate(121,41)"/>
<path d="M0 0 C35.50105586 5.34887358 69.06007406 18.02342144 100 36 C101.09183594 36.62519531 102.18367188 37.25039062 103.30859375 37.89453125 C109.85566817 41.71133634 109.85566817 41.71133634 111 44 C112.60166257 44.92010403 114.20622343 45.83549261 115.82421875 46.7265625 C121.27394562 49.91616925 126.5815923 53.47555051 131 58 C139.34898056 65.05667399 148.23553255 71.47558254 157 78 C156.67 78.66 156.34 79.32 156 80 C152.88626628 78.50079488 149.87771795 76.91847864 147 75 C147 74.34 147 73.68 147 73 C146.4740625 72.773125 145.948125 72.54625 145.40625 72.3125 C141.54095597 70.2041578 138.21613836 67.36201457 134.77734375 64.6328125 C132.47113154 62.82422845 130.30625756 61.14700363 127.65625 59.875 C126 59 126 59 125 56 C122.91646951 54.53252036 120.87913943 53.22012069 118.6875 51.9375 C117.81448242 51.4105957 117.81448242 51.4105957 116.92382812 50.87304688 C114.00568789 49.12480658 111.07135493 47.46363334 108 46 C108 45.01 108 44.02 108 43 C107.13890625 42.74863281 106.2778125 42.49726562 105.390625 42.23828125 C101.80114542 40.92737684 98.95898914 39.25437354 95.75 37.1875 C85.49889531 30.60274175 85.49889531 30.60274175 74 27 C74 26.34 74 25.68 74 25 C72.845 24.62875 71.69 24.2575 70.5 23.875 C66.08035355 22.40640275 61.72813693 20.77781208 57.375 19.125 C38.6543547 12.08085747 19.65875302 6.74696859 0 3 C0 2.01 0 1.02 0 0 Z " fill="#183804" transform="translate(121,41)"/>
<path d="M0 0 C2.70583756 0.25560029 5.37210774 0.56759978 8.0625 0.9375 C9.20041992 1.08735352 9.20041992 1.08735352 10.36132812 1.24023438 C12.24154246 1.48856457 14.12086128 1.74365751 16 2 C16 2.66 16 3.32 16 4 C16.93392578 3.67515625 16.93392578 3.67515625 17.88671875 3.34375 C22.51746705 2.83245031 26.3899713 4.18114657 30.8125 5.5 C31.74231689 5.77263672 32.67213379 6.04527344 33.63012695 6.32617188 C45.9008233 10.03927049 57.19912443 15.05230185 68 22 C70.91598136 23.7684887 73.84796626 25.50178473 76.8125 27.1875 C77.864375 27.785625 78.91625 28.38375 80 29 C80 29.66 80 30.32 80 31 C80.86625 31.18755859 80.86625 31.18755859 81.75 31.37890625 C89.75823461 33.58951268 95.96966928 39.2668211 102.10546875 44.59765625 C104.96304567 47.07210442 104.96304567 47.07210442 108.23828125 49.05859375 C110.92515297 50.94738476 111.91664683 51.96661112 113 55 C101.29224475 48.67512073 101.29224475 48.67512073 97.625 44.5625 C93.62373283 40.18765014 88.51091569 37.65903147 83.375 34.8515625 C80.70841155 33.38864245 78.12610015 31.88229228 75.5625 30.25 C72.71698222 28.43921596 69.8287783 26.73456457 66.8828125 25.08984375 C65.52410983 24.30337478 64.18775905 23.4778451 62.8671875 22.62890625 C46.2762941 12.08848717 25.85231771 6.56663517 6.50854492 3.93676758 C1.19199644 3.19199644 1.19199644 3.19199644 -1 1 C-0.67 0.67 -0.34 0.34 0 0 Z " fill="#1B3D09" transform="translate(119,117)"/>
<path d="M0 0 C3.875 1.75 3.875 1.75 5 4 C7.14656087 5.26398729 9.35488634 6.36547112 11.578125 7.48828125 C14.49005256 9.30588765 16.58353052 11.56870555 19 14 C42.8103634 31.31988783 71.56564925 39.48937203 100 45 C99.505 45.99 99.505 45.99 99 47 C96.03 46.67 93.06 46.34 90 46 C90 45.34 90 44.68 90 44 C88.02 44.33 86.04 44.66 84 45 C84 44.34 84 43.68 84 43 C83.01 43.495 83.01 43.495 82 44 C76.04259048 44.68594778 71.09558264 42.50745019 65.625 40.4375 C64.6541748 40.07688477 63.68334961 39.71626953 62.68310547 39.34472656 C51.52750216 35.15149863 40.57553257 30.50808988 30 25 C30 24.34 30 23.68 30 23 C29.46375 22.9175 28.9275 22.835 28.375 22.75 C25.11059818 21.71913627 22.79149196 19.9862539 20 18 C19.28585937 17.49597656 18.57171875 16.99195313 17.8359375 16.47265625 C13.54197786 13.36977729 13.54197786 13.36977729 12 12 C12 11.34 12 10.68 12 10 C11.38511719 9.84144531 10.77023437 9.68289062 10.13671875 9.51953125 C3.48160535 7.59835816 3.48160535 7.59835816 0.9375 4.4375 C0 2 0 2 0 0 Z " fill="#1A3906" transform="translate(278,120)"/>
<path d="M0 0 C1.5877405 0.90901174 3.17001197 1.82757924 4.75 2.75 C6.07257813 3.51570312 6.07257813 3.51570312 7.421875 4.296875 C9.98628385 5.99093903 11.98479227 7.6834528 14 10 C14 10.66 14 11.32 14 12 C14.58136719 12.10441406 15.16273438 12.20882812 15.76171875 12.31640625 C18.35815141 13.10938307 19.73549357 14.19641966 21.8125 15.9375 C26.68259222 19.87606451 31.84338423 23.26473488 37.12231445 26.62280273 C38.78153689 27.69880902 40.39565016 28.84376896 42 30 C42 30.66 42 31.32 42 32 C42.52464844 32.08765625 43.04929687 32.1753125 43.58984375 32.265625 C46.8709899 33.26539076 49.63781345 35.00195725 52.5625 36.75 C66.55618131 44.90950696 81.75734472 50.61278296 97 56 C96.67 56.99 96.34 57.98 96 59 C66.68241515 48.1267199 41.88859579 34.98244812 17 16 C16.32936523 15.48920898 15.65873047 14.97841797 14.96777344 14.45214844 C12.1586797 12.30840411 9.35845725 10.1542139 6.56640625 7.98828125 C4.96583672 6.74826619 3.33139789 5.5494445 1.65234375 4.41796875 C1.10707031 3.95003906 0.56179687 3.48210937 0 3 C0 2.01 0 1.02 0 0 Z " fill="#143705" transform="translate(234,172)"/>
<path d="M0 0 C5.25690149 -0.25447421 9.04587155 0.4711716 13.9375 2.375 C19.43985619 4.47101349 19.43985619 4.47101349 25.125 5.9375 C29.73749558 6.97014826 33.71134287 9.30267884 37.87890625 11.46875 C42.44929006 13.71104093 47.17783463 15.38628324 52 17 C51.01 17.99 50.02 18.98 49 20 C43.26098542 18.49251691 37.90889804 16.57098186 32.5 14.125 C26.06978233 11.27500275 19.5967967 9.34964429 12.77734375 7.64892578 C10.83697566 7.15323297 8.91594021 6.58302039 7 6 C6.67 5.34 6.34 4.68 6 4 C5.01 3.67 4.02 3.34 3 3 C3 2.34 3 1.68 3 1 C2.01 0.67 1.02 0.34 0 0 Z " fill="#325F1B" transform="translate(133,115)"/>
<path d="M0 0 C8.40208555 1.26592554 16.59179133 2.98167481 24.8125 5.125 C25.97523438 5.42776855 27.13796875 5.73053711 28.3359375 6.04248047 C36.15726041 8.12866304 43.85302181 10.470761 51.5 13.125 C52.39952393 13.43711426 53.29904785 13.74922852 54.22583008 14.07080078 C60.6482876 16.36954106 66.82834023 19.09908322 73 22 C73 22.66 73 23.32 73 24 C74.485 24.495 74.485 24.495 76 25 C75.34 25.66 74.68 26.32 74 27 C74 26.34 74 25.68 74 25 C72.845 24.62875 71.69 24.2575 70.5 23.875 C66.08035355 22.40640275 61.72813693 20.77781208 57.375 19.125 C38.6543547 12.08085747 19.65875302 6.74696859 0 3 C0 2.01 0 1.02 0 0 Z " fill="#20420C" transform="translate(121,41)"/>
<path d="M0 0 C1.96665177 0.22895349 3.92472448 0.53358486 5.875 0.875 C6.94492188 1.05804688 8.01484375 1.24109375 9.1171875 1.4296875 C12 2 12 2 15 3 C15 4.65 15 6.3 15 8 C11.36151431 8.90840372 8.68566774 8.9866003 5.015625 8.2578125 C4.07976562 8.07863281 3.14390625 7.89945313 2.1796875 7.71484375 C1.21289062 7.52019531 0.24609375 7.32554688 -0.75 7.125 C-7.49693316 5.79938305 -14.15293346 4.66216487 -21 4 C-20.67 3.34 -20.34 2.68 -20 2 C-19.42967041 1.97494385 -18.85934082 1.9498877 -18.27172852 1.92407227 C-15.70173843 1.80843451 -13.13214473 1.68556376 -10.5625 1.5625 C-9.66466797 1.52318359 -8.76683594 1.48386719 -7.84179688 1.44335938 C-6.98779297 1.40146484 -6.13378906 1.35957031 -5.25390625 1.31640625 C-4.46314697 1.27974854 -3.6723877 1.24309082 -2.85766602 1.20532227 C-0.98598559 1.19436743 -0.98598559 1.19436743 0 0 Z " fill="#315F1A" transform="translate(128,45)"/>
<path d="M0 0 C2.2543598 3.3815397 2.26628727 4.60468871 2.31884766 8.57299805 C2.33871735 9.71395432 2.35858704 10.85491058 2.37905884 12.03044128 C2.39061005 13.26176285 2.40216125 14.49308441 2.4140625 15.76171875 C2.43342865 17.02264847 2.4527948 18.28357819 2.4727478 19.5827179 C2.52243737 22.93147581 2.56369435 26.28012319 2.60089111 29.62902832 C2.64093081 33.04770856 2.69202326 36.46622161 2.7421875 39.88476562 C2.83832561 46.58973631 2.92335146 53.29477974 3 60 C1.515 60.495 1.515 60.495 0 61 C-0.79786176 50.81499478 -1.15575488 40.72087193 -1.125 30.5 C-1.12886719 29.21480469 -1.13273437 27.92960937 -1.13671875 26.60546875 C-1.12776032 17.69182953 -0.69579534 8.88208903 0 0 Z " fill="#649343" transform="translate(66,46)"/>
<path d="M0 0 C0 0.66 0 1.32 0 2 C0.66 2.66 1.32 3.32 2 4 C-6.95876968 5.86849572 -15.85971392 6.7701852 -25 6 C-25.99 5.34 -26.98 4.68 -28 4 C-28 3.34 -28 2.68 -28 2 C-25.02141273 1.66062892 -22.04230315 1.32837741 -19.0625 1 C-18.23169922 0.90460938 -17.40089844 0.80921875 -16.54492188 0.7109375 C-10.99415957 0.10618519 -5.583649 -0.09014973 0 0 Z " fill="#2D5817" transform="translate(444,166)"/>
<path d="M0 0 C2.64 0 5.28 0 8 0 C8 0.66 8 1.32 8 2 C8.66 1.67 9.32 1.34 10 1 C11.99960012 0.960008 14.00047242 0.95653201 16 1 C16.66 2.65 17.32 4.3 18 6 C5.46 5.34 -7.08 4.68 -20 4 C-20 3.34 -20 2.68 -20 2 C-13.4 2 -6.8 2 0 2 C0 1.34 0 0.68 0 0 Z " fill="#2B4F15" transform="translate(96,113)"/>
<path d="M0 0 C7.3620694 0.4859793 14.69100518 0.97674072 22 2 C22 2.66 22 3.32 22 4 C24.64 4 27.28 4 30 4 C30 4.33 30 4.66 30 5 C23.4 5 16.8 5 10 5 C10 5.66 10 6.32 10 7 C7.36 7 4.72 7 2 7 C0.5393715 4.35261084 0 3.10551666 0 0 Z " fill="#275315" transform="translate(66,110)"/>
<path d="M0 0 C0.33 0 0.66 0 1 0 C1.33 1.98 1.66 3.96 2 6 C2.33 6 2.66 6 3 6 C3 18.54 3 31.08 3 44 C-0.04560259 40.95439741 0.52381009 37.35140826 0.375 33.25 C0.33705322 32.37633789 0.29910645 31.50267578 0.26000977 30.60253906 C-0.13795761 20.40518909 -0.0951219 10.20292081 0 0 Z " fill="#6F9F4F" transform="translate(443,175)"/>
<path d="M0 0 C2.475 0.99 2.475 0.99 5 2 C5 2.66 5 3.32 5 4 C5.86625 4.18755859 5.86625 4.18755859 6.75 4.37890625 C14.75823461 6.58951268 20.96966928 12.2668211 27.10546875 17.59765625 C29.96304567 20.07210442 29.96304567 20.07210442 33.23828125 22.05859375 C35.92515297 23.94738476 36.91664683 24.96661112 38 28 C26.29224475 21.67512073 26.29224475 21.67512073 22.625 17.5625 C19.0631479 13.64798927 14.67039471 11.31102721 10.06103516 8.84008789 C6.39045949 6.8639773 3.08808244 4.81423362 0 2 C0 1.34 0 0.68 0 0 Z " fill="#153506" transform="translate(194,144)"/>
<path d="M0 0 C0.62366455 0.17958252 1.2473291 0.35916504 1.88989258 0.54418945 C9.75786659 2.75538483 17.69110178 4.50862946 25.6875 6.1875 C26.97333984 6.46013672 28.25917969 6.73277344 29.58398438 7.01367188 C32.72206807 7.67861898 35.86073274 8.3406675 39 9 C38.67 9.66 38.34 10.32 38 11 C35.03 10.67 32.06 10.34 29 10 C29 9.34 29 8.68 29 8 C27.02 8.33 25.04 8.66 23 9 C23 8.34 23 7.68 23 7 C22.01 7.495 22.01 7.495 21 8 C15.59483896 8.51941487 11.54067415 6.97338094 6.625 5 C5.88894531 4.71382812 5.15289062 4.42765625 4.39453125 4.1328125 C2.59283107 3.43085139 0.79590568 2.71665595 -1 2 C-0.67 1.34 -0.34 0.68 0 0 Z " fill="#1F420C" transform="translate(339,156)"/>
<path d="M0 0 C9.9 0.33 19.8 0.66 30 1 C30 1.66 30 2.32 30 3 C30.99 3.33 31.98 3.66 33 4 C29.37501758 4.02946035 25.75006668 4.04695131 22.125 4.0625 C21.11179687 4.07087891 20.09859375 4.07925781 19.0546875 4.08789062 C12.63736985 4.10845895 6.37009043 3.78323679 0 3 C0 2.01 0 1.02 0 0 Z " fill="#1E440D" transform="translate(380,165)"/>
<path d="M0 0 C0.93585938 0.27714844 1.87171875 0.55429688 2.8359375 0.83984375 C7.72786651 2.23701019 12.67439041 3.39418387 17.625 4.5625 C18.553125 4.78357422 19.48125 5.00464844 20.4375 5.23242188 C24.61470334 6.22286192 28.78631941 7.17570634 33 8 C33 8.99 33 9.98 33 11 C21.61770019 9.26729842 10.8999449 6.71155594 0 3 C0 2.01 0 1.02 0 0 Z " fill="#22460E" transform="translate(331,228)"/>
<path d="M0 0 C11.22 0 22.44 0 34 0 C34.495 0.99 34.495 0.99 35 2 C31.70039859 3.6498007 28.00872116 3.38258361 24.375 3.5625 C23.57320312 3.60568359 22.77140625 3.64886719 21.9453125 3.69335938 C19.9637489 3.79951457 17.98189729 3.90026855 16 4 C16 3.34 16 2.68 16 2 C10.72 1.67 5.44 1.34 0 1 C0 0.67 0 0.34 0 0 Z " fill="#366820" transform="translate(72,110)"/>
<path d="M0 0 C2.70583756 0.25560029 5.37210774 0.56759978 8.0625 0.9375 C9.20041992 1.08735352 9.20041992 1.08735352 10.36132812 1.24023438 C12.24154246 1.48856457 14.12086128 1.74365751 16 2 C16 2.66 16 3.32 16 4 C16.67417969 3.79503906 17.34835938 3.59007813 18.04296875 3.37890625 C21.89636786 2.88514177 24.61346737 3.79667685 28.3125 4.9375 C29.56675781 5.31777344 30.82101563 5.69804688 32.11328125 6.08984375 C33.06589844 6.39019531 34.01851562 6.69054687 35 7 C34.67 7.66 34.34 8.32 34 9 C33.01012085 8.81824219 33.01012085 8.81824219 32.00024414 8.6328125 C27.06533121 7.73058705 22.12855474 6.84555058 17.18359375 6 C15.26822917 5.66666667 13.35286458 5.33333333 11.4375 5 C10.45458984 4.835 9.47167969 4.67 8.45898438 4.5 C7.05422852 4.2525 7.05422852 4.2525 5.62109375 4 C4.7798999 3.855625 3.93870605 3.71125 3.07202148 3.5625 C1 3 1 3 -1 1 C-0.67 0.67 -0.34 0.34 0 0 Z " fill="#20450D" transform="translate(119,117)"/>
<path d="M0 0 C-0.33 0.66 -0.66 1.32 -1 2 C-1.99012085 2.03758423 -1.99012085 2.03758423 -3.00024414 2.07592773 C-6.02115369 2.19271752 -9.04181422 2.31506446 -12.0625 2.4375 C-13.62000977 2.49647461 -13.62000977 2.49647461 -15.20898438 2.55664062 C-23.15370776 2.84229689 -23.15370776 2.84229689 -31 4 C-31.33 4.66 -31.66 5.32 -32 6 C-32.99 6 -33.98 6 -35 6 C-34.34 4.35 -33.68 2.7 -33 1 C-21.82630933 -0.34797265 -11.21791097 -1.51482739 0 0 Z " fill="#1C4009" transform="translate(101,39)"/>
<path d="M0 0 C0.556875 0.391875 1.11375 0.78375 1.6875 1.1875 C4.72963267 2.70856634 7.96797572 2.56179338 11.3125 2.75 C12.01890625 2.79318359 12.7253125 2.83636719 13.453125 2.88085938 C15.19768537 2.98694751 16.94256697 3.08772889 18.6875 3.1875 C17.3675 3.5175 16.0475 3.8475 14.6875 4.1875 C14.6875 4.8475 14.6875 5.5075 14.6875 6.1875 C6.17924287 5.75641497 -2.00683011 5.20040353 -10.3125 3.1875 C-9.3125 1.1875 -9.3125 1.1875 -6 -0.0625 C-2.3125 -0.8125 -2.3125 -0.8125 0 0 Z " fill="#244A13" transform="translate(376.3125,235.8125)"/>
<path d="M0 0 C0.66 1.98 1.32 3.96 2 6 C1.01 5.67 0.02 5.34 -1 5 C-1 4.67 -1 4.34 -1 4 C-2.02738281 4.0721875 -3.05476563 4.144375 -4.11328125 4.21875 C-12.08786254 4.75957932 -20.00182208 5.15250763 -28 5 C-28 4.34 -28 3.68 -28 3 C-24.45926096 2.4932817 -20.91727889 1.99582971 -17.375 1.5 C-16.37597656 1.35691406 -15.37695312 1.21382812 -14.34765625 1.06640625 C-9.53055443 0.39647818 -4.87803213 -0.19978289 0 0 Z " fill="#1F400C" transform="translate(444,163)"/>
<path d="M0 0 C21.78 0.495 21.78 0.495 44 1 C44 1.33 44 1.66 44 2 C33.11 2 22.22 2 11 2 C11 2.66 11 3.32 11 4 C9.02 4.99 9.02 4.99 7 6 C4 4 4 4 0 0 Z " fill="#376820" transform="translate(373,233)"/>
<path d="M0 0 C3.18895396 1.09999728 6.37588156 2.20575691 9.5625 3.3125 C10.90538086 3.7755957 10.90538086 3.7755957 12.27539062 4.24804688 C17.27703138 5.98854457 22.16272923 7.84346639 27 10 C26.67 10.99 26.34 11.98 26 13 C17.42 9.7 8.84 6.4 0 3 C0 2.01 0 1.02 0 0 Z " fill="#1B3F09" transform="translate(304,218)"/>
<path d="M0 0 C1.70840281 1.63412443 2.93453047 2.86906094 4 5 C5.66321482 5.35015049 7.33034549 5.68197057 9 6 C9.99 6.66 10.98 7.32 12 8 C12 8.66 12 9.32 12 10 C12.99 10.33 13.98 10.66 15 11 C15 12.32 15 13.64 15 15 C10.94785821 13.25477062 7.69396039 10.5771843 4.25 7.875 C3.64800781 7.40707031 3.04601562 6.93914062 2.42578125 6.45703125 C0.94813384 5.30774993 -0.52626005 4.15428765 -2 3 C-1.34 2.67 -0.68 2.34 0 2 C0 1.34 0 0.68 0 0 Z " fill="#346319" transform="translate(237,93)"/>
<path d="M0 0 C7.59 0 15.18 0 23 0 C23 0.99 23 1.98 23 3 C11.615 2.505 11.615 2.505 0 2 C0 1.34 0 0.68 0 0 Z " fill="#184206" transform="translate(76,115)"/>
<path d="M0 0 C6.45512034 -0.56131481 11.15439723 1.36536213 17 4 C16.67 4.66 16.34 5.32 16 6 C13.03 6 10.06 6 7 6 C6.67 5.34 6.34 4.68 6 4 C5.01 3.67 4.02 3.34 3 3 C3 2.34 3 1.68 3 1 C2.01 0.67 1.02 0.34 0 0 Z " fill="#35651F" transform="translate(133,115)"/>
<path d="M0 0 C0.33 0.66 0.66 1.32 1 2 C0.67 2.66 0.34 3.32 0 4 C-4.95 3.01 -9.9 2.02 -15 1 C-15 0.67 -15 0.34 -15 0 C-9.66901216 -0.99956022 -5.35008578 -1.01467144 0 0 Z " fill="#36661C" transform="translate(367,167)"/>
<path d="M0 0 C1.4540625 0.0309375 1.4540625 0.0309375 2.9375 0.0625 C2.9375 1.3825 2.9375 2.7025 2.9375 4.0625 C-0.85818461 5.04048721 -3.5630999 4.98903069 -7.375 4.125 C-8.69951172 3.83302734 -8.69951172 3.83302734 -10.05078125 3.53515625 C-10.71464844 3.37917969 -11.37851563 3.22320312 -12.0625 3.0625 C-12.0625 2.7325 -12.0625 2.4025 -12.0625 2.0625 C-10.01171875 1.83463542 -7.9609375 1.60677083 -5.91015625 1.37890625 C-3.00452994 0.88132542 -3.42063662 0.06980891 0 0 Z " fill="#35661A" transform="translate(140.0625,48.9375)"/>
<path d="M0 0 C0.639375 0.165 1.27875 0.33 1.9375 0.5 C1.9375 0.83 1.9375 1.16 1.9375 1.5 C-0.33088256 1.88955051 -2.60234687 2.26119129 -4.875 2.625 C-6.13957031 2.83382812 -7.40414063 3.04265625 -8.70703125 3.2578125 C-12.0625 3.5 -12.0625 3.5 -15.0625 1.5 C-10.37499363 -1.62500425 -5.43254297 -0.88694579 0 0 Z " fill="#396C20" transform="translate(444.0625,168.5)"/>
<path d="M0 0 C3.875 1.75 3.875 1.75 5 4 C6.48867276 4.92866164 8.01554706 5.79705336 9.5625 6.625 C10.38878906 7.07101563 11.21507812 7.51703125 12.06640625 7.9765625 C13.02353516 8.48316406 13.02353516 8.48316406 14 9 C14 9.66 14 10.32 14 11 C12.32986582 10.34206835 10.6642135 9.67276716 9 9 C7.783125 8.5875 6.56625 8.175 5.3125 7.75 C2 6 2 6 0.5625 2.8125 C0.376875 1.884375 0.19125 0.95625 0 0 Z " fill="#143502" transform="translate(278,120)"/>
<path d="M0 0 C1.98 0 3.96 0 6 0 C6.2493357 1.60115576 6.47378648 3.20620159 6.6875 4.8125 C6.81511719 5.70582031 6.94273437 6.59914062 7.07421875 7.51953125 C7 10 7 10 4 13 C4 9.04 4 5.08 4 1 C2.68 0.67 1.36 0.34 0 0 Z " fill="#639243" transform="translate(440,170)"/>
<path d="M0 0 C6.05537521 0.30276876 9.51483458 3.27754038 14 7 C13.34 7.66 12.68 8.32 12 9 C11.46890625 8.66226563 10.9378125 8.32453125 10.390625 7.9765625 C9.68421875 7.53054687 8.9778125 7.08453125 8.25 6.625 C7.55390625 6.18414062 6.8578125 5.74328125 6.140625 5.2890625 C4.13482617 4.08119094 2.10821704 3.01612263 0 2 C0 1.34 0 0.68 0 0 Z " fill="#1E3E07" transform="translate(229,85)"/>
<path d="M0 0 C0.66 0 1.32 0 2 0 C1.67 1.98 1.34 3.96 1 6 C-2.3 6.66 -5.6 7.32 -9 8 C-9 7.01 -9 6.02 -9 5 C-6.36 4.67 -3.72 4.34 -1 4 C-0.67 2.68 -0.34 1.36 0 0 Z " fill="#20450C" transform="translate(444,232)"/>
<path d="M0 0 C5.23880078 0.55145271 9.97350697 1.42922093 15 3 C12.64046906 5.35953094 11.22104383 5.49141413 8 6 C8 5.34 8 4.68 8 4 C7.01 4 6.02 4 5 4 C5 3.34 5 2.68 5 2 C3.35 1.67 1.7 1.34 0 1 C0 0.67 0 0.34 0 0 Z " fill="#285117" transform="translate(143,49)"/>
<path d="M0 0 C0.99 0.33 1.98 0.66 3 1 C3 4.3 3 7.6 3 11 C2.01 11 1.02 11 0 11 C0 7.37 0 3.74 0 0 Z " fill="#4A7729" transform="translate(443,221)"/>
<path d="M0 0 C3.375 1.5 3.375 1.5 6 3 C5.67 3.66 5.34 4.32 5 5 C3.58194169 4.71517632 2.16559621 4.42181856 0.75 4.125 C-0.03890625 3.96257812 -0.8278125 3.80015625 -1.640625 3.6328125 C-3.96831144 3.00849925 -5.89031952 2.15161458 -8 1 C-5.16870331 -0.41564834 -3.14918438 -0.24224495 0 0 Z " fill="#2C5617" transform="translate(152,120)"/>
<path d="M0 0 C1.77155654 0.11429397 3.54226229 0.24183037 5.3125 0.375 C6.79169922 0.47941406 6.79169922 0.47941406 8.30078125 0.5859375 C11 1 11 1 14 3 C12.35 3.33 10.7 3.66 9 4 C9 3.34 9 2.68 9 2 C8.01 2.495 8.01 2.495 7 3 C4.3276379 3.13415472 1.67749512 3.04318541 -1 3 C-0.67 2.01 -0.34 1.02 0 0 Z " fill="#20440E" transform="translate(106,39)"/>
<path d="M0 0 C2.475 0.99 2.475 0.99 5 2 C5 2.66 5 3.32 5 4 C5.61875 4.0825 6.2375 4.165 6.875 4.25 C9 5 9 5 10.1328125 7.046875 C10.41898438 7.69140625 10.70515625 8.3359375 11 9 C9.53444684 8.26420788 8.07775513 7.51074874 6.625 6.75 C5.81289062 6.33234375 5.00078125 5.9146875 4.1640625 5.484375 C1.79198795 3.85732025 1.02905196 2.64613361 0 0 Z " fill="#0F2F03" transform="translate(194,144)"/>
<path d="M0 0 C0.99 0 1.98 0 3 0 C2.67 6.27 2.34 12.54 2 19 C1.67 19 1.34 19 1 19 C0.67 12.73 0.34 6.46 0 0 Z " fill="#6DA34C" transform="translate(67,46)"/>
<path d="M0 0 C2.75 1.375 2.75 1.375 5 3 C4.34 3.66 3.68 4.32 3 5 C2.01 5 1.02 5 0 5 C0 4.34 0 3.68 0 3 C-1.32 2.67 -2.64 2.34 -4 2 C-2.3125 0.8125 -2.3125 0.8125 0 0 Z " fill="#264B15" transform="translate(199,143)"/>
<path d="M0 0 C2.97 1.98 2.97 1.98 6 4 C5.01 4.66 4.02 5.32 3 6 C1.35 4.68 -0.3 3.36 -2 2 C-1.34 1.34 -0.68 0.68 0 0 Z " fill="#31641A" transform="translate(238,168)"/>
<path d="M0 0 C2.64 0.33 5.28 0.66 8 1 C7.67 1.66 7.34 2.32 7 3 C4.36 2.67 1.72 2.34 -1 2 C-0.67 1.34 -0.34 0.68 0 0 Z " fill="#254510" transform="translate(370,164)"/>
<path d="M0 0 C2.9375 0.75 2.9375 0.75 6 2 C6.875 4.125 6.875 4.125 7 6 C3.535 4.02 3.535 4.02 0 2 C0 1.34 0 0.68 0 0 Z " fill="#1B3D0C" transform="translate(205,151)"/>
<path d="M0 0 C2.31 0 4.62 0 7 0 C7.33 0.99 7.66 1.98 8 3 C5.36 2.67 2.72 2.34 0 2 C0 1.34 0 0.68 0 0 Z " fill="#1E3B0B" transform="translate(106,116)"/>
</svg>
