<?xml version="1.0" encoding="UTF-8"?>
<svg version="1.1" xmlns="http://www.w3.org/2000/svg" width="512" height="280">
<path d="M0 0 C1.69279294 -0.01158107 3.38554768 -0.03212826 5.078125 -0.06152344 C23.93776309 -0.38731722 23.93776309 -0.38731722 31.40869141 4.29516602 C35.14799525 8.03446986 35.60632655 11.2958998 36.22119141 16.35766602 C36.69907905 20.58862917 36.69907905 20.58862917 39.01416016 23.97094727 C40.25436769 24.75598585 41.51222331 25.5139659 42.78759766 26.24047852 C44.40869141 27.29516602 44.40869141 27.29516602 45.84619141 30.04516602 C46.76134461 35.33271784 46.86825008 40.3037451 45.65869141 45.54516602 C45.08824074 48.43002929 45.08824074 48.43002929 47.22119141 50.73266602 C47.94306641 51.57829102 48.66494141 52.42391602 49.40869141 53.29516602 C51.62741444 58.78914687 51.85740589 63.60378768 50.40869141 69.29516602 C48.35823659 73.05433318 46.96972117 74.92114617 43.40869141 77.29516602 C42.89658467 80.24440183 42.89658467 80.24440183 42.84619141 83.60766602 C42.65094017 88.79661554 42.45538702 93.06194888 38.82275391 97.02563477 C38.23236328 97.50645508 37.64197266 97.98727539 37.03369141 98.48266602 C36.44845703 98.9712207 35.86322266 99.45977539 35.26025391 99.96313477 C33.40869141 101.29516602 33.40869141 101.29516602 31.24072266 102.23657227 C30.63615234 102.5859082 30.03158203 102.93524414 29.40869141 103.29516602 C28.91897395 105.25403583 28.43614226 107.21575922 28.02978516 109.19360352 C26.84108718 113.21573881 24.17748105 116.20638621 20.60009766 118.40844727 C17.94064879 119.48455224 15.57665235 119.82771886 12.72119141 120.10766602 C11.26132812 120.27202148 11.26132812 120.27202148 9.77197266 120.43969727 C6.02759651 120.27878912 3.21773952 119.33128222 -0.28149414 118.07666016 C-39.51329028 104.8031183 -86.13361616 120.74544788 -123.59130859 132.29516602 C-186.92172639 151.77886882 -241.25309891 156.74871484 -303.71630859 131.35766602 C-304.41433594 131.07560303 -305.11236328 130.79354004 -305.83154297 130.50292969 C-310.46346438 128.55085445 -310.46346438 128.55085445 -311.59130859 126.29516602 C-313.2275501 125.60577428 -314.86523871 124.91963077 -316.50976562 124.25024414 C-320.44277446 122.44565459 -323.95067924 119.96078077 -327.52880859 117.54516602 C-328.66866211 116.79493164 -328.66866211 116.79493164 -329.83154297 116.02954102 C-340.18003907 109.1010859 -351.84962989 100.14936278 -356.59130859 88.29516602 C-356.96779968 84.65575219 -357.20347309 82.33433414 -355.32568359 79.14672852 C-352.66449524 76.30573014 -350.52763913 76.35777688 -346.75146484 76.13500977 C-338.06447046 76.57526535 -329.52688845 79.47751592 -321.18896484 81.79516602 C-289.81801585 90.42468006 -261.63354734 90.67322078 -229.90380859 84.23266602 C-229.09556641 84.07056641 -228.28732422 83.9084668 -227.45458984 83.74145508 C-223.09127063 82.88312942 -223.09127063 82.88312942 -219.59130859 80.29516602 C-217.98375885 79.72273594 -216.35380126 79.21278072 -214.71630859 78.73266602 C-201.09190515 74.3329487 -188.16175116 67.83971246 -175.65771484 60.92407227 C-172.59130859 59.29516602 -172.59130859 59.29516602 -169.86865234 58.26000977 C-167.58321091 57.46994172 -167.58321091 57.46994172 -166.27832031 55.91552734 C-164.1541129 53.87524303 -161.94130065 52.75068805 -159.32177734 51.40454102 C-157.74976563 50.59206909 -157.74976563 50.59206909 -156.14599609 49.76318359 C-155.03482422 49.19623779 -153.92365234 48.62929199 -152.77880859 48.04516602 C-151.65345703 47.46468506 -150.52810547 46.8842041 -149.36865234 46.28613281 C-144.55030274 43.8065285 -139.72380865 41.34636282 -134.86083984 38.95532227 C-134.20768799 38.63402344 -133.55453613 38.31272461 -132.8815918 37.98168945 C-131.21563359 37.16836198 -129.544297 36.36607672 -127.87255859 35.56469727 C-125.46025191 34.5031227 -125.46025191 34.5031227 -124.59130859 32.29516602 C-123.02270508 31.40063477 -123.02270508 31.40063477 -120.96240234 30.48266602 C-119.7998291 29.960354 -119.7998291 29.960354 -118.61376953 29.42749023 C-117.76073242 29.05382324 -116.90769531 28.68015625 -116.02880859 28.29516602 C-115.13838867 27.90216309 -114.24796875 27.50916016 -113.33056641 27.10424805 C-111.41193119 26.2618151 -109.49144441 25.42358924 -107.56933594 24.58911133 C-105.60354749 23.73498124 -103.64026143 22.87506569 -101.6796875 22.0090332 C-69.09900866 7.64403985 -35.6279489 0.16932779 0 0 Z " fill="#6FA842" transform="translate(403.59130859375,70.704833984375)"/>
<path d="M0 0 C1.69279294 -0.01158107 3.38554768 -0.03212826 5.078125 -0.06152344 C23.93776309 -0.38731722 23.93776309 -0.38731722 31.40869141 4.29516602 C35.14799525 8.03446986 35.60632655 11.2958998 36.22119141 16.35766602 C36.69907905 20.58862917 36.69907905 20.58862917 39.01416016 23.97094727 C40.25436769 24.75598585 41.51222331 25.5139659 42.78759766 26.24047852 C44.40869141 27.29516602 44.40869141 27.29516602 45.84619141 30.04516602 C46.76134461 35.33271784 46.86825008 40.3037451 45.65869141 45.54516602 C45.08824074 48.43002929 45.08824074 48.43002929 47.22119141 50.73266602 C47.94306641 51.57829102 48.66494141 52.42391602 49.40869141 53.29516602 C51.62741444 58.78914687 51.85740589 63.60378768 50.40869141 69.29516602 C48.35823659 73.05433318 46.96972117 74.92114617 43.40869141 77.29516602 C42.89658467 80.24440183 42.89658467 80.24440183 42.84619141 83.60766602 C42.65094017 88.79661554 42.45538702 93.06194888 38.82275391 97.02563477 C38.23236328 97.50645508 37.64197266 97.98727539 37.03369141 98.48266602 C36.44845703 98.9712207 35.86322266 99.45977539 35.26025391 99.96313477 C33.40869141 101.29516602 33.40869141 101.29516602 31.24072266 102.23657227 C30.63615234 102.5859082 30.03158203 102.93524414 29.40869141 103.29516602 C28.91897395 105.25403583 28.43614226 107.21575922 28.02978516 109.19360352 C26.84108718 113.21573881 24.17748105 116.20638621 20.60009766 118.40844727 C17.94064879 119.48455224 15.57665235 119.82771886 12.72119141 120.10766602 C11.26132812 120.27202148 11.26132812 120.27202148 9.77197266 120.43969727 C6.02759651 120.27878912 3.21773952 119.33128222 -0.28149414 118.07666016 C-39.51329028 104.8031183 -86.13361616 120.74544788 -123.59130859 132.29516602 C-186.92172639 151.77886882 -241.25309891 156.74871484 -303.71630859 131.35766602 C-304.41433594 131.07560303 -305.11236328 130.79354004 -305.83154297 130.50292969 C-310.46346438 128.55085445 -310.46346438 128.55085445 -311.59130859 126.29516602 C-313.2275501 125.60577428 -314.86523871 124.91963077 -316.50976562 124.25024414 C-320.44277446 122.44565459 -323.95067924 119.96078077 -327.52880859 117.54516602 C-328.66866211 116.79493164 -328.66866211 116.79493164 -329.83154297 116.02954102 C-340.18003907 109.1010859 -351.84962989 100.14936278 -356.59130859 88.29516602 C-356.96779968 84.65575219 -357.20347309 82.33433414 -355.32568359 79.14672852 C-352.66449524 76.30573014 -350.52763913 76.35777688 -346.75146484 76.13500977 C-338.06447046 76.57526535 -329.52688845 79.47751592 -321.18896484 81.79516602 C-289.81801585 90.42468006 -261.63354734 90.67322078 -229.90380859 84.23266602 C-229.09556641 84.07056641 -228.28732422 83.9084668 -227.45458984 83.74145508 C-223.09127063 82.88312942 -223.09127063 82.88312942 -219.59130859 80.29516602 C-217.98375885 79.72273594 -216.35380126 79.21278072 -214.71630859 78.73266602 C-201.09190515 74.3329487 -188.16175116 67.83971246 -175.65771484 60.92407227 C-172.59130859 59.29516602 -172.59130859 59.29516602 -169.86865234 58.26000977 C-167.58321091 57.46994172 -167.58321091 57.46994172 -166.27832031 55.91552734 C-164.1541129 53.87524303 -161.94130065 52.75068805 -159.32177734 51.40454102 C-157.74976563 50.59206909 -157.74976563 50.59206909 -156.14599609 49.76318359 C-155.03482422 49.19623779 -153.92365234 48.62929199 -152.77880859 48.04516602 C-151.65345703 47.46468506 -150.52810547 46.8842041 -149.36865234 46.28613281 C-144.55030274 43.8065285 -139.72380865 41.34636282 -134.86083984 38.95532227 C-134.20768799 38.63402344 -133.55453613 38.31272461 -132.8815918 37.98168945 C-131.21563359 37.16836198 -129.544297 36.36607672 -127.87255859 35.56469727 C-125.46025191 34.5031227 -125.46025191 34.5031227 -124.59130859 32.29516602 C-123.02270508 31.40063477 -123.02270508 31.40063477 -120.96240234 30.48266602 C-119.7998291 29.960354 -119.7998291 29.960354 -118.61376953 29.42749023 C-117.76073242 29.05382324 -116.90769531 28.68015625 -116.02880859 28.29516602 C-115.13838867 27.90216309 -114.24796875 27.50916016 -113.33056641 27.10424805 C-111.41193119 26.2618151 -109.49144441 25.42358924 -107.56933594 24.58911133 C-105.60354749 23.73498124 -103.64026143 22.87506569 -101.6796875 22.0090332 C-69.09900866 7.64403985 -35.6279489 0.16932779 0 0 Z M-54.59130859 13.29516602 C-58.04836019 14.29960858 -61.50743101 15.29703277 -64.96630859 16.29516602 C-65.86091797 16.55555664 -66.75552734 16.81594727 -67.67724609 17.08422852 C-71.89543243 18.2981833 -76.08261152 19.42508753 -80.38427734 20.30297852 C-84.09729122 21.1001506 -87.17218766 22.35297712 -90.52880859 24.17016602 C-94.13165665 26.06018467 -97.64878043 27.76601772 -101.46630859 29.17016602 C-106.41078917 31.06210553 -110.8587228 33.68156194 -115.40136719 36.36401367 C-119.58524544 38.80470476 -123.73680114 40.73269513 -128.31005859 42.31079102 C-131.3288044 43.61340051 -133.86207901 45.46654795 -136.59130859 47.29516602 C-138.67888555 48.36969347 -140.78436702 49.40994117 -142.90380859 50.42016602 C-148.69464021 53.25085095 -154.32490719 56.31729303 -159.90380859 59.54516602 C-160.65122314 59.96942871 -161.3986377 60.39369141 -162.16870117 60.83081055 C-162.86116943 61.2367041 -163.5536377 61.64259766 -164.26708984 62.06079102 C-165.1938855 62.59881348 -165.1938855 62.59881348 -166.1394043 63.14770508 C-167.90727421 64.32935699 -167.90727421 64.32935699 -168.59130859 67.29516602 C-169.45755859 67.39829102 -170.32380859 67.50141602 -171.21630859 67.60766602 C-174.8530854 68.34849092 -177.32482904 69.53629241 -180.59130859 71.29516602 C-191.2489781 76.74617864 -201.88832649 81.63314151 -213.27880859 85.35766602 C-214.32681641 85.70200684 -215.37482422 86.04634766 -216.45458984 86.40112305 C-250.20056946 97.34058296 -294.8749637 101.70928505 -328.37646484 86.70922852 C-335.27825301 83.67344806 -343.09958428 82.95463309 -350.59130859 83.29516602 C-350.92605088 86.52138905 -350.75913774 88.01871649 -349.05224609 90.83032227 C-345.19123863 95.5083594 -341.77853935 99.06755577 -336.59130859 102.29516602 C-335.88876953 103.20008789 -335.18623047 104.10500977 -334.46240234 105.03735352 C-331.21432644 109.02979271 -327.19003813 111.49625533 -322.84130859 114.17016602 C-321.59679932 114.94626221 -321.59679932 114.94626221 -320.32714844 115.73803711 C-312.38089938 120.59751465 -304.13884816 124.61576157 -295.59130859 128.29516602 C-294.75212891 128.66512695 -293.91294922 129.03508789 -293.04833984 129.41625977 C-288.83918899 130.92191786 -284.44642559 131.58173242 -280.06396484 132.41625977 C-276.55513186 133.30432211 -273.77423303 134.59731078 -270.59130859 136.29516602 C-257.33796567 141.81100816 -243.30256277 142.76746995 -229.15380859 142.98266602 C-227.67135991 143.01599957 -226.18893705 143.05050252 -224.70654297 143.08618164 C-220.33502547 143.18528678 -215.9636832 143.24890207 -211.59130859 143.29516602 C-210.86909119 143.30304138 -210.14687378 143.31091675 -209.402771 143.31903076 C-194.05379564 143.46430008 -179.82303001 142.06621311 -165.00146484 137.96069336 C-162.20225888 137.18773596 -159.39673098 136.4397703 -156.59130859 135.68969727 C-146.59146812 132.98363501 -136.76638356 130.16867375 -127.12988281 126.35644531 C-121.4438176 124.14238244 -115.70248562 122.69833031 -109.77880859 121.30297852 C-105.05865234 120.18874932 -100.38838271 118.90701956 -95.71630859 117.60766602 C-94.93658691 117.39295654 -94.15686523 117.17824707 -93.35351562 116.95703125 C-89.38036137 115.87638282 -89.38036137 115.87638282 -85.59130859 114.29516602 C-83.28375649 113.94801216 -80.96991796 113.642183 -78.65380859 113.35766602 C-73.21010342 112.67159399 -67.82523056 111.85011502 -62.44677734 110.76000977 C-52.60395856 109.15769043 -42.72771668 109.01967095 -32.77880859 108.98266602 C-32.00562286 108.97871826 -31.23243713 108.97477051 -30.43582153 108.97070312 C-19.26478263 108.94412227 -8.82177314 109.74253556 2.06884766 112.42016602 C8.1738963 113.83387817 14.88009309 114.69295828 20.40869141 111.29516602 C22.52351971 108.23598042 22.62994172 105.702678 22.53369141 102.04516602 C22.51564453 101.15313477 22.49759766 100.26110352 22.47900391 99.34204102 C22.45580078 98.66657227 22.43259766 97.99110352 22.40869141 97.29516602 C23.42189453 97.18301758 23.42189453 97.18301758 24.45556641 97.06860352 C29.05562743 96.39055984 31.69805932 95.98927178 35.09619141 92.67016602 C36.69191272 88.56688263 36.72943981 85.42968277 35.40869141 81.29516602 C34.23810538 79.07622384 32.9554614 77.29099827 31.40869141 75.29516602 C32.33101563 75.05733398 32.33101563 75.05733398 33.27197266 74.81469727 C38.30328937 73.38306476 38.30328937 73.38306476 42.40869141 70.29516602 C43.95444402 65.65790818 44.77636729 61.19260885 44.40869141 56.29516602 C42.05436506 52.83292138 40.59569192 51.63807727 36.59619141 50.48266602 C35.87431641 50.42079102 35.15244141 50.35891602 34.40869141 50.29516602 C37.18555091 45.53483544 37.18555091 45.53483544 39.09619141 43.48266602 C41.07724004 40.18091829 41.04858068 36.98740069 40.40869141 33.29516602 C37.62173317 28.06961932 33.78710706 26.99833097 28.40869141 25.29516602 C29.06869141 24.30516602 29.72869141 23.31516602 30.40869141 22.29516602 C31.00999789 18.8839081 31.04984833 15.70199135 30.40869141 12.29516602 C28.29749111 9.426265 25.58246271 7.88205167 22.40869141 6.29516602 C20.0018933 6.17146173 17.62531459 6.10715788 15.21728516 6.09204102 C14.48818939 6.08516266 13.75909363 6.0782843 13.00790405 6.07119751 C10.62061671 6.05387478 8.23353857 6.04772178 5.84619141 6.04516602 C4.6310939 6.04265839 4.6310939 6.04265839 3.39144897 6.0401001 C-16.31484117 6.03766177 -35.62220745 7.6746916 -54.59130859 13.29516602 Z " fill="#2C5517" transform="translate(403.59130859375,70.704833984375)"/>
<path d="M0 0 C1.24362305 0.00080566 2.48724609 0.00161133 3.76855469 0.00244141 C14.11242876 0.0711849 24.51465915 0.32543222 34.5 3.3125 C38.48329978 4.44675801 42.51512828 4.37037177 46.625 4.375 C47.30691406 4.37580566 47.98882812 4.37661133 48.69140625 4.37744141 C52.72179235 4.33324858 56.54527042 3.95750186 60.5 3.1875 C58.71825212 5.48892435 57.33695835 6.98784391 54.453125 7.67578125 C52.4753389 7.91073102 50.48728128 8.05501458 48.5 8.1875 C48.52320313 8.86296875 48.54640625 9.5384375 48.5703125 10.234375 C48.58835937 11.12640625 48.60640625 12.0184375 48.625 12.9375 C48.64820313 13.81921875 48.67140625 14.7009375 48.6953125 15.609375 C48.48447555 18.39242278 48.08302466 19.89759012 46.5 22.1875 C40.97140168 25.58529226 34.26520489 24.72621216 28.16015625 23.3125 C27.42514893 23.13154785 26.6901416 22.9505957 25.93286133 22.76416016 C4.14469488 17.46354741 -23.97757917 17.63172214 -45.6484375 23.23046875 C-49.41969071 24.16754485 -52.85967992 24.54110219 -56.71484375 24.74609375 C-59.98300682 25.26404947 -62.90990755 26.27138919 -66.03100586 27.35180664 C-70.24777241 28.77907767 -74.53052507 29.97305042 -78.8125 31.1875 C-79.73458252 31.45095215 -80.65666504 31.7144043 -81.60668945 31.98583984 C-87.25225976 33.58751162 -92.90383383 35.08977922 -98.63671875 36.3515625 C-101.22329609 37.10671605 -103.58849874 38.02409568 -106.07421875 39.0546875 C-111.80873008 41.39063486 -117.65558974 43.06411833 -123.625 44.6875 C-124.72521484 44.98938232 -125.82542969 45.29126465 -126.95898438 45.60229492 C-129.14653209 46.19970073 -131.3349862 46.79379929 -133.52441406 47.38427734 C-136.0477803 48.06542888 -138.56707216 48.75950811 -141.0859375 49.45703125 C-155.15841849 53.26668953 -168.8042276 54.32745604 -183.33734131 54.20489502 C-185.45749205 54.18784191 -187.57755074 54.17899621 -189.69775391 54.17138672 C-237.76288754 53.92461246 -237.76288754 53.92461246 -245.5 46.1875 C-248.3058348 44.82466596 -250.64621151 44.16781768 -253.75 43.75 C-272.60076381 40.92238543 -294.56113366 28.95889784 -308.5 16.1875 C-308.83 15.5275 -309.16 14.8675 -309.5 14.1875 C-306.22367654 15.39219625 -303.64323976 16.70392588 -300.875 18.8125 C-294.06020403 23.47766234 -286.28408143 26.29365632 -278.6484375 29.33154297 C-276.94706087 30.00938689 -275.25332152 30.70639676 -273.5625 31.41015625 C-253.73185392 39.25978699 -230.719081 42.65285819 -209.5 43.1875 C-207.80302979 43.23632324 -207.80302979 43.23632324 -206.07177734 43.28613281 C-173.57202198 44.10410047 -144.89389743 38.27835203 -114.51757812 26.60375977 C-104.49128312 22.75373461 -94.33656197 19.34865434 -84.12109375 16.03808594 C-81.838095 15.29721712 -79.55926319 14.5450698 -77.28125 13.7890625 C-59.74700347 8.10130071 -41.89597067 3.73735997 -23.59570312 1.45385742 C-21.65358199 1.2070198 -19.71697523 0.91779878 -17.78125 0.625 C-11.8802383 -0.10169326 -5.93649949 -0.00396931 0 0 Z " fill="#578C38" transform="translate(377.5,159.8125)"/>
<path d="M0 0 C1.63150903 0.00502851 3.26301958 0.00958901 4.89453125 0.01367188 C8.8463923 0.02456243 12.79817892 0.04175134 16.75 0.0625 C16.75 1.0525 16.75 2.0425 16.75 3.0625 C17.61625 3.000625 18.4825 2.93875 19.375 2.875 C23.38281094 3.09765616 25.42023426 3.81852743 28.75 6.0625 C30.57832561 8.23672505 31.85375501 10.36227472 32.75 13.0625 C32.4375 16.25 32.4375 16.25 31.75 19.0625 C31.868692 21.11602997 31.868692 21.11602997 32.75 23.0625 C34.55584665 24.54733034 34.55584665 24.54733034 36.75 25.6875 C40.65818859 27.87887717 40.65818859 27.87887717 41.75 30.0625 C41.77586426 33.3916003 41.72241053 36.70602626 41.62304688 40.03320312 C41.55716688 44.22239545 41.87985934 47.30927653 43.75 51.0625 C44.27980469 52.17431641 44.27980469 52.17431641 44.8203125 53.30859375 C45.16835938 54.03175781 45.51640625 54.75492188 45.875 55.5 C47.51762836 59.25635014 48.54247672 61.92401044 47.75 66.0625 C45.58439698 70.60769844 43.61607898 74.21414442 38.75 76.0625 C37.76 76.0625 36.77 76.0625 35.75 76.0625 C35.42 76.7225 35.09 77.3825 34.75 78.0625 C34.42 78.0625 34.09 78.0625 33.75 78.0625 C33.42 79.0525 33.09 80.0425 32.75 81.0625 C29.75 77.3125 29.75 77.3125 29.75 75.0625 C30.36488281 74.96195312 30.97976563 74.86140625 31.61328125 74.7578125 C34.29643339 74.13302747 36.37494312 73.47321641 38.75 72.0625 C41.38718306 67.44742964 42.6236634 61.30448042 41.75 56.0625 C39.25108551 52.73061401 36.66020436 51.36590145 32.75 50.0625 C33.18149127 47.14993394 33.77633001 46.03377635 35.8125 43.8125 C38.06689923 40.61270755 38.41229579 38.82555902 38.1953125 34.9921875 C37.39488224 31.52365636 35.56201577 30.09672417 32.75 28.0625 C30.40667576 27.13775841 28.22852109 26.59708298 25.75 26.0625 C26.07097656 25.505625 26.39195312 24.94875 26.72265625 24.375 C28.49183126 20.39267451 28.46634853 16.32512837 27.75 12.0625 C24.68146023 8.7517071 22.11641882 7.13273101 17.61499023 6.90136719 C16.26293348 6.88137119 14.91077172 6.86786355 13.55859375 6.859375 C12.82949799 6.85249664 12.10040222 6.84561829 11.34921265 6.83853149 C8.9619253 6.82120876 6.57484717 6.81505576 4.1875 6.8125 C2.9724025 6.80999237 2.9724025 6.80999237 1.73275757 6.80743408 C-17.97353258 6.80499576 -37.28089886 8.44202559 -56.25 14.0625 C-59.7070516 15.06694256 -63.16612241 16.06436675 -66.625 17.0625 C-67.51960938 17.32289062 -68.41421875 17.58328125 -69.3359375 17.8515625 C-73.55412384 19.06551729 -77.74130293 20.19242152 -82.04296875 21.0703125 C-85.75598262 21.86748458 -88.83087906 23.12031111 -92.1875 24.9375 C-95.79034806 26.82751865 -99.30747183 28.53335171 -103.125 29.9375 C-108.06948058 31.82943951 -112.5174142 34.44889592 -117.06005859 37.13134766 C-121.24393684 39.57203875 -125.39549254 41.50002912 -129.96875 43.078125 C-132.98749581 44.38073449 -135.52077042 46.23388194 -138.25 48.0625 C-140.33757696 49.13702745 -142.44305843 50.17727516 -144.5625 51.1875 C-150.36823198 54.01830197 -155.98650991 57.11580697 -161.5625 60.375 C-162.30991455 60.8076416 -163.0573291 61.2402832 -163.82739258 61.68603516 C-167.65992077 63.73943182 -167.65992077 63.73943182 -170.25 67.0625 C-172.03286615 67.89959531 -173.85318254 68.65762999 -175.6875 69.375 C-180.45772675 71.29775097 -185.03885776 73.40037334 -189.61572266 75.73974609 C-197.84722512 79.87304362 -206.18511796 83.26309643 -214.9375 86.125 C-215.98550781 86.46934082 -217.03351563 86.81368164 -218.11328125 87.16845703 C-251.99193244 98.15092519 -296.13225541 102.29303239 -329.7890625 87.5078125 C-334.20084696 85.66541944 -338.47496018 85.03081353 -343.1875 84.375 C-344.49944336 84.18067383 -344.49944336 84.18067383 -345.83789062 83.98242188 C-347.97401986 83.66725527 -350.11185355 83.36367747 -352.25 83.0625 C-349.70572927 91.48739649 -345.62779728 96.35326769 -338.25 101.0625 C-337.54488281 101.97257812 -336.83976562 102.88265625 -336.11328125 103.8203125 C-332.89336198 107.7965482 -328.82920155 110.17701643 -324.5 112.8125 C-322.9609207 113.76138691 -321.42432273 114.71431416 -319.890625 115.671875 C-319.21547852 116.08405273 -318.54033203 116.49623047 -317.84472656 116.92089844 C-316.25 118.0625 -316.25 118.0625 -315.25 120.0625 C-316.875 120.75 -316.875 120.75 -319.25 121.0625 C-322.5 119.625 -322.5 119.625 -325.25 118.0625 C-325.25 117.4025 -325.25 116.7425 -325.25 116.0625 C-325.96671875 115.80339844 -326.6834375 115.54429687 -327.421875 115.27734375 C-330.3978962 113.99897 -332.84397108 112.4738824 -335.5 110.625 C-336.80710937 109.72974609 -336.80710937 109.72974609 -338.140625 108.81640625 C-340.25 107.0625 -340.25 107.0625 -341.25 104.0625 C-342.02085937 103.75828125 -342.79171875 103.4540625 -343.5859375 103.140625 C-349.10913708 100.90542986 -352.19067725 94.80525678 -355.1875 89.875 C-356.38627721 86.7017662 -356.63230438 84.42677855 -356.25 81.0625 C-353.71179266 78.52429266 -352.73613305 78.64805871 -349.1875 78.5 C-339.86597208 78.60368774 -331.19956755 81.68559495 -322.328125 84.3046875 C-313.05246737 87.03569382 -303.97926924 89.27080929 -294.25 89.0625 C-294.25 89.3925 -294.25 89.7225 -294.25 90.0625 C-287.31117901 91.28942377 -280.3435622 91.4000945 -273.3125 91.625 C-272.05630859 91.66818359 -270.80011719 91.71136719 -269.50585938 91.75585938 C-266.42067032 91.86143619 -263.33540737 91.96354551 -260.25 92.0625 C-260.25 91.0725 -260.25 90.0825 -260.25 89.0625 C-259.17105469 88.89234375 -258.09210938 88.7221875 -256.98046875 88.546875 C-248.53765583 87.19203171 -240.12806153 85.71286964 -231.75 84 C-230.93168701 83.83790039 -230.11337402 83.67580078 -229.27026367 83.50878906 C-224.82211597 82.67070199 -224.82211597 82.67070199 -221.25 80.0625 C-219.64245026 79.49006993 -218.01249267 78.98011471 -216.375 78.5 C-202.75059655 74.10028268 -189.82044257 67.60704645 -177.31640625 60.69140625 C-174.25 59.0625 -174.25 59.0625 -171.52734375 58.02734375 C-169.24190232 57.2372757 -169.24190232 57.2372757 -167.93701172 55.68286133 C-165.8128043 53.64257701 -163.59999205 52.51802203 -160.98046875 51.171875 C-159.40845703 50.35940308 -159.40845703 50.35940308 -157.8046875 49.53051758 C-156.69351563 48.96357178 -155.58234375 48.39662598 -154.4375 47.8125 C-153.31214844 47.23201904 -152.18679687 46.65153809 -151.02734375 46.0534668 C-146.20899415 43.57386249 -141.38250006 41.1136968 -136.51953125 38.72265625 C-135.86637939 38.40135742 -135.21322754 38.08005859 -134.5402832 37.74902344 C-132.874325 36.93569596 -131.2029884 36.1334107 -129.53125 35.33203125 C-127.11894331 34.27045669 -127.11894331 34.27045669 -126.25 32.0625 C-124.68139648 31.16796875 -124.68139648 31.16796875 -122.62109375 30.25 C-121.45852051 29.72768799 -121.45852051 29.72768799 -120.27246094 29.19482422 C-119.41942383 28.82115723 -118.56638672 28.44749023 -117.6875 28.0625 C-116.79708008 27.66949707 -115.90666016 27.27649414 -114.98925781 26.87158203 C-113.0706226 26.02914909 -111.15013581 25.19092323 -109.22802734 24.35644531 C-107.26223889 23.50231523 -105.29895284 22.64239968 -103.33837891 21.77636719 C-70.13968456 7.13888753 -36.27105156 -0.19627994 0 0 Z " fill="#2C5716" transform="translate(405.25,70.9375)"/>
<path d="M0 0 C1 1 1 1 1.0625 3.5625 C1.041875 4.366875 1.02125 5.17125 1 6 C-0.33285034 6.05945801 -0.33285034 6.05945801 -1.69262695 6.12011719 C-40.85463584 7.94383202 -77.60737678 14.02298342 -114.01269531 29.26123047 C-116 30 -116 30 -118 30 C-118 30.66 -118 31.32 -118 32 C-118.6084375 32.1959375 -119.216875 32.391875 -119.84375 32.59375 C-127.91865781 35.34871855 -135.34278987 39.04663299 -142.91064453 42.93554688 C-144.96184146 43.98055957 -147.02287153 45.00221862 -149.08984375 46.015625 C-155.65821297 49.24119175 -162.11172268 52.5684079 -168.4375 56.25 C-173.5165823 59.19474992 -178.54890641 61.81637479 -184 64 C-184.65548828 64.27231445 -185.31097656 64.54462891 -185.98632812 64.82519531 C-188.31889099 65.79287452 -190.65842129 66.74186244 -193 67.6875 C-193.74797852 67.9976001 -194.49595703 68.3077002 -195.26660156 68.62719727 C-200.55595018 70.72200597 -205.32364989 71.57765252 -211 72 C-211 71.34 -211 70.68 -211 70 C-210.24662354 69.65388672 -210.24662354 69.65388672 -209.47802734 69.30078125 C-198.67243267 64.3154784 -188.25049882 59.05494582 -178 53 C-175.48381728 51.55431003 -172.96060137 50.12107278 -170.4375 48.6875 C-167.48460371 47.0045198 -164.5357523 45.32218875 -161.62304688 43.57055664 C-145.67327773 34.02058783 -129.42842016 24.57852711 -112 18 C-111.14535156 17.63519531 -110.29070312 17.27039063 -109.41015625 16.89453125 C-107 16 -107 16 -104 16 C-104 15.34 -104 14.68 -104 14 C-103.24976563 13.75765625 -102.49953125 13.5153125 -101.7265625 13.265625 C-96.88408614 11.67992745 -92.08096312 10.08307556 -87.375 8.125 C-73.83042688 2.64678094 -60.27678415 -1.09045606 -45.89086914 -3.61450195 C-43.78869958 -4.0035774 -43.78869958 -4.0035774 -41 -5 C-26.95472033 -6.91817173 -12.69476313 -6.79022214 0 0 Z " fill="#7FBE50" transform="translate(420,86)"/>
<path d="M0 0 C10.89 0 21.78 0 33 0 C33 0.99 33 1.98 33 3 C34.299375 2.9071875 34.299375 2.9071875 35.625 2.8125 C39.63281094 3.03515616 41.67023426 3.75602743 45 6 C46.82832561 8.17422505 48.10375501 10.29977472 49 13 C48.6875 16.1875 48.6875 16.1875 48 19 C48.118692 21.05352997 48.118692 21.05352997 49 23 C50.80584665 24.48483034 50.80584665 24.48483034 53 25.625 C56.90818859 27.81637717 56.90818859 27.81637717 58 30 C58.02586426 33.3291003 57.97241053 36.64352626 57.87304688 39.97070312 C57.80716688 44.15989545 58.12985934 47.24677653 60 51 C60.52980469 52.11181641 60.52980469 52.11181641 61.0703125 53.24609375 C61.59238281 54.33083984 61.59238281 54.33083984 62.125 55.4375 C63.76762836 59.19385014 64.79247672 61.86151044 64 66 C61.83439698 70.54519844 59.86607898 74.15164442 55 76 C54.01 76 53.02 76 52 76 C51.67 76.66 51.34 77.32 51 78 C50.67 78 50.34 78 50 78 C49.67 78.99 49.34 79.98 49 81 C46 77.25 46 77.25 46 75 C46.61488281 74.89945312 47.22976563 74.79890625 47.86328125 74.6953125 C50.54643339 74.07052747 52.62494312 73.41071641 55 72 C57.63718306 67.38492964 58.8736634 61.24198042 58 56 C55.50108551 52.66811401 52.91020436 51.30340145 49 50 C49.43149127 47.08743394 50.02633001 45.97127635 52.0625 43.75 C54.31689923 40.55020755 54.66229579 38.76305902 54.4453125 34.9296875 C53.64488224 31.46115636 51.81201577 30.03422417 49 28 C46.65667576 27.07525841 44.47852109 26.53458298 42 26 C42.32097656 25.443125 42.64195312 24.88625 42.97265625 24.3125 C44.74183126 20.33017451 44.71634853 16.26262837 44 12 C40.93146023 8.6892071 38.36641882 7.07023101 33.86499023 6.83886719 C32.51293348 6.81887119 31.16077172 6.80536355 29.80859375 6.796875 C29.07949799 6.78999664 28.35040222 6.78311829 27.59921265 6.77603149 C25.2119253 6.75870876 22.82484717 6.75255576 20.4375 6.75 C19.2224025 6.74749237 19.2224025 6.74749237 17.98275757 6.74493408 C-1.72353258 6.74249576 -21.03089886 8.37952559 -40 14 C-43.4570516 15.00444256 -46.91612241 16.00186675 -50.375 17 C-51.71691406 17.39058594 -51.71691406 17.39058594 -53.0859375 17.7890625 C-57.30412384 19.00301729 -61.49130293 20.12992152 -65.79296875 21.0078125 C-69.50598262 21.80498458 -72.58087906 23.05781111 -75.9375 24.875 C-79.54034806 26.76501865 -83.05747183 28.47085171 -86.875 29.875 C-91.81948058 31.76693951 -96.2674142 34.38639592 -100.81005859 37.06884766 C-104.99393684 39.50953875 -109.14549254 41.43752912 -113.71875 43.015625 C-116.73807721 44.31848537 -119.26772973 46.17287838 -122 48 C-124.3806136 49.30470851 -126.80891457 50.50057393 -129.25 51.6875 C-130.18585938 52.14866211 -130.18585938 52.14866211 -131.140625 52.61914062 C-132.7588117 53.41602783 -134.37925521 54.20832851 -136 55 C-136.99 55.495 -136.99 55.495 -138 56 C-138.33 54.35 -138.66 52.7 -139 51 C-120.77591329 40.54580196 -120.77591329 40.54580196 -111.28515625 37.03515625 C-108.99774173 36.17677296 -108.99774173 36.17677296 -107.71655273 34.6159668 C-105.44969385 32.48194049 -103.06964384 31.42713765 -100.25 30.109375 C-99.0935498 29.56796875 -97.93709961 29.0265625 -96.74560547 28.46875 C-95.4975003 27.8948972 -94.24895536 27.32200005 -93 26.75 C-92.05377777 26.31397461 -92.05377777 26.31397461 -91.08843994 25.86914062 C-72.39163469 17.27078115 -53.11012009 9.89411807 -32.75 6.359375 C-30.90125863 6.05819161 -30.90125863 6.05819161 -29 5 C-27.29297265 4.93003986 -25.58331997 4.91559846 -23.875 4.9375 C-22.96492188 4.94652344 -22.05484375 4.95554687 -21.1171875 4.96484375 C-20.06917969 4.98224609 -20.06917969 4.98224609 -19 5 C-19 4.34 -19 3.68 -19 3 C-12.73 2.67 -6.46 2.34 0 2 C0 1.34 0 0.68 0 0 Z " fill="#2E5916" transform="translate(389,71)"/>
<path d="M0 0 C5.73579667 0.96871233 10.61566323 1.92883014 15 6 C17.05375093 10.15582541 17.94257264 14.13858958 18.25 18.75 C19.22278611 22.9654065 20.84379881 23.55337363 24.34375 25.76953125 C27.04944806 27.77966071 27.43666699 29.74518705 28 33 C28.27474522 37.24328732 28.20864776 41.0958597 27.25 45.25 C26.67954933 48.13486328 26.67954933 48.13486328 28.8125 50.4375 C29.8953125 51.7059375 29.8953125 51.7059375 31 53 C33.21872304 58.49398085 33.44871449 63.30862166 32 69 C29.94954519 72.75916716 28.56102976 74.62598016 25 77 C24.48789327 79.94923582 24.48789327 79.94923582 24.4375 83.3125 C24.24224876 88.50144953 24.04669562 92.76678286 20.4140625 96.73046875 C19.82367188 97.21128906 19.23328125 97.69210938 18.625 98.1875 C17.74714844 98.92033203 17.74714844 98.92033203 16.8515625 99.66796875 C15 101 15 101 12.83203125 101.94140625 C12.22746094 102.29074219 11.62289062 102.64007813 11 103 C10.51028255 104.95886982 10.02745085 106.9205932 9.62109375 108.8984375 C8.43239577 112.9205728 5.76878964 115.9112202 2.19140625 118.11328125 C-0.46804261 119.18938623 -2.83203906 119.53255285 -5.6875 119.8125 C-7.14736328 119.97685547 -7.14736328 119.97685547 -8.63671875 120.14453125 C-12.36004187 119.98452782 -15.10940663 119.03383509 -18.5847168 117.78149414 C-22.65938074 116.46308726 -26.83254514 115.91302889 -31.0625 115.3125 C-32.3609082 115.11817383 -32.3609082 115.11817383 -33.68554688 114.91992188 C-35.78930608 114.60610144 -37.89451257 114.30200786 -40 114 C-40.33 113.01 -40.66 112.02 -41 111 C-39.2984375 110.7834375 -39.2984375 110.7834375 -37.5625 110.5625 C-34.19222799 110.38828522 -34.19222799 110.38828522 -33 109 C-28.1150611 108.75666556 -23.91992545 109.33176697 -19.1875 110.5 C-11.96391318 112.13088435 -5.21091843 113.02297259 2 111 C3.00109515 107.68929162 3.10356134 104.69915231 3.0625 101.25 C3.05347656 100.26515625 3.04445313 99.2803125 3.03515625 98.265625 C3.02355469 97.51796875 3.01195312 96.7703125 3 96 C3.60328125 95.97421875 4.2065625 95.9484375 4.828125 95.921875 C8.59932702 95.65424131 11.28790286 95.46286314 14.5 93.375 C17.79388097 88.15968847 17.07266075 82.84004186 16 77 C16.67546875 76.79246094 17.3509375 76.58492188 18.046875 76.37109375 C24.22619988 74.30977195 24.22619988 74.30977195 28.6875 69.8125 C30.64228535 65.51566049 30.16371728 61.47457491 29 57 C27.62507196 53.8331162 27.62507196 53.8331162 26 51 C23.56010013 45.04250597 24.00437127 39.79239969 24.3203125 33.4609375 C24.30902959 29.95959914 24.30902959 29.95959914 22.16015625 27.62890625 C19.99202876 25.9068394 19.99202876 25.9068394 17.3125 24.5625 C15 23 15 23 14.125 20.6875 C14 18 14 18 14.6875 15.0625 C15.29092745 11.85642787 15.29092745 11.85642787 13.375 8.75 C9.53424807 4.30281355 5.66637736 3.79065731 0 3 C0 2.01 0 1.02 0 0 Z " fill="#2C5616" transform="translate(422,71)"/>
<path d="M0 0 C0 0.66 0 1.32 0 2 C1.98 2 3.96 2 6 2 C6 2.33 6 2.66 6 3 C2.20873402 3.19628414 -1.58302172 3.38053896 -5.375 3.5625 C-6.45523438 3.61857422 -7.53546875 3.67464844 -8.6484375 3.73242188 C-9.6796875 3.78076172 -10.7109375 3.82910156 -11.7734375 3.87890625 C-12.72653809 3.9260376 -13.67963867 3.97316895 -14.66162109 4.02172852 C-17 4 -17 4 -19 3 C-19 3.66 -19 4.32 -19 5 C-20.10408203 5.07347656 -20.10408203 5.07347656 -21.23046875 5.1484375 C-22.20628906 5.22320312 -23.18210937 5.29796875 -24.1875 5.375 C-25.15042969 5.44460937 -26.11335937 5.51421875 -27.10546875 5.5859375 C-30.05405848 6.00773306 -32.25873163 6.86297315 -35 8 C-37.40862838 8.63545611 -39.82656638 9.23607601 -42.25 9.8125 C-45.16850655 10.53435309 -48.08412277 11.26760983 -51 12 C-51.6604834 12.16306641 -52.3209668 12.32613281 -53.00146484 12.49414062 C-70.79134774 16.97171456 -87.34635078 25.19374768 -103.83984375 33.07421875 C-106 34 -106 34 -108 34 C-108.33 34.99 -108.66 35.98 -109 37 C-111.30078125 38.140625 -111.30078125 38.140625 -114.3125 39.25 C-119.88741926 41.44698002 -124.84454688 44.14309517 -129.97265625 47.22265625 C-143.08462144 54.92064872 -143.08462144 54.92064872 -150 56 C-150.07734375 56.91458984 -150.07734375 56.91458984 -150.15625 57.84765625 C-151 60 -151 60 -153.40625 61.30859375 C-154.4271875 61.68113281 -155.448125 62.05367187 -156.5 62.4375 C-160.35310608 63.9250628 -163.98713856 65.4300539 -167.5625 67.5 C-172.55818015 70.36739574 -177.7146445 72.71667554 -183 75 C-183.68819824 75.2976123 -184.37639648 75.59522461 -185.08544922 75.90185547 C-187.36535754 76.88206296 -189.65040874 77.84918182 -191.9375 78.8125 C-192.67162109 79.12687012 -193.40574219 79.44124023 -194.16210938 79.76513672 C-197.71069036 81.24043551 -200.10323123 82 -204 82 C-204.495 83.485 -204.495 83.485 -205 85 C-207.7121582 85.89135742 -207.7121582 85.89135742 -211.30078125 86.60546875 C-212.58791016 86.86650391 -213.87503906 87.12753906 -215.20117188 87.39648438 C-215.87591553 87.52627686 -216.55065918 87.65606934 -217.24584961 87.78979492 C-219.29636001 88.18439403 -221.34251587 88.5971409 -223.38867188 89.01367188 C-233.36013863 91 -233.36013863 91 -238 91 C-237.67 90.01 -237.34 89.02 -237 88 C-234.8125 87.5625 -232.625 87.125 -230.4375 86.6875 C-229.43650269 86.4855603 -229.43650269 86.4855603 -228.4152832 86.27954102 C-224.85905126 85.56363563 -221.30107164 84.86508809 -217.734375 84.203125 C-217.05576416 84.07462158 -216.37715332 83.94611816 -215.67797852 83.8137207 C-213.7693083 83.4529626 -211.85928852 83.09936684 -209.94921875 82.74609375 C-206.901511 82.24290454 -206.901511 82.24290454 -205 80 C-203.39245026 79.42756993 -201.76249267 78.91761471 -200.125 78.4375 C-186.50059655 74.03778268 -173.57044257 67.54454645 -161.06640625 60.62890625 C-158 59 -158 59 -155.27734375 57.96484375 C-152.99190232 57.1747757 -152.99190232 57.1747757 -151.68701172 55.62036133 C-149.5628043 53.58007701 -147.34999205 52.45552203 -144.73046875 51.109375 C-143.15845703 50.29690308 -143.15845703 50.29690308 -141.5546875 49.46801758 C-140.44351563 48.90107178 -139.33234375 48.33412598 -138.1875 47.75 C-136.49947266 46.87927856 -136.49947266 46.87927856 -134.77734375 45.9909668 C-129.95899415 43.51136249 -125.13250006 41.0511968 -120.26953125 38.66015625 C-119.61637939 38.33885742 -118.96322754 38.01755859 -118.2902832 37.68652344 C-116.624325 36.87319596 -114.9529884 36.0709107 -113.28125 35.26953125 C-110.86894331 34.20795669 -110.86894331 34.20795669 -110 32 C-108.43139648 31.10546875 -108.43139648 31.10546875 -106.37109375 30.1875 C-105.20852051 29.66518799 -105.20852051 29.66518799 -104.02246094 29.13232422 C-103.16942383 28.75865723 -102.31638672 28.38499023 -101.4375 28 C-100.54708008 27.60699707 -99.65666016 27.21399414 -98.73925781 26.80908203 C-96.8206226 25.96664909 -94.90013581 25.12842323 -92.97802734 24.29394531 C-91.01223889 23.43981523 -89.04895284 22.57989968 -87.08837891 21.71386719 C-60.05278154 9.79372954 -29.8867911 0 0 0 Z " fill="#1A3A06" transform="translate(389,71)"/>
<path d="M0 0 C11.05441879 3.08181631 21.97419074 5.69249956 33.375 7.125 C34.05731689 7.2185376 34.73963379 7.3120752 35.44262695 7.40844727 C41.6180349 8.19525936 47.71876574 8.24100334 53.9375 8.1875 C54.94619141 8.18298828 55.95488281 8.17847656 56.99414062 8.17382812 C59.45449147 8.16216769 61.91471239 8.14580378 64.375 8.125 C64.375 9.115 64.375 10.105 64.375 11.125 C60.04168104 11.1542427 55.70838779 11.17188017 51.375 11.1875 C50.15425781 11.19587891 48.93351562 11.20425781 47.67578125 11.21289062 C41.48720028 11.22961652 35.48012348 11.19489296 29.375 10.125 C28.88 9.63 28.88 9.63 28.375 9.125 C26.91855382 9.01344242 25.45935896 8.93786469 24 8.875 C18.51505336 8.42623164 13.41940079 7.23820045 8.125 5.8125 C7.30580078 5.59215088 6.48660156 5.37180176 5.64257812 5.14477539 C1.83963079 4.10750577 -1.94968549 3.0346732 -5.7265625 1.90625 C-13.79541657 -0.43254828 -21.20111859 -1.70648344 -29.625 -0.875 C-30.88795977 0.18982942 -30.88795977 0.18982942 -31 2.625 C-30.23317552 9.78202847 -25.5637168 16.06281528 -20.625 21.125 C-18.97702764 21.83662443 -17.31334592 22.51531953 -15.625 23.125 C-15.295 24.115 -14.965 25.105 -14.625 26.125 C-12.2951869 27.74060587 -9.98896662 29.23351756 -7.5625 30.6875 C-5.19538076 32.1114522 -2.91235319 33.56959983 -0.625 35.125 C-0.625 35.785 -0.625 36.445 -0.625 37.125 C0.2103125 37.2796875 0.2103125 37.2796875 1.0625 37.4375 C3.375 38.125 3.375 38.125 5.75 39.5625 C8.55149677 41.2300576 11.2629014 42.18413298 14.375 43.125 C14.375 43.785 14.375 44.445 14.375 45.125 C15.1798584 45.38349731 15.1798584 45.38349731 16.00097656 45.6472168 C20.92415411 47.25483913 25.75061235 49.02370115 30.56567383 50.92895508 C47.09751287 57.44360042 63.8260258 62.29532099 81.375 65.125 C81.375 66.115 81.375 67.105 81.375 68.125 C58.31751121 65.43958966 32.83467495 58.25957792 12.375 47.125 C12.045 46.465 11.715 45.805 11.375 45.125 C9.7387585 44.43560826 8.10106988 43.74946475 6.45654297 43.08007812 C2.52353414 41.27548857 -0.98437065 38.79061475 -4.5625 36.375 C-5.32240234 35.87484375 -6.08230469 35.3746875 -6.86523438 34.859375 C-17.21373048 27.93091988 -28.88332129 18.97919677 -33.625 7.125 C-34.01085068 3.39511012 -34.13117257 1.08672788 -32.375 -2.25 C-24.80784034 -9.27664825 -8.37101691 -2.40036647 0 0 Z " fill="#103002" transform="translate(80.625,151.875)"/>
<path d="M0 0 C1.98 0 3.96 0 6 0 C6.33 0.99 6.66 1.98 7 3 C7.58007812 3.04898438 8.16015625 3.09796875 8.7578125 3.1484375 C9.53898437 3.22320312 10.32015625 3.29796875 11.125 3.375 C11.89070313 3.44460937 12.65640625 3.51421875 13.4453125 3.5859375 C16 4 16 4 18.73925781 4.98828125 C29.94836046 8.46615796 43.69503434 7.3080198 55.375 7.375 C56.19795563 7.38055908 57.02091125 7.38611816 57.86880493 7.3918457 C71.71257816 7.4387675 84.53081377 6.02273632 97.9675293 2.45898438 C100 2 100 2 103 2 C102.67 2.99 102.34 3.98 102 5 C100.30444336 5.84375 100.30444336 5.84375 98.08984375 6.5 C96.86575806 6.86907471 96.86575806 6.86907471 95.61694336 7.24560547 C94.73272705 7.49455566 93.84851074 7.74350586 92.9375 8 C92.02427979 8.26055176 91.11105957 8.52110352 90.17016602 8.78955078 C87.45226795 9.54872958 84.72844769 10.279764 82 11 C81.31421875 11.1865918 80.6284375 11.37318359 79.921875 11.56542969 C70.74548783 13.98001476 61.75174336 14.26749305 52.3125 14.3125 C50.63788696 14.32095947 50.63788696 14.32095947 48.92944336 14.32958984 C41.13123555 14.26184424 33.66991684 13.37793591 26 12 C24.77023438 11.78859375 23.54046875 11.5771875 22.2734375 11.359375 C14.1663268 9.65491507 4.80997607 7.21496411 0 0 Z " fill="#7FBC4F" transform="translate(86,162)"/>
<path d="M0 0 C1.32 0 2.64 0 4 0 C4 0.66 4 1.32 4 2 C-2.62296267 3.53552983 -9.24821392 5.05844193 -15.8828125 6.54296875 C-32.81611407 10.36669256 -49.40489989 14.88306096 -66 20 C-80.52943788 24.47000445 -95.03096476 28.92914238 -109.8125 32.5 C-110.81361816 32.74314941 -111.81473633 32.98629883 -112.84619141 33.23681641 C-118.56255708 34.57444012 -124.1524078 35.47113246 -130 36 C-130 35.01 -130 34.02 -130 33 C-129.36835938 32.88519287 -128.73671875 32.77038574 -128.0859375 32.65209961 C-107.20935534 28.8035438 -87.26355438 23.03453813 -67.07519531 16.55957031 C-50.62668867 11.30148962 -34.15138836 6.95010571 -17.23217773 3.47729492 C-14.50567295 2.89430063 -11.82458712 2.28434039 -9.1875 1.375 C-6.01017333 0.83031543 -3.15186822 1.45448435 0 2 C0 1.34 0 0.68 0 0 Z " fill="#1F3F0B" transform="translate(346,183)"/>
<path d="M0 0 C5.73579667 0.96871233 10.61566323 1.92883014 15 6 C17.05375093 10.15582541 17.94257264 14.13858958 18.25 18.75 C19.22278611 22.9654065 20.84379881 23.55337363 24.34375 25.76953125 C27.04944806 27.77966071 27.43666699 29.74518705 28 33 C28.27474522 37.24328732 28.20864776 41.0958597 27.25 45.25 C26.67954933 48.13486328 26.67954933 48.13486328 28.8125 50.4375 C29.534375 51.283125 30.25625 52.12875 31 53 C33.21872304 58.49398085 33.44871449 63.30862166 32 69 C29.94954519 72.75916716 28.56102976 74.62598016 25 77 C24.48789327 79.94923582 24.48789327 79.94923582 24.4375 83.3125 C24.24097664 88.53525708 24.03599458 92.78248301 20.37890625 96.765625 C19.77949219 97.25546875 19.18007813 97.7453125 18.5625 98.25 C17.96566406 98.75015625 17.36882812 99.2503125 16.75390625 99.765625 C15 101 15 101 12 102 C12 101.01 12 100.02 12 99 C13.95309888 97.59886384 15.95708818 96.26660533 18 95 C20.98556025 92.01443975 20.23004775 88.62875187 20.25 84.625 C20.23839844 83.85671875 20.22679687 83.0884375 20.21484375 82.296875 C20.26523013 80.05661887 20.37148527 78.15327079 21 76 C23.92578125 73.62890625 23.92578125 73.62890625 27 72 C30.15269101 67.62691248 30.3025422 64.30486478 29.51953125 59.16796875 C28.80102765 56.16970185 27.49242093 53.68635767 26 51 C23.56010013 45.04250597 24.00437127 39.79239969 24.3203125 33.4609375 C24.30902959 29.95959914 24.30902959 29.95959914 22.16015625 27.62890625 C19.99202876 25.9068394 19.99202876 25.9068394 17.3125 24.5625 C15 23 15 23 14.125 20.6875 C14 18 14 18 14.6875 15.0625 C15.29092745 11.85642787 15.29092745 11.85642787 13.375 8.75 C9.53424807 4.30281355 5.66637736 3.79065731 0 3 C0 2.01 0 1.02 0 0 Z " fill="#163505" transform="translate(422,71)"/>
<path d="M0 0 C10.46426673 2.91039497 20.79438039 5.22374319 31.5625 6.625 C32.59467651 6.76748169 32.59467651 6.76748169 33.64770508 6.9128418 C39.81657067 7.69814534 45.91299891 7.74094541 52.125 7.6875 C53.13369141 7.68298828 54.14238281 7.67847656 55.18164062 7.67382812 C57.64199147 7.66216769 60.10221239 7.64580378 62.5625 7.625 C62.5625 8.615 62.5625 9.605 62.5625 10.625 C58.22918104 10.6542427 53.89588779 10.67188017 49.5625 10.6875 C48.34175781 10.69587891 47.12101562 10.70425781 45.86328125 10.71289062 C39.67470028 10.72961652 33.66762348 10.69489296 27.5625 9.625 C27.0675 9.13 27.0675 9.13 26.5625 8.625 C25.10605382 8.51344242 23.64685896 8.43786469 22.1875 8.375 C12.02492122 7.54351628 2.19056222 4.23847298 -7.57421875 1.44140625 C-15.23703966 -0.70859386 -22.4742374 -2.07841666 -30.4375 -2.375 C-30.4375 -2.705 -30.4375 -3.035 -30.4375 -3.375 C-19.43837867 -4.94630305 -10.6278262 -3.04546917 0 0 Z " fill="#1D400A" transform="translate(82.4375,152.375)"/>
<path d="M0 0 C0.66 0.33 1.32 0.66 2 1 C-0.73876036 5.63482522 -3.01101289 8.5945955 -8 11 C-14.9143238 12.44007314 -20.00943096 12.13178987 -26.58032227 9.77709961 C-30.6583248 8.46741521 -34.83176714 7.91313934 -39.0625 7.3125 C-39.92810547 7.18294922 -40.79371094 7.05339844 -41.68554688 6.91992188 C-43.78930608 6.60610144 -45.89451257 6.30200786 -48 6 C-48.33 5.01 -48.66 4.02 -49 3 C-47.4221875 2.7834375 -47.4221875 2.7834375 -45.8125 2.5625 C-42.84539451 2.12473034 -39.93205634 1.62195134 -37 1 C-37 1.99 -37 2.98 -37 4 C-34.125 4.71875 -34.125 4.71875 -31.25 5.4375 C-30.18265625 5.70433594 -29.1153125 5.97117188 -28.015625 6.24609375 C-27.02046875 6.49488281 -26.0253125 6.74367187 -25 7 C-24.32582031 7.19464844 -23.65164063 7.38929688 -22.95703125 7.58984375 C-20.42270365 8.12099025 -18.02502688 8.13204089 -15.4375 8.125 C-14.48746094 8.12757813 -13.53742188 8.13015625 -12.55859375 8.1328125 C-9.8787562 8.10770994 -9.8787562 8.10770994 -7 7 C-6.566875 6.071875 -6.566875 6.071875 -6.125 5.125 C-4.61933799 2.28097176 -2.86753578 1.3620795 0 0 Z " fill="#1D3F0A" transform="translate(430,179)"/>
<path d="M0 0 C0 0.66 0 1.32 0 2 C1.98 2 3.96 2 6 2 C6 2.33 6 2.66 6 3 C2.20873402 3.19628414 -1.58302172 3.38053896 -5.375 3.5625 C-6.99535156 3.64661133 -6.99535156 3.64661133 -8.6484375 3.73242188 C-9.6796875 3.78076172 -10.7109375 3.82910156 -11.7734375 3.87890625 C-12.72653809 3.9260376 -13.67963867 3.97316895 -14.66162109 4.02172852 C-17 4 -17 4 -19 3 C-19 3.66 -19 4.32 -19 5 C-20.10408203 5.07347656 -20.10408203 5.07347656 -21.23046875 5.1484375 C-22.69419922 5.26058594 -22.69419922 5.26058594 -24.1875 5.375 C-25.15042969 5.44460937 -26.11335938 5.51421875 -27.10546875 5.5859375 C-30.05952164 6.00851457 -32.25246388 6.86097685 -35 8 C-37.62172412 8.72521596 -40.23495539 9.41359184 -42.875 10.0625 C-43.55691406 10.23587891 -44.23882812 10.40925781 -44.94140625 10.58789062 C-49.27982419 11.66629737 -53.56479294 12.43836151 -58 13 C-57.67 12.01 -57.34 11.02 -57 10 C-54.29015091 9.00980314 -51.72811368 8.2477864 -48.9375 7.5625 C-48.10275146 7.35077148 -47.26800293 7.13904297 -46.40795898 6.92089844 C-31.45368819 3.26690132 -15.45090575 0 0 0 Z " fill="#1E410B" transform="translate(389,71)"/>
<path d="M0 0 C1.27617188 0.29648438 2.55234375 0.59296875 3.8671875 0.8984375 C11.87006938 2.49901388 20.00188718 2.97843304 28.125 3.625 C29.76566879 3.75988502 31.40629432 3.8952975 33.046875 4.03125 C37.03077723 4.36024885 41.0151968 4.68210763 45 5 C45 5.33 45 5.66 45 6 C30.47874815 7.78969336 14.74410032 8.99924963 1 3 C0.67 2.01 0.34 1.02 0 0 Z " fill="#689F41" transform="translate(92,162)"/>
<path d="M0 0 C6.20204756 1.08289719 12.11696918 2.59401836 18.125 4.4375 C26.32107492 6.93996367 34.5527018 8.60159128 43 10 C43 10.99 43 11.98 43 13 C28.71581497 11.12754129 12.98675647 8.49337823 0 2 C0 1.34 0 0.68 0 0 Z " fill="#1E3F0A" transform="translate(119,207)"/>
<path d="M0 0 C2.95696764 0.31967218 4.55750679 0.54925517 6.67578125 2.70703125 C9.10038039 6.90537844 7.88414217 11.4092618 7 16 C5.75 19.125 5.75 19.125 4 21 C1.3125 21.8125 1.3125 21.8125 -1 22 C0.875 17.25 0.875 17.25 2 15 C2.40253336 9.71089889 2.55311917 4.78709845 0 0 Z " fill="#7EB755" transform="translate(440,122)"/>
<path d="M0 0 C-5.85585421 4.21210566 -12.03854169 7.83136376 -18.3125 11.375 C-19.10124512 11.82794434 -19.88999023 12.28088867 -20.70263672 12.74755859 C-21.45689941 13.16859863 -22.21116211 13.58963867 -22.98828125 14.0234375 C-24.00208862 14.59457275 -24.00208862 14.59457275 -25.03637695 15.17724609 C-27 16 -27 16 -31 16 C-31.33 17.32 -31.66 18.64 -32 20 C-32.99 20 -33.98 20 -35 20 C-34.59375 17.80859375 -34.59375 17.80859375 -33 15 C-30.00437701 13.00162052 -26.76850587 11.55981913 -23.5 10.0625 C-21.67680862 9.19601837 -19.85517286 8.32625544 -18.03515625 7.453125 C-17.16262207 7.03611328 -16.29008789 6.61910156 -15.39111328 6.18945312 C-11.68024379 4.34349068 -8.21544458 2.16985523 -4.77734375 -0.13671875 C-3 -1 -3 -1 0 0 Z " fill="#143402" transform="translate(270,111)"/>
<path d="M0 0 C2.31 0.66 4.62 1.32 7 2 C7 2.66 7 3.32 7 4 C8.175625 4.37125 9.35125 4.7425 10.5625 5.125 C17.49748605 7.42554826 24.23580524 10.24619739 31 13 C30.67 13.99 30.34 14.98 30 16 C25.84974466 14.38613531 21.7056255 12.75707223 17.5625 11.125 C16.37849609 10.66480469 15.19449219 10.20460937 13.97460938 9.73046875 C12.84990234 9.28574219 11.72519531 8.84101563 10.56640625 8.3828125 C9.52427979 7.97434082 8.48215332 7.56586914 7.40844727 7.14501953 C5 6 5 6 4 4 C1.97536745 3.34786708 1.97536745 3.34786708 0 3 C0 2.01 0 1.02 0 0 Z " fill="#183808" transform="translate(88,193)"/>
<path d="M0 0 C0 0.66 0 1.32 0 2 C-23.47572816 8 -23.47572816 8 -30 8 C-29.67 7.01 -29.34 6.02 -29 5 C-27.54980469 4.70996094 -27.54980469 4.70996094 -26.0703125 4.4140625 C-25.44423096 4.28878174 -24.81814941 4.16350098 -24.1730957 4.03442383 C-22.80193911 3.76032327 -21.43068158 3.48672716 -20.05932617 3.21362305 C-17.00959593 2.60569026 -13.9618884 1.99202989 -10.91796875 1.35546875 C-10.05816406 1.17628906 -9.19835937 0.99710938 -8.3125 0.8125 C-7.56613281 0.65394531 -6.81976563 0.49539062 -6.05078125 0.33203125 C-4 0 -4 0 0 0 Z " fill="#1F410A" transform="translate(181,154)"/>
<path d="M0 0 C0.66 0.33 1.32 0.66 2 1 C-0.73876036 5.63482522 -3.01101289 8.5945955 -8 11 C-11.9957384 11.60804715 -15.9625084 11.86933684 -20 12 C-20.33 11.01 -20.66 10.02 -21 9 C-20.24074219 8.93941406 -19.48148437 8.87882813 -18.69921875 8.81640625 C-17.20841797 8.69072266 -17.20841797 8.69072266 -15.6875 8.5625 C-14.70136719 8.48128906 -13.71523438 8.40007812 -12.69921875 8.31640625 C-9.90624401 8.08187441 -9.90624401 8.08187441 -7 7 C-6.566875 6.071875 -6.566875 6.071875 -6.125 5.125 C-4.61933799 2.28097176 -2.86753578 1.3620795 0 0 Z " fill="#133608" transform="translate(430,179)"/>
<path d="M0 0 C3.83473284 -0.35671933 5.55342875 -0.29771416 8.8125 1.875 C11.94571773 4.91869723 11.94571773 4.91869723 12.09765625 7.9453125 C12.04882812 10.97265625 12.04882812 10.97265625 12 14 C11.01 14.33 10.02 14.66 9 15 C8.81824219 14.30132812 8.63648438 13.60265625 8.44921875 12.8828125 C8.19785156 11.97273438 7.94648438 11.06265625 7.6875 10.125 C7.44386719 9.22007813 7.20023437 8.31515625 6.94921875 7.3828125 C6.13330148 4.67886681 6.13330148 4.67886681 3 3 C3 2.34 3 1.68 3 1 C2.01 0.67 1.02 0.34 0 0 Z " fill="#7DB557" transform="translate(432,98)"/>
<path d="M0 0 C1.32 0 2.64 0 4 0 C4 4.62 4 9.24 4 14 C3.01 14 2.02 14 1 14 C0.63906896 11.85529407 0.28642411 9.70919203 -0.0625 7.5625 C-0.25972656 6.36753906 -0.45695312 5.17257813 -0.66015625 3.94140625 C-0.77230469 2.97074219 -0.88445312 2.00007812 -1 1 C-0.67 0.67 -0.34 0.34 0 0 Z " fill="#274F13" transform="translate(439,147)"/>
<path d="M0 0 C4.87664009 -0.34833144 7.77050005 0.58314288 12 3 C11.34 4.32 10.68 5.64 10 7 C4.5388601 6.03108808 4.5388601 6.03108808 2 5 C0.5 2.375 0.5 2.375 0 0 Z " fill="#305C19" transform="translate(121,203)"/>
<path d="M0 0 C3.82834653 3.42536269 5.86783912 5.95673791 7 11 C7.125 14.375 7.125 14.375 7 17 C6.896875 16.360625 6.79375 15.72125 6.6875 15.0625 C6.460625 14.381875 6.23375 13.70125 6 13 C5.01 12.67 4.02 12.34 3 12 C2.05078125 10.0390625 2.05078125 10.0390625 1.3125 7.625 C1.06113281 6.83351563 0.80976563 6.04203125 0.55078125 5.2265625 C0 3 0 3 0 0 Z " fill="#2C5416" transform="translate(446,120)"/>
<path d="M0 0 C0.99 0.99 1.98 1.98 3 3 C1.21046815 3.83790789 -0.58169695 4.67019396 -2.375 5.5 C-3.87160156 6.19609375 -3.87160156 6.19609375 -5.3984375 6.90625 C-8 8 -8 8 -10 8 C-9.67 6.35 -9.34 4.7 -9 3 C-6.03 2.01 -3.06 1.02 0 0 Z " fill="#32601C" transform="translate(286,105)"/>
<path d="M0 0 C1.28019391 3.84058173 0.60131965 5.3398408 -1 9 C-2.9375 10.9375 -2.9375 10.9375 -5 12 C-5.99 11.67 -6.98 11.34 -8 11 C-7.67 9.68 -7.34 8.36 -7 7 C-5.68 7 -4.36 7 -3 7 C-3.0928125 5.824375 -3.0928125 5.824375 -3.1875 4.625 C-3.125625 3.75875 -3.06375 2.8925 -3 2 C-2.01 1.34 -1.02 0.68 0 0 Z " fill="#244811" transform="translate(433,170)"/>
<path d="M0 0 C1.32 0 2.64 0 4 0 C3.67 0.99 3.34 1.98 3 3 C2.34 3 1.68 3 1 3 C1 3.66 1 4.32 1 5 C-1.64 5 -4.28 5 -7 5 C-7.33 4.01 -7.66 3.02 -8 2 C-6.865625 1.855625 -5.73125 1.71125 -4.5625 1.5625 C-1.19222799 1.38828522 -1.19222799 1.38828522 0 0 Z " fill="#264B0D" transform="translate(389,180)"/>
<path d="M0 0 C0 0.66 0 1.32 0 2 C1.98 2 3.96 2 6 2 C6 2.33 6 2.66 6 3 C-3.405 3.495 -3.405 3.495 -13 4 C-12.67 3.01 -12.34 2.02 -12 1 C-10.37512529 0.83211627 -8.75009558 0.66573213 -7.125 0.5 C-6.22007812 0.4071875 -5.31515625 0.314375 -4.3828125 0.21875 C-2 0 -2 0 0 0 Z " fill="#224511" transform="translate(389,71)"/>
<path d="M0 0 C0.99 0.66 1.98 1.32 3 2 C2.01 3.485 2.01 3.485 1 5 C-1.64 4.01 -4.28 3.02 -7 2 C-7 1.34 -7 0.68 -7 0 C-4.28569464 -1.35715268 -2.88661718 -0.77445827 0 0 Z " fill="#264D13" transform="translate(121,203)"/>
<path d="M0 0 C0.66 0.33 1.32 0.66 2 1 C-1.625 6.75 -1.625 6.75 -5 9 C-5.33 7.35 -5.66 5.7 -6 4 C-4.02 2.68 -2.04 1.36 0 0 Z " fill="#1C3B0F" transform="translate(430,179)"/>
<path d="M0 0 C1.9375 0.3125 1.9375 0.3125 4 1 C4.33 1.99 4.66 2.98 5 4 C0.375 6.125 0.375 6.125 -3 5 C-2.01 3.35 -1.02 1.7 0 0 Z " fill="#35631B" transform="translate(307,93)"/>
<path d="M0 0 C0.66 0.33 1.32 0.66 2 1 C2 5.62 2 10.24 2 15 C1.01 15.495 1.01 15.495 0 16 C-0.9360342 12.20732808 -0.98276252 9.06325435 -0.5625 5.1875 C-0.40974609 3.72376953 -0.40974609 3.72376953 -0.25390625 2.23046875 C-0.12822266 1.12638672 -0.12822266 1.12638672 0 0 Z " fill="#20430E" transform="translate(447,105)"/>
<path d="M0 0 C1.48206495 0.254496 2.96068615 0.52911762 4.4375 0.8125 C5.67306641 1.03873047 5.67306641 1.03873047 6.93359375 1.26953125 C7.95646484 1.63111328 7.95646484 1.63111328 9 2 C9.33 2.99 9.66 3.98 10 5 C6.7 4.34 3.4 3.68 0 3 C0 2.01 0 1.02 0 0 Z " fill="#1D3A09" transform="translate(422,71)"/>
<path d="M0 0 C0.66 0.33 1.32 0.66 2 1 C1.34 2.65 0.68 4.3 0 6 C-3.63 5.67 -7.26 5.34 -11 5 C-11 4.67 -11 4.34 -11 4 C-5.555 3.01 -5.555 3.01 0 2 C0 1.34 0 0.68 0 0 Z " fill="#2D5C17" transform="translate(424,180)"/>
<path d="M0 0 C2.375 0.25 2.375 0.25 5 1 C6.3125 3.0625 6.3125 3.0625 7 5 C4.69 4.67 2.38 4.34 0 4 C0 2.68 0 1.36 0 0 Z " fill="#36611D" transform="translate(61,170)"/>
<path d="M0 0 C0 0.66 0 1.32 0 2 C-1.4800841 1.88637738 -2.95910074 1.75877092 -4.4375 1.625 C-5.26121094 1.55539063 -6.08492188 1.48578125 -6.93359375 1.4140625 C-7.61550781 1.27742187 -8.29742187 1.14078125 -9 1 C-9.33 0.34 -9.66 -0.32 -10 -1 C-5.92224809 -1.9267618 -3.57818963 -2.33958553 0 0 Z " fill="#38641A" transform="translate(88,159)"/>
<path d="M0 0 C3.3 0 6.6 0 10 0 C6.37542083 2.71843438 5.19115285 3.41789544 1 4 C0.67 2.68 0.34 1.36 0 0 Z " fill="#31621A" transform="translate(198,149)"/>
<path d="M0 0 C5.75 0.875 5.75 0.875 8 2 C7.67 2.99 7.34 3.98 7 5 C4.69 4.01 2.38 3.02 0 2 C0 1.34 0 0.68 0 0 Z " fill="#153204" transform="translate(111,204)"/>
<path d="M0 0 C2.97 0 5.94 0 9 0 C9 0.66 9 1.32 9 2 C6.36 2.33 3.72 2.66 1 3 C0.67 2.01 0.34 1.02 0 0 Z " fill="#20400C" transform="translate(354,182)"/>
<path d="M0 0 C0 0.99 0 1.98 0 3 C-0.66 3 -1.32 3 -2 3 C-2.33 4.32 -2.66 5.64 -3 7 C-3.99 7 -4.98 7 -6 7 C-4.52307692 2.32307692 -4.52307692 2.32307692 -1.875 0.6875 C-1.25625 0.460625 -0.6375 0.23375 0 0 Z " fill="#0D2701" transform="translate(241,124)"/>
<path d="M0 0 C2.97 0.33 5.94 0.66 9 1 C9 1.33 9 1.66 9 2 C5.37 2.33 1.74 2.66 -2 3 C-1.34 2.67 -0.68 2.34 0 2 C0 1.34 0 0.68 0 0 Z " fill="#3A681E" transform="translate(370,77)"/>
<path d="M0 0 C1.98 0 3.96 0 6 0 C6.33 0.99 6.66 1.98 7 3 C5.35 3.33 3.7 3.66 2 4 C1.34 2.68 0.68 1.36 0 0 Z " fill="#356520" transform="translate(121,203)"/>
<path d="M0 0 C0.99 0.33 1.98 0.66 3 1 C-0.625 5.875 -0.625 5.875 -4 7 C-4 4 -4 4 -2 1.8125 C-1.34 1.214375 -0.68 0.61625 0 0 Z " fill="#0A2700" transform="translate(450,141)"/>
<path d="M0 0 C0.33 0 0.66 0 1 0 C1 1.65 1 3.3 1 5 C2.32 5.66 3.64 6.32 5 7 C5 7.66 5 8.32 5 9 C2.5625 8.3125 2.5625 8.3125 0 7 C-0.875 4.5 -0.875 4.5 -1 2 C-0.67 1.34 -0.34 0.68 0 0 Z " fill="#1E3E09" transform="translate(437,87)"/>
<path d="M0 0 C0 0.99 0 1.98 0 3 C0.99 3.33 1.98 3.66 3 4 C-3.75 3.25 -3.75 3.25 -6 1 C-3.92446352 0.4465236 -2.15634036 0 0 0 Z " fill="#285615" transform="translate(336,83)"/>
</svg>
